<?xml version="1.0" encoding="utf-8"?>
<!-- Generator: Adobe Illustrator 16.0.0, SVG Export Plug-In . SVG Version: 6.00 Build 0)  -->
<!DOCTYPE svg PUBLIC "-//W3C//DTD SVG 1.1//EN" "http://www.w3.org/Graphics/SVG/1.1/DTD/svg11.dtd">
<svg version="1.1" id="Layer_1" xmlns="http://www.w3.org/2000/svg" xmlns:xlink="http://www.w3.org/1999/xlink" x="0px" y="0px"
	 width="450px" height="122.8px" viewBox="0 0 450 122.8" enable-background="new 0 0 450 122.8" xml:space="preserve">
<g>
	<path fill-rule="evenodd" clip-rule="evenodd" d="M33,8.3l120-0.5l1.5,4.7l11,0.3L179,4.3h65.5l67.5,7c0,0,35.5,28.1,46,34
		c10.5,5.9,49,11.6,54,12.5c11.7,2.2,19.8,4.5,24,7.5c5,3.5,5,7.5,5,7.5l5,41.5c0,1.4-3.6,3-5,3h-77c0,0,1.6,5.5-3,5.5
		s-191.1-0.5-193.5-0.5c-3.7,0-3.5-2.5-3.5-2.5l-141.5-2c-1.4,0-3.5-2.1-3.5-3.5V94.8L9,48.3l1.5-8L33,8.3z"/>
</g>
</svg>
