<?xml version="1.0" encoding="utf-8"?>
<!-- Generator: Adobe Illustrator 22.0.1, SVG Export Plug-In . SVG Version: 6.00 Build 0)  -->
<svg version="1.2" baseProfile="tiny" id="Layer_1" xmlns="http://www.w3.org/2000/svg" xmlns:xlink="http://www.w3.org/1999/xlink"
	 x="0px" y="0px" viewBox="0 0 1600 500" xml:space="preserve">
<rect id="bg" x="-7" y="-2" fill="#333333" width="1619" height="511"/>
<g>
	<circle fill="#8CC63F" cx="976.343" cy="253.825" r="34.391"/>
	<circle fill="#8CC63F" cx="1250.976" cy="253.825" r="34.391"/>
	<circle fill="#8CC63F" cx="1525.609" cy="253.825" r="34.391"/>
	<circle fill="#3FA9F5" cx="1251.474" cy="74.391" r="34.391"/>
	<circle fill="#F7931E" cx="1525.609" cy="425.284" r="34.391"/>
	
		<line fill="none" stroke="#FFFFFF" stroke-width="5" stroke-miterlimit="10" x1="1030.671" y1="254.323" x2="1196.647" y2="254.323"/>
	
		<line fill="none" stroke="#FFFFFF" stroke-width="5" stroke-miterlimit="10" x1="1303.809" y1="255.32" x2="1469.785" y2="255.32"/>
	<path fill="none" stroke="#FFFFFF" stroke-width="5" stroke-miterlimit="10" d="M1303.809,255.32
		c0,0,127.099,25.42,172.954,149.029"/>
	<path fill="none" stroke="#FFFFFF" stroke-width="5" stroke-miterlimit="10" d="M1030.671,254.822
		c0,0,127.099-25.42,172.954-149.03"/>
	<path fill="none" stroke="#FFFFFF" stroke-width="5" stroke-miterlimit="10" d="M1469.785,254.822
		c0,0-127.099-25.42-172.954-149.03"/>
	<circle fill="#8CC63F" cx="698.485" cy="254.881" r="34.391"/>
	<line fill="none" stroke="#FFFFFF" stroke-width="5" stroke-miterlimit="10" x1="752.813" y1="255.38" x2="918.789" y2="255.38"/>
</g>
<g>
	<path fill="#FEFEFE" d="M310.666,350.354c2.863,3.665,5.893,8.764,5.893,16.091c0,17.682-13.859,28.035-33.927,28.035
		c-5.102,0-9.722-0.636-12.587-1.431l-5.26,8.441l15.61,0.954c27.561,1.756,43.804,2.554,43.804,23.734
		c0,18.324-16.084,28.673-43.804,28.673c-28.832,0-39.824-7.329-39.824-19.911c0-7.172,3.187-10.986,8.762-16.251
		c-5.259-2.223-7.009-6.203-7.009-10.506c0-3.507,1.75-6.692,4.622-9.721c2.868-3.024,6.052-6.054,9.875-9.558
		c-7.803-3.823-13.699-12.107-13.699-23.897c0-18.317,12.108-30.898,36.477-30.898c6.85,0,10.995,0.631,14.659,1.593h31.065v13.537
		L310.666,350.354z M263.514,423.001c-2.073,2.545-4.142,5.25-4.142,8.441c0,6.367,8.121,8.283,19.275,8.283
		c9.24,0,21.825-0.647,21.825-9.238c0-5.106-6.054-5.421-13.705-5.901L263.514,423.001z M281.035,349.873
		c-8.763,0-15.291,4.303-15.291,14.66c0,7.803,4.303,13.22,14.819,13.22c8.914,0,14.97-5.253,14.97-13.543
		C295.533,354.816,290.115,349.873,281.035,349.873z"/>
	<path fill="#FEFEFE" d="M332.795,417.14v-12.579l8.128-1.112c2.231-0.323,2.547-0.797,2.547-3.193v-46.833
		c0-1.749-0.476-2.869-2.074-3.343l-8.601-3.03l1.752-12.899h32.978v66.104c0,2.553,0.155,2.87,2.551,3.193l8.124,1.112v12.579
		H332.795z M353.35,321.408c-9.082,0-14.338-5.261-14.338-14.345c0-9.073,5.255-14.014,14.338-14.014
		c9.24,0,14.497,4.942,14.497,14.014C367.846,316.146,362.59,321.408,353.35,321.408z"/>
	<path fill="#FEFEFE" d="M441.195,410.964c-6.852,3.342-16.887,6.369-25.971,6.369c-18.956,0-26.123-7.639-26.123-25.648v-41.734
		c0-0.954,0-1.594-1.278-1.594h-11.15V334.18c14.023-1.597,19.595-8.608,21.346-25.971h15.137v22.628c0,1.111,0,1.593,1.276,1.593
		h22.458v15.927h-23.734v38.07c0,9.399,2.233,13.06,10.83,13.06c4.465,0,9.081-1.112,12.904-2.546L441.195,410.964z"/>
	<g>
		<path fill="#FEFEFE" d="M205.162,369.16l-72.838-72.833c-4.192-4.195-10.995-4.195-15.192,0l-15.124,15.126l19.185,19.186
			c4.46-1.506,9.572-0.496,13.126,3.058c3.572,3.576,4.575,8.732,3.032,13.207l18.491,18.491c4.474-1.542,9.636-0.545,13.208,3.034
			c4.994,4.992,4.994,13.083,0,18.077c-4.995,4.996-13.085,4.996-18.082,0c-3.755-3.758-4.684-9.275-2.782-13.902l-17.245-17.246
			l-0.002,45.381c1.218,0.602,2.367,1.407,3.381,2.418c4.993,4.992,4.993,13.081,0,18.081c-4.994,4.992-13.088,4.992-18.077,0
			c-4.993-5-4.993-13.089,0-18.081c1.234-1.232,2.662-2.165,4.186-2.789v-45.802c-1.524-0.623-2.95-1.549-4.186-2.789
			c-3.782-3.78-4.693-9.331-2.754-13.975l-18.913-18.916l-49.943,49.94c-4.196,4.199-4.196,11.002,0,15.197l72.838,72.833
			c4.193,4.195,10.995,4.195,15.194,0l72.497-72.496C209.358,380.161,209.358,373.355,205.162,369.16z"/>
	</g>
</g>
<g>
	<g id="test-tube_1_">
		<path id="tube_1_" fill="#FFFFFF" d="M418.245,225.603L418.245,225.603c-2.71,0-5.365-0.488-7.912-1.463
			c-10.621-4.064-16.257-15.607-13.331-26.337l-0.108-0.054l0.704-1.842L451.68,55.444c0.813-2.059,0.434-7.045,0.054-9.754
			c-0.108-0.65-0.108-1.246,0.054-1.842l0.054-0.108c0.054-0.108,0.054-0.217,0.108-0.325c0.867-2.276,3.522-3.414,7.858-3.414
			c5.202,0,12.355,1.626,19.725,4.444c6.178,2.384,11.759,5.365,15.715,8.345c4.66,3.522,6.503,6.665,5.473,9.375
			c-0.054,0.108-0.108,0.217-0.163,0.325l-0.054,0.108c-0.271,0.542-0.65,0.975-1.138,1.355c-2.384,2.113-5.907,5.69-6.503,7.316
			l-54.733,142.305l-0.108-0.054C434.177,220.888,426.644,225.603,418.245,225.603z M401.337,196.828l-0.163,0.379
			c-3.468,9.321,1.246,19.78,10.513,23.356c2.113,0.813,4.281,1.192,6.503,1.192c7.533,0,14.144-4.498,16.908-11.488l0.217-0.488
			l53.811-139.92c1.138-3.035,6.503-7.858,7.587-8.833l0.108-0.108c0.108-0.054,0.163-0.108,0.163-0.163l0.054-0.054
			c0.054-0.379-0.434-2.059-4.227-4.986c-3.631-2.764-8.887-5.527-14.74-7.803c-6.828-2.655-13.71-4.227-18.371-4.227
			c-3.089,0-4.118,0.65-4.281,0.975v0.054c0,0.054,0,0.108,0,0.217v0.054c0.108,0.813,1.138,8.02-0.271,11.705L401.337,196.828z"/>
		<path id="liquid_1_" fill="#FFFFFF" d="M470.539,107.847c0,0-7.478,8.616-14.252,11.651c-6.774,3.035-11.814,2.276-17.937,5.853
			s-9.212,8.562-9.212,8.562l-24.874,64.704c-2.71,7.316,1.301,15.824,8.725,18.696c7.424,2.872,15.769-0.921,18.642-8.183l0,0
			L470.539,107.847z M445.503,145.184c1.192-0.542,2.601,0,3.089,1.192c0.542,1.192,0,2.601-1.192,3.089
			c-1.192,0.542-2.601,0-3.089-1.192C443.769,147.081,444.31,145.672,445.503,145.184z M435.532,134.563
			c0.813-0.325,1.734,0,2.059,0.813c0.325,0.813,0,1.734-0.813,2.059c-0.813,0.325-1.734,0-2.059-0.813
			C434.394,135.809,434.773,134.888,435.532,134.563z M424.585,171.141c-1.192,0.542-2.601,0-3.089-1.192
			c-0.542-1.192,0-2.601,1.192-3.089c1.192-0.542,2.601,0,3.089,1.192C426.319,169.245,425.777,170.599,424.585,171.141z
			 M426.753,162.633c-0.975-2.222,0-4.823,2.222-5.853c2.222-0.975,4.823,0,5.853,2.222c0.975,2.222,0,4.823-2.222,5.853
			C430.329,165.831,427.728,164.855,426.753,162.633z M432.388,185.068c0.813-0.325,1.734,0,2.059,0.813
			c0.325,0.813,0,1.734-0.813,2.059c-0.813,0.325-1.734,0-2.059-0.813C431.25,186.369,431.576,185.448,432.388,185.068z"/>
		
			<ellipse id="top_1_" transform="matrix(0.359 -0.9333 0.9333 0.359 254.2684 478.6549)" fill="#FFFFFF" cx="475.602" cy="54.216" rx="3.956" ry="15.012"/>
	</g>
	<path id="jekyll-text" fill="#FFFFFF" d="M146.37,125.784c2.384,1.897,6.72,0.813,9.592-2.384c3.035-3.36,3.522-7.641,1.138-9.538
		s-6.72-0.813-9.592,2.547C144.419,119.769,143.932,123.887,146.37,125.784z M139.325,132.016c-0.65,0-1.734,1.138-0.813,1.572
		c1.301,0.488,1.897,1.572,1.897,3.197c-1.138,6.557-9.267,14.035-12.464,16.582c-0.813,0.813,0.325,2.547,1.138,1.897
		c1.734-1.409,5.419-4.281,8.454-8.129c-4.931,11.001-14.523,25.199-18.208,30.13c-14.361,19.942-36.199,38.259-51.21,38.259
		c-11.976,0-22.164-8.129-24.386-20.105c-0.163-1.301-1.897-1.572-1.572,0.163c2.71,16.42,15.336,22.76,30.618,22.76
		c16.745,0,36.416-12.139,47.2-24.548c17.504-20.105,28.884-43.19,25.849-56.25C144.582,132.666,141.222,131.853,139.325,132.016z
		 M246.948,175.693c4.606-1.138,8.454-3.685,8.454-7.695c0-0.379-0.813-0.379-0.813,0c0,2.384-2.71,4.335-5.744,4.823
		c-7.153,1.138-21.351-7.316-28.071-15.932c7.153,2.71,21.839-1.246,28.721-6.178c6.394-4.606,8.941-9.7,9.429-13.873
		c0.813-6.828-6.72-10.838-17.07-6.828c-6.72,2.71-14.686,8.616-22.977,19.617c8.779-14.523,26.012-38.096,42.919-53.215
		c20.592-18.316,32.514-14.794,14.035,4.606c-7.641,7.966-22.001,18.316-31.918,22.814c-3.035,1.301-1.572,3.035,0.65,2.059
		c10.513-4.606,24.548-14.198,33.002-22.164c25.036-24.061,4.173-42.215-23.627-16.745c-18.804,17.395-31.105,35.549-41.781,59.122
		c-3.685,4.444-6.394,8.129-9.754,11.001c-0.379,0.325-0.704,0.704-0.975,1.03c-9.212,7.912-23.681,18.533-32.677,18.696
		c-6.395,0.163-9.104-4.606-7.966-10.838c1.734-9.7,11.814-21.189,20.43-25.199c11.163-5.094,17.72,4.769,3.035,12.735
		c-5.582,2.872-12.301,4.444-15.011,4.444c-3.197,0-2.872,1.301-0.163,1.409c4.444,0.163,11.651-1.734,16.42-4.01
		c15.011-7.153,15.932-20.538-0.325-21.026c-17.72-0.65-38.909,14.523-38.746,33.49c0.163,8.616,7.045,13.223,16.42,13.223
		c15.661-0.163,29.642-12.085,41.077-22.543c1.626-1.355,3.251-2.872,4.823-4.444c-4.01,10.188-6.069,19.617-5.094,26.608
		c0.65,5.094,3.522,7.478,5.744,9.375c0.488,0.325,1.409,0,0.813-0.975c-3.36-4.01-2.384-15.824,2.222-27.258
		C216.33,169.516,231.287,179.216,246.948,175.693z M228.144,142.475c18.316-16.42,25.524-1.734,13.873,7.153
		c-6.069,4.606-18.045,8.129-21.839,5.907l-0.813-0.488c-0.488-0.813-0.975-1.572-1.301-2.384
		C221.099,148.977,224.621,145.672,228.144,142.475z M329.914,123.887c7.316,0.813,4.281-8.129-3.197-5.907
		c-3.36,0.975-6.557,7.316-8.941,12.897c-7.316,11.001-19.617,25.957-28.233,33.761c-7.641,6.557-14.686,8.291-6.069-4.01
		c3.522-4.931,7.966-10.188,10.513-15.444c6.069-13.223-6.882-19.129-17.233-11.163c-6.069,4.606-14.198,14.198-20.592,19.454
		c-1.734,1.409-1.301,3.522,0.488,2.059c5.094-4.118,14.035-13.548,21.676-19.129c6.394-4.931,8.941-1.734,5.257,2.384
		c-5.094,5.907-14.035,16.095-16.257,22.652c-3.197,9.7,0.65,14.035,6.991,14.035c8.779,0,21.839-13.71,30.618-24.548
		c2.872-3.685,6.069-7.966,8.779-12.085c-7.641,14.794-15.607,29.805-25.524,43.353c-14.035,19.129-31.593,33.49-48.175,33.49
		c-11.976,0-22.327-8.129-24.548-20.105c-0.163-1.301-1.734-1.572-1.572,0.163c2.71,16.42,15.336,22.76,30.618,22.76
		c16.745,0,32.84-9.7,44.165-21.676c22.814-24.061,25.524-51.156,32.514-66.275C324.495,123.887,327.53,123.562,329.914,123.887z
		 M422.634,100.639c3.36-5.744,3.197-10.188-4.606-10.188c-5.907,0.163-16.582,4.281-21.514,8.129
		c-1.138,1.138-0.65,1.734,0.813,1.138c0.975-0.325,2.059-0.975,3.197-1.409c5.582-3.035,3.36,3.36,2.059,5.744
		c-6.72,11.651-18.479,28.071-24.711,36.199c-2.98,4.01-6.34,8.02-9.592,11.38c-6.015,5.69-17.829,15.769-26.77,19.129
		c-29.046,10.838,7.966-38.584,11.001-42.54c6.882-8.616,22.164-23.573,26.77-31.051c3.36-5.744,3.197-10.188-4.606-10.188
		c-5.907,0.163-16.582,4.281-21.514,8.129c-1.138,1.138-0.65,1.734,0.813,1.138c0.975-0.325,2.059-0.975,3.197-1.409
		c5.582-3.035,3.36,3.36,2.059,5.744c-6.72,11.651-18.479,28.071-24.711,36.199c-5.094,6.828-11.326,13.71-16.095,17.504
		c-1.897,1.572-0.813,3.035,1.138,1.734c1.734-1.138,4.281-3.685,7.153-6.72c-5.257,10.513-9.592,25.361,4.281,27.095
		c11.814,1.626,25.903-10.459,34.953-19.4c0.975-0.975,2.113-2.059,3.251-3.251c0.271-0.271,0.542-0.542,0.813-0.813
		c-5.257,10.513-9.538,25.307,4.335,27.041c15.173,2.059,33.978-18.316,41.293-25.795c1.409-1.409,0.975-3.848-1.409-1.409
		c-4.281,4.444-18.804,17.666-29.371,21.676c-29.046,10.838,7.966-38.584,11.001-42.54
		C402.692,123.128,418.028,108.172,422.634,100.639z"/>
</g>
</svg>
