<?xml version="1.0" encoding="utf-8"?>
<!-- Generator: Adobe Illustrator 22.0.1, SVG Export Plug-In . SVG Version: 6.00 Build 0)  -->
<svg version="1.2" baseProfile="tiny" id="Layer_1" xmlns="http://www.w3.org/2000/svg" xmlns:xlink="http://www.w3.org/1999/xlink"
	 x="0px" y="0px" viewBox="0 0 352.739 76.705" xml:space="preserve">
<g>
	<path d="M7.081,23.776l-1.449-4.173H5.604c0.039,0.62,0.058,1.201,0.058,1.743v2.43H4.92v-4.997h1.152l1.388,3.975h0.021
		l1.429-3.975h1.155v4.997H9.278v-2.471c0-0.249,0.006-0.572,0.019-0.971c0.013-0.399,0.023-0.64,0.033-0.725H9.302l-1.5,4.167
		H7.081z"/>
	<path d="M13.66,23.776L13.5,23.25h-0.027c-0.182,0.23-0.366,0.387-0.55,0.47c-0.185,0.083-0.421,0.125-0.711,0.125
		c-0.372,0-0.661-0.1-0.87-0.301c-0.208-0.201-0.312-0.484-0.312-0.851c0-0.39,0.145-0.684,0.434-0.882s0.73-0.307,1.323-0.325
		l0.653-0.021v-0.202c0-0.242-0.056-0.422-0.169-0.542c-0.112-0.12-0.288-0.18-0.524-0.18c-0.194,0-0.379,0.028-0.557,0.085
		s-0.349,0.124-0.513,0.202l-0.26-0.574c0.205-0.107,0.43-0.188,0.673-0.244c0.244-0.056,0.474-0.084,0.69-0.084
		c0.481,0,0.844,0.105,1.089,0.314c0.245,0.209,0.367,0.539,0.367,0.988v2.546H13.66z M12.464,23.229
		c0.292,0,0.526-0.082,0.702-0.244c0.177-0.163,0.265-0.392,0.265-0.686v-0.328l-0.485,0.021c-0.378,0.014-0.653,0.077-0.826,0.189
		c-0.172,0.113-0.258,0.286-0.258,0.518c0,0.168,0.05,0.299,0.15,0.391C12.113,23.183,12.263,23.229,12.464,23.229z"/>
	<path d="M17.895,22.7c0,0.369-0.134,0.652-0.403,0.849c-0.269,0.197-0.654,0.296-1.155,0.296c-0.503,0-0.908-0.076-1.213-0.229
		v-0.694c0.444,0.205,0.858,0.308,1.241,0.308c0.495,0,0.742-0.149,0.742-0.448c0-0.096-0.027-0.175-0.082-0.239
		s-0.145-0.13-0.27-0.198s-0.3-0.146-0.523-0.232c-0.435-0.168-0.729-0.337-0.884-0.506c-0.153-0.168-0.23-0.387-0.23-0.656
		c0-0.324,0.13-0.575,0.392-0.753c0.261-0.179,0.616-0.269,1.064-0.269c0.444,0,0.865,0.09,1.261,0.27l-0.26,0.605
		c-0.408-0.168-0.751-0.253-1.029-0.253c-0.424,0-0.636,0.121-0.636,0.362c0,0.119,0.055,0.219,0.166,0.301
		c0.11,0.082,0.351,0.195,0.723,0.338c0.312,0.121,0.539,0.231,0.68,0.332s0.246,0.216,0.314,0.347
		C17.861,22.361,17.895,22.517,17.895,22.7z"/>
	<path d="M20.171,23.195c0.196,0,0.392-0.031,0.588-0.092v0.605c-0.089,0.039-0.203,0.071-0.344,0.098
		c-0.14,0.026-0.285,0.039-0.436,0.039c-0.761,0-1.142-0.401-1.142-1.203v-2.037h-0.516v-0.355l0.554-0.294l0.273-0.8h0.496v0.841
		h1.077v0.608h-1.077v2.023c0,0.194,0.048,0.337,0.146,0.429C19.887,23.149,20.014,23.195,20.171,23.195z"/>
	<path d="M23.166,23.845c-0.588,0-1.047-0.171-1.379-0.515c-0.331-0.343-0.497-0.815-0.497-1.417c0-0.618,0.154-1.103,0.461-1.456
		s0.73-0.53,1.268-0.53c0.499,0,0.893,0.151,1.183,0.455s0.434,0.72,0.434,1.251v0.434h-2.519c0.011,0.367,0.11,0.649,0.297,0.846
		c0.187,0.197,0.45,0.296,0.79,0.296c0.223,0,0.431-0.021,0.624-0.063c0.192-0.042,0.399-0.112,0.62-0.21v0.653
		c-0.196,0.093-0.394,0.16-0.595,0.198S23.423,23.845,23.166,23.845z M23.019,20.536c-0.255,0-0.46,0.081-0.613,0.243
		c-0.154,0.162-0.246,0.397-0.275,0.708h1.716c-0.004-0.312-0.08-0.549-0.226-0.709C23.474,20.616,23.274,20.536,23.019,20.536z"/>
	<path d="M27.465,19.928c0.162,0,0.295,0.011,0.4,0.034l-0.079,0.749c-0.114-0.027-0.232-0.041-0.355-0.041
		c-0.321,0-0.582,0.105-0.781,0.314c-0.2,0.209-0.299,0.482-0.299,0.817v1.976h-0.803v-3.78h0.629l0.106,0.667h0.041
		c0.125-0.226,0.289-0.404,0.491-0.537C27.016,19.994,27.233,19.928,27.465,19.928z"/>
</g>
<circle fill="#8CC63F" cx="43.793" cy="21.443" r="10"/>
<circle fill="#8CC63F" cx="92.793" cy="21.443" r="10"/>
<circle fill="#8CC63F" cx="142.793" cy="21.443" r="10"/>
<circle fill="#8CC63F" cx="191.793" cy="21.443" r="10"/>
<circle fill="#8CC63F" cx="241.793" cy="21.443" r="10"/>
<circle fill="#8CC63F" cx="291.793" cy="21.443" r="10"/>
<circle fill="#29ABE2" cx="92.793" cy="55.443" r="10"/>
<circle fill="#29ABE2" cx="339.793" cy="55.443" r="10"/>
<line fill="none" stroke="#808080" stroke-width="2" stroke-miterlimit="10" x1="56.793" y1="21.443" x2="79.793" y2="21.443"/>
<line fill="none" stroke="#808080" stroke-width="2" stroke-miterlimit="10" x1="106.793" y1="21.443" x2="129.793" y2="21.443"/>
<line fill="none" stroke="#808080" stroke-width="2" stroke-miterlimit="10" x1="155.793" y1="21.443" x2="178.793" y2="21.443"/>
<line fill="none" stroke="#808080" stroke-width="2" stroke-miterlimit="10" x1="205.793" y1="21.443" x2="228.793" y2="21.443"/>
<line fill="none" stroke="#808080" stroke-width="2" stroke-miterlimit="10" x1="255.793" y1="21.443" x2="278.793" y2="21.443"/>
<line fill="none" stroke="#808080" stroke-width="2" stroke-miterlimit="10" x1="106.793" y1="55.443" x2="324.793" y2="55.443"/>
<g>
	<line fill="none" stroke="#808080" stroke-width="2" stroke-miterlimit="10" x1="52.793" y1="31.443" x2="76.907" y2="48.667"/>
	<g>
		<polygon fill="#808080" points="73.357,49.772 76.103,48.092 76.8,44.95 80.793,51.443 		"/>
	</g>
</g>
<g>
	<line fill="none" stroke="#808080" stroke-width="2" stroke-miterlimit="10" x1="302.793" y1="28.443" x2="326.907" y2="45.667"/>
	<g>
		<polygon fill="#808080" points="323.357,46.772 326.103,45.092 326.8,41.95 330.793,48.443 		"/>
	</g>
</g>
<g>
	<path d="M8.448,54.29c0,0.522-0.171,0.922-0.513,1.2s-0.828,0.417-1.459,0.417h-0.52v1.87H5.139v-4.997h1.439
		c0.625,0,1.092,0.127,1.403,0.383C8.292,53.417,8.448,53.793,8.448,54.29z M5.956,55.22H6.39c0.419,0,0.727-0.073,0.923-0.219
		s0.294-0.374,0.294-0.684c0-0.287-0.088-0.501-0.263-0.643s-0.449-0.212-0.82-0.212H5.956V55.22z"/>
	<path d="M11.278,53.928c0.162,0,0.295,0.011,0.4,0.034l-0.079,0.749c-0.114-0.027-0.232-0.041-0.355-0.041
		c-0.321,0-0.582,0.105-0.781,0.314c-0.2,0.209-0.299,0.482-0.299,0.817v1.976H9.36v-3.78h0.629l0.106,0.667h0.041
		c0.125-0.226,0.289-0.404,0.491-0.537C10.828,53.994,11.045,53.928,11.278,53.928z"/>
	<path d="M15.732,55.879c0,0.618-0.158,1.1-0.475,1.446s-0.758,0.52-1.323,0.52c-0.353,0-0.666-0.08-0.937-0.239
		s-0.479-0.389-0.625-0.687s-0.219-0.645-0.219-1.039c0-0.613,0.157-1.091,0.472-1.436s0.758-0.516,1.33-0.516
		c0.547,0,0.98,0.176,1.299,0.528C15.572,54.807,15.732,55.282,15.732,55.879z M12.98,55.879c0,0.873,0.322,1.309,0.967,1.309
		c0.638,0,0.957-0.437,0.957-1.309c0-0.864-0.321-1.295-0.964-1.295c-0.337,0-0.582,0.112-0.733,0.335
		C13.056,55.142,12.98,55.462,12.98,55.879z"/>
	<path d="M17.929,57.845c-0.472,0-0.84-0.171-1.104-0.513s-0.396-0.821-0.396-1.439c0-0.62,0.134-1.102,0.401-1.448
		c0.268-0.345,0.639-0.518,1.113-0.518c0.497,0,0.875,0.184,1.135,0.55h0.041c-0.039-0.271-0.058-0.485-0.058-0.643v-1.377h0.807
		v5.318h-0.629l-0.14-0.496h-0.038C18.803,57.657,18.426,57.845,17.929,57.845z M18.145,57.195c0.331,0,0.571-0.093,0.721-0.278
		c0.15-0.186,0.228-0.487,0.232-0.904V55.9c0-0.476-0.078-0.814-0.232-1.015s-0.397-0.301-0.728-0.301
		c-0.283,0-0.5,0.114-0.653,0.344c-0.153,0.229-0.229,0.555-0.229,0.979c0,0.419,0.074,0.739,0.222,0.958
		C17.626,57.085,17.848,57.195,18.145,57.195z"/>
	<path d="M23.682,57.776l-0.113-0.496h-0.041c-0.112,0.175-0.271,0.313-0.477,0.414c-0.206,0.1-0.441,0.15-0.706,0.15
		c-0.458,0-0.8-0.114-1.025-0.342s-0.338-0.573-0.338-1.036v-2.471h0.81v2.331c0,0.29,0.059,0.506,0.178,0.651
		c0.119,0.145,0.304,0.217,0.557,0.217c0.337,0,0.585-0.101,0.743-0.303c0.159-0.201,0.238-0.539,0.238-1.013v-1.883h0.807v3.78
		H23.682z"/>
	<path d="M26.983,57.845c-0.572,0-1.007-0.167-1.304-0.501c-0.298-0.333-0.446-0.812-0.446-1.437c0-0.636,0.155-1.125,0.467-1.466
		c0.311-0.342,0.76-0.513,1.348-0.513c0.399,0,0.758,0.074,1.077,0.222l-0.243,0.646c-0.339-0.132-0.62-0.198-0.841-0.198
		c-0.654,0-0.981,0.434-0.981,1.302c0,0.424,0.082,0.742,0.244,0.956c0.163,0.213,0.402,0.319,0.716,0.319
		c0.358,0,0.696-0.089,1.015-0.267v0.701c-0.144,0.084-0.297,0.145-0.46,0.181C27.414,57.827,27.216,57.845,26.983,57.845z"/>
	<path d="M30.333,57.195c0.196,0,0.392-0.031,0.588-0.092v0.605c-0.089,0.039-0.203,0.071-0.344,0.098
		c-0.14,0.026-0.285,0.039-0.436,0.039c-0.761,0-1.142-0.401-1.142-1.203v-2.037h-0.516v-0.355l0.554-0.294l0.273-0.8h0.496v0.841
		h1.077v0.608h-1.077v2.023c0,0.194,0.048,0.337,0.146,0.429C30.049,57.149,30.176,57.195,30.333,57.195z"/>
	<path d="M31.628,52.995c0-0.144,0.039-0.254,0.118-0.332c0.078-0.078,0.19-0.116,0.336-0.116c0.141,0,0.251,0.039,0.33,0.116
		c0.079,0.078,0.118,0.188,0.118,0.332c0,0.137-0.039,0.245-0.118,0.323c-0.078,0.079-0.188,0.118-0.33,0.118
		c-0.146,0-0.258-0.039-0.336-0.118C31.668,53.239,31.628,53.131,31.628,52.995z M32.48,57.776h-0.803v-3.78h0.803V57.776z"/>
	<path d="M36.981,55.879c0,0.618-0.158,1.1-0.475,1.446s-0.758,0.52-1.323,0.52c-0.353,0-0.666-0.08-0.937-0.239
		s-0.479-0.389-0.625-0.687s-0.219-0.645-0.219-1.039c0-0.613,0.157-1.091,0.472-1.436s0.758-0.516,1.33-0.516
		c0.547,0,0.98,0.176,1.299,0.528C36.821,54.807,36.981,55.282,36.981,55.879z M34.23,55.879c0,0.873,0.322,1.309,0.967,1.309
		c0.638,0,0.957-0.437,0.957-1.309c0-0.864-0.321-1.295-0.964-1.295c-0.337,0-0.582,0.112-0.733,0.335
		C34.305,55.142,34.23,55.462,34.23,55.879z"/>
	<path d="M41.23,57.776h-0.807v-2.324c0-0.292-0.059-0.509-0.176-0.653c-0.117-0.144-0.303-0.215-0.559-0.215
		c-0.339,0-0.588,0.1-0.745,0.301s-0.236,0.537-0.236,1.008v1.883h-0.803v-3.78h0.629l0.113,0.496h0.041
		c0.114-0.18,0.276-0.319,0.485-0.417s0.442-0.147,0.697-0.147c0.907,0,1.36,0.461,1.36,1.384V57.776z"/>
</g>
<g>
</g>
<g>
</g>
<g>
</g>
<g>
</g>
<g>
</g>
<g>
</g>
<g>
</g>
<g>
</g>
<g>
</g>
<g>
</g>
<g>
</g>
<g>
</g>
<g>
</g>
<g>
</g>
<g>
</g>
<g>
</g>
</svg>
