<?xml version="1.0" standalone="no"?>
<!DOCTYPE svg PUBLIC "-//W3C//DTD SVG 1.1//EN" "http://www.w3.org/Graphics/SVG/1.1/DTD/svg11.dtd" >
<svg xmlns="http://www.w3.org/2000/svg">
<metadata></metadata>
<defs>
<font id="haufemerriweathersansbold" horiz-adv-x="1049" >
<font-face units-per-em="2048" ascent="1638" descent="-410" />
<missing-glyph horiz-adv-x="676" />
<glyph unicode="&#x9;" horiz-adv-x="0" />
<glyph unicode="&#xa;" horiz-adv-x="0" />
<glyph horiz-adv-x="0" />
<glyph horiz-adv-x="0" />
<glyph horiz-adv-x="0" />
<glyph horiz-adv-x="0" />
<glyph horiz-adv-x="0" />
<glyph horiz-adv-x="0" />
<glyph horiz-adv-x="0" />
<glyph unicode=" "  horiz-adv-x="676" />
<glyph unicode="&#x09;" horiz-adv-x="676" />
<glyph unicode="&#xa0;" horiz-adv-x="676" />
<glyph unicode="!" horiz-adv-x="662" d="M139 1780h388l-39 -1198h-301zM127 178q0 43 16.5 82t45 69t67.5 47.5t84 17.5t81 -15t61 -42t39 -63.5t14 -78.5q0 -44 -16 -83t-44.5 -69t-67 -47.5t-83.5 -17.5q-44 0 -80 15t-62 42t-40.5 63.5t-14.5 79.5z" />
<glyph unicode="&#x22;" horiz-adv-x="1280" d="M212 1710h319l-41 -766h-237zM748 1710h319l-41 -766h-237z" />
<glyph unicode="#" horiz-adv-x="1699" d="M395 310h-180v239h203l28 293h-190v229h212l29 302h287l-30 -302h273l28 302h284l-29 -302h195v-229h-217l-28 -293h201v-239h-224l-30 -310h-279l28 310h-276l-30 -310h-284zM978 549l27 293h-273l-28 -293h274z" />
<glyph unicode="$" horiz-adv-x="1392" d="M258 359q25 -15 68.5 -32t96.5 -31.5t112 -24t114 -9.5q54 0 97.5 8t74 25t47 44t16.5 67q0 42 -21.5 73t-64 59t-104.5 57t-143 67q-76 35 -140.5 79.5t-111 101.5t-72.5 127t-26 156q0 87 30.5 157t86 121t134.5 83t175 44l9 232h202l-8 -228q68 -4 122 -13.5t95 -20.5 t70 -23t47 -22l-59 -272q-20 18 -56 34t-80.5 28.5t-94.5 20t-99 7.5q-46 0 -87.5 -8t-73 -24.5t-50.5 -40.5t-19 -57q0 -38 16 -69t50 -58.5t87 -55t127 -59.5q95 -38 172.5 -82.5t133 -99.5t85.5 -123t30 -155q0 -95 -30 -174t-89 -137.5t-146.5 -95.5t-203.5 -47l-7 -218 h-204l8 218q-66 5 -125 15.5t-107 23t-82.5 26t-52.5 25.5z" />
<glyph unicode="%" horiz-adv-x="2227" d="M1262 1530h273l-568 -1530h-271zM477 590q-107 -1 -184 35t-126.5 99t-73.5 148t-24 182q0 113 36.5 200t97.5 146.5t141 90.5t168 32q108 1 185.5 -35t127 -99t73 -148t23.5 -182q0 -113 -36.5 -200t-98 -146.5t-141.5 -90.5t-168 -32zM492 816q78 0 119 62.5t41 173.5 q0 56 -10.5 101.5t-30.5 78t-49 50.5t-66 18q-78 0 -116 -63t-38 -174q0 -55 9.5 -100.5t28.5 -78t47 -50.5t65 -18zM1312 470q0 113 36.5 200t98 146.5t141.5 90.5t168 32q108 1 185.5 -35t127 -99t72.5 -148t23 -182q0 -113 -36.5 -200t-97.5 -146.5t-141 -90.5t-168 -32 q-107 -1 -184 35t-127 99t-74 148t-24 182zM1586 479q0 -56 9.5 -101.5t28.5 -77.5t47 -50t65 -18q78 0 119 62.5t41 173.5q0 55 -10.5 101t-30.5 78.5t-49 50.5t-66 18q-78 0 -116 -63t-38 -174z" />
<glyph unicode="&#x26;" horiz-adv-x="1534" d="M76 412q0 72 22 129.5t62.5 103.5t97 82t124.5 66q-60 86 -99 178.5t-39 185.5q0 92 32 164.5t91.5 122.5t143.5 76t189 26q100 0 182 -28.5t140 -78t89.5 -117t31.5 -145.5q0 -92 -27.5 -159.5t-73.5 -118.5t-105.5 -88t-123.5 -67q25 -36 58.5 -81t71 -92t76.5 -93.5 t75 -84.5q29 44 41.5 98t12.5 99q0 70 -8 108t-11 59h280q2 -10 5 -24t5.5 -34t4.5 -47t2 -63q0 -122 -32 -207.5t-87 -147.5q39 -18 84 -28t101 -11v-196q-26 -6 -64 -10.5t-86 -4.5q-76 0 -142 18.5t-123 47.5q-69 -29 -151 -47.5t-175 -18.5q-162 0 -288 28t-212 82.5 t-130.5 134t-44.5 183.5zM690 903q77 48 120.5 115.5t43.5 155.5q0 25 -7 51.5t-24 49t-46 37t-72 14.5q-71 0 -112.5 -43t-41.5 -115q0 -36 8 -65t25 -59t43.5 -63.5t62.5 -77.5zM400 425q0 -44 17.5 -84t56.5 -70t100.5 -48t149.5 -18q40 0 72.5 5t61.5 15q-45 47 -91 98 t-89.5 103t-84 102t-73.5 94q-57 -39 -88.5 -88t-31.5 -109z" />
<glyph unicode="'" horiz-adv-x="742" d="M212 1710h319l-41 -766h-237z" />
<glyph unicode="(" horiz-adv-x="852" d="M547 -346q-29 20 -75 59.5t-97.5 101t-104 146.5t-94 196.5t-68 250t-26.5 307.5q0 152 26.5 282.5t68.5 239.5t94.5 195.5t104 151t97 106.5t74.5 61l181 -118q-26 -23 -61.5 -63t-73.5 -98t-75 -134t-66.5 -170t-48.5 -207.5t-21 -245.5q-3 -184 28.5 -334.5t82 -268 t113 -202.5t122.5 -138l-181 -118v0z" />
<glyph unicode=")" horiz-adv-x="852" d="M302.033 1767.98q28.998 -19.998 74.9961 -59.4961q45.9971 -39.4971 97.4932 -100.994q51.4971 -61.4961 103.994 -146.49q52.4971 -84.9951 93.9941 -196.488t67.9961 -249.985q26.498 -138.491 26.498 -307.48q0 -151.991 -26.498 -282.483 q-26.499 -130.492 -68.4961 -239.485t-94.4941 -195.487q-52.4971 -86.4951 -103.994 -150.991q-51.4961 -64.4961 -96.9932 -106.493q-45.498 -41.998 -74.4961 -60.9971l-180.988 117.993q25.998 22.999 61.4961 62.9961q35.4971 39.998 73.4951 97.9941t74.9951 133.992 q36.998 75.9951 66.4961 169.989t48.4971 207.487t20.999 245.485q3 183.988 -28.498 334.479q-31.498 150.49 -81.9951 267.983t-112.993 202.487q-62.4961 84.9951 -122.492 137.992l180.988 117.992v0z" />
<glyph unicode="*" horiz-adv-x="1376" d="M135 993l294 135l145 38l-147 35l-298 128l122 237l274 -190l107 -109q0 1 -6.5 23t-14.5 49t-15 49.5t-7 24.5l-43 320h268l-30 -315l-39 -150l7.5 8.5t19 21t24.5 27.5t24.5 27.5t19.5 21t9 9.5l266 194l126 -238l-291 -130l-149 -41l150 -35l296 -122l-134 -247 l-255 190l-112 109l43 -145l39 -322h-265l31 320l39 148l-104 -116l-262 -194z" />
<glyph unicode="+" horiz-adv-x="1395" d="M566 448l6 204l-161 -6h-226v258h226l161 -6l-6 203v198h262v-198l-6 -203l155 6h233v-258h-233l-155 6l6 -204v-195h-262v195z" />
<glyph unicode="," horiz-adv-x="662" d="M145 181l243 135q43 -17 74 -55t51 -86t29.5 -99.5t9.5 -95.5q0 -84 -21 -163t-56.5 -145t-83 -114t-100.5 -69l-129 102v27q16 11 31 35t27 58.5t19 80t7 100.5q0 31 -9 62.5t-23 57.5t-32.5 43.5t-36.5 22.5v103z" />
<glyph unicode="-" horiz-adv-x="1352" d="M251 898h850v-261h-850v261z" />
<glyph unicode="." horiz-adv-x="662" d="M127 178q0 43 16.5 82t45.5 69t67.5 47.5t83.5 17.5t81 -15t61 -42t39 -63.5t14 -78.5q0 -44 -16 -83t-44.5 -69t-67 -47.5t-83.5 -17.5q-43 0 -79 15t-62 42t-40.5 63.5t-15.5 79.5z" />
<glyph unicode="/" horiz-adv-x="856" d="M566 1599h281l-557 -1962h-281z" />
<glyph unicode="0" horiz-adv-x="1445" d="M713 -16q-110 0 -198 30.5t-155 85t-114.5 129.5t-77 164t-43 189t-12.5 204q2 172 49 311t130 236.5t197 150t249 52.5q111 0 199 -28.5t154.5 -79.5t112.5 -122t75 -156.5t42 -182t12 -199.5q-2 -179 -47.5 -324t-127 -247t-195 -157.5t-250.5 -55.5zM721 221 q121 0 187.5 132.5t66.5 406.5q0 123 -15.5 222.5t-47 170t-78.5 108.5t-109 38q-122 0 -190 -127t-68 -377q0 -125 16.5 -230t48.5 -181.5t79.5 -119.5t109.5 -43z" />
<glyph unicode="1" horiz-adv-x="977" d="M349 1149q-58 -14 -109 -24t-107 -18l-31 215q32 8 72.5 22t83 32t86 39t82 42.5t70.5 42t52 38.5h2l171 -30l-2 -1508h-370v1149z" />
<glyph unicode="2" horiz-adv-x="1285" d="M67 156q61 36 135 88.5t149 118.5t145 142.5t124.5 160t87.5 171.5t33 177q0 115 -57 179t-157 64q-48 0 -96.5 -10.5t-93 -27.5t-81.5 -40t-63 -48l-118 200q31 32 83.5 68t122.5 66.5t154 50.5t177 20q141 0 238 -40t157 -107.5t86.5 -155t26.5 -181.5 q0 -116 -44 -223.5t-122 -207.5t-185 -192t-233 -176l637 42v-295h-1057z" />
<glyph unicode="3" horiz-adv-x="1208" d="M102 257q22 -5 49 -10.5t59.5 -10t72 -7.5t88.5 -3q87 0 157.5 20.5t120 56.5t76.5 85.5t27 106.5q0 40 -14 73.5t-44.5 56.5t-79 34.5t-117.5 7.5l-130 -24l-53 197q69 11 116 28t88 36q81 37 126.5 92.5t47.5 113.5q1 40 -12 71.5t-37.5 53t-59.5 33t-78 11.5 q-50 0 -97 -9t-89.5 -23.5t-79.5 -33.5t-67 -39l-108 206q25 24 81 51t128 50t153 38.5t157 15.5q97 0 180 -22.5t144 -67.5t95.5 -112.5t34.5 -156.5q0 -129 -64.5 -219t-177.5 -155q84 -14 147 -44.5t104 -72.5t61.5 -93t20.5 -106q0 -111 -50.5 -203t-140.5 -158 t-213 -103t-267 -37q-41 0 -89.5 3.5t-96.5 9.5t-92 13.5t-76 15.5z" />
<glyph unicode="4" horiz-adv-x="1393" d="M49 369l554 1172h311l62 -81l-504 -869l-74 -107h391l41 408h293v-408h211v-245h-211v-239h-334v239h-659z" />
<glyph unicode="5" horiz-adv-x="1264" d="M159 224q35 -2 66 -2h63q124 0 218.5 23t158.5 65t97 99t33 124q0 108 -64 163.5t-197 55.5q-35 0 -73 -4.5t-76 -12.5t-73.5 -18.5t-66.5 -21.5l-89 53l58 774h877l-9 -271l-624 -1l-38 -325q23 10 57.5 20.5t75 19.5t84.5 15t86 6q102 0 182.5 -26.5t136.5 -79.5 t86 -133t30 -186q0 -122 -56 -229.5t-161 -188t-255.5 -127t-339.5 -45.5q-17 0 -40 1t-48.5 3t-51.5 4.5t-48 6.5z" />
<glyph unicode="6" horiz-adv-x="1397" d="M114 597q0 138 36 259.5t98.5 223.5t148 183.5t184.5 140t208 92.5t218 42l58 -211q-100 -16 -186.5 -54.5t-157 -95t-123.5 -129t-85 -156.5q26 20 60 39.5t77 35t94.5 25t111.5 9.5q100 0 181 -34t138 -95.5t88 -147t31 -188.5q0 -110 -37 -209.5t-112 -176 t-188.5 -121.5t-266.5 -45q-123 0 -228.5 44.5t-183 125.5t-121 194t-43.5 249zM710 222q55 0 99.5 25t76 65.5t48.5 91.5t17 104q0 72 -17 121t-46 80t-68 44.5t-83 13.5q-60 0 -104 -7.5t-76 -18t-53 -22t-35 -20.5q-1 -12 -1.5 -23.5t-0.5 -23.5q-2 -98 9.5 -177 t40 -135.5t76 -87t117.5 -30.5z" />
<glyph unicode="7" horiz-adv-x="1232" d="M251 0q17 36 47 100t67 146t80 176t86.5 191t85.5 191.5t78 176.5t63 146t41 101h-722l1 294h1031l67 -90l-506 -1432h-419v0z" />
<glyph unicode="8" horiz-adv-x="1361" d="M112 391q0 54 15.5 105t50 97t90.5 86t136 72q-51 31 -96 69t-78 85t-52.5 105t-19.5 130q0 84 35.5 156.5t103.5 126.5t166 84.5t223 30.5q126 0 222.5 -28t162.5 -77t99.5 -116t33.5 -145q0 -56 -15 -106.5t-47.5 -95.5t-84 -83.5t-124.5 -68.5q66 -34 127.5 -73 t108.5 -86.5t75 -106t29 -132.5q1 -105 -42 -186t-120 -136.5t-182 -84.5t-228 -29q-136 0 -245 26t-185.5 77.5t-117.5 127.5t-41 176zM758 904q78 43 117.5 111t40.5 145q2 78 -52.5 124.5t-159.5 46.5q-56 0 -97 -13t-68 -35t-40.5 -50.5t-13.5 -58.5q0 -46 21.5 -83.5 t58.5 -70t87 -60.5t106 -56zM412 423q0 -45 19 -84.5t54.5 -69t85 -46t110.5 -16.5q52 0 95.5 12t74.5 34.5t48 55t17 74.5q0 49 -28.5 86.5t-75.5 70t-108.5 61t-127.5 59.5q-35 -18 -65 -41.5t-52 -52.5t-34.5 -64.5t-12.5 -78.5z" />
<glyph unicode="9" horiz-adv-x="1409" d="M324 184q96 14 179 50t151.5 89t121.5 119.5t89 141.5q-49 -31 -124.5 -52t-189.5 -21q-98 0 -179.5 36t-140 100.5t-91 152.5t-32.5 192q0 116 38.5 215.5t114 173t188.5 115.5t262 42q125 0 230.5 -45t181.5 -126t118.5 -194t42.5 -249q0 -139 -36 -261t-99 -225 t-148.5 -185.5t-185 -141.5t-208.5 -94t-219 -42zM672 750q58 0 99.5 6.5t71.5 18t50.5 26t36.5 30.5q1 10 1.5 19t0.5 19q1 101 -11 180.5t-40.5 135t-75.5 84.5t-116 29q-51 0 -95 -21t-76.5 -55.5t-50.5 -80t-18 -93.5q0 -144 56 -221t167 -77z" />
<glyph unicode=":" horiz-adv-x="662" d="M127 178q0 43 16.5 82t45.5 69t67.5 47.5t83.5 17.5t81 -15t61 -42t39 -63.5t14 -78.5q0 -44 -16 -83t-44.5 -69t-67 -47.5t-83.5 -17.5q-43 0 -79 15t-62 42t-40.5 63.5t-15.5 79.5zM127 920q0 43 16.5 82t45.5 69t67.5 47.5t83.5 17.5t81 -15t61 -42t39 -63.5t14 -78.5 q0 -44 -16 -83t-44.5 -69t-67 -47.5t-83.5 -17.5q-43 0 -79 15t-62 42t-40.5 63.5t-15.5 79.5z" />
<glyph unicode=";" horiz-adv-x="662" d="M145 181l243 135q43 -17 74 -55t51 -86t29.5 -99.5t9.5 -95.5q0 -84 -21 -163t-56.5 -145t-83 -114t-100.5 -69l-129 102v27q16 11 31 35t27 58.5t19 80t7 100.5q0 31 -9 62.5t-23 57.5t-32.5 43.5t-36.5 22.5v103zM127 920q0 43 16.5 82t45.5 69t67.5 47.5t83.5 17.5 t81 -15t61 -42t39 -63.5t14 -78.5q0 -44 -16 -83t-44.5 -69t-67 -47.5t-83.5 -17.5q-43 0 -79 15t-62 42t-40.5 63.5t-15.5 79.5z" />
<glyph unicode="&#x3c;" horiz-adv-x="1370" d="M203 853l947 497v-312l-536 -265l536 -234v-322l-947 482v154z" />
<glyph unicode="=" horiz-adv-x="1422" d="M249 1151h924v-243h-924v243zM249 643h924v-244h-924v244z" />
<glyph unicode="&#x3e;" horiz-adv-x="1370" d="M1165.01 853l-946.942 497v-312l535.967 -265l-535.967 -234v-322l946.942 482v154z" />
<glyph unicode="?" horiz-adv-x="1061" d="M338 541q-13 20 -26.5 45t-25 55.5t-18.5 67t-8 80.5q-1 69 24 121t63.5 94t84 77t85.5 70.5t68 75.5t32 91q10 59 -1.5 107.5t-46.5 83t-94 53.5t-143 19q-35 0 -70 -5t-66.5 -13t-57.5 -17.5t-43 -17.5v251q18 12 55.5 23.5t84 20.5t96.5 14.5t94 5.5q144 0 255 -33 t184 -95.5t107 -151.5t24 -200q-6 -94 -39 -156t-80 -106t-100 -77t-98.5 -70t-76 -84.5t-32.5 -119.5q-3 -47 10.5 -99t29.5 -110h-271zM288 176q0 43 16 81.5t44.5 68t67.5 47t83 17.5q45 0 80.5 -15t60.5 -41.5t38.5 -62.5t13.5 -78q0 -43 -16 -82t-44 -68.5t-66.5 -47 t-82.5 -17.5q-43 0 -78.5 15t-61.5 41.5t-40.5 63t-14.5 78.5z" />
<glyph unicode="@" horiz-adv-x="2247" d="M151 417q0 169 40 318t113 274t174 224.5t224 168t263 105t290 36.5q177 0 328.5 -49t262.5 -142.5t174 -231t63 -314.5q0 -138 -24.5 -251.5t-68 -204t-102 -157t-126 -111t-141 -66t-146.5 -21.5q-48 0 -84.5 9.5t-62 31t-40.5 57.5t-18 90q-2 16 -1.5 35.5t2.5 43.5 q-31 -54 -68 -102t-81.5 -85t-96.5 -58.5t-112 -21.5q-58 0 -113.5 27.5t-99 83.5t-69.5 139.5t-23 196.5q1 68 17.5 141.5t48.5 143.5t81 133t116 110.5t152.5 75t190.5 27.5q28 0 59 -4t61 -11t57.5 -17.5t48.5 -22.5l197 31q-12 -54 -28 -132.5t-33 -165t-35 -172.5 t-33 -155q-23 -112 -14.5 -172t47.5 -60q54 0 112.5 39t106.5 114t79 184.5t31 249.5q0 112 -25.5 198.5t-70 151t-105 108.5t-130 71.5t-145 39.5t-149.5 12q-116 0 -226 -28.5t-207.5 -84t-179 -136.5t-140.5 -185.5t-92 -232t-33 -275.5q0 -133 27.5 -236t76 -181 t115 -131.5t144 -86.5t162.5 -48t172 -15q91 0 163.5 11t129 27.5t98.5 36t74 37.5l45 -156q-33 -24 -81 -48.5t-113.5 -45t-149 -33t-186.5 -12.5q-121 0 -234 23t-212 69.5t-181.5 118.5t-141.5 169.5t-91.5 222t-32.5 277.5zM881 462q-1 -48 5.5 -88.5t19.5 -69 t32.5 -44.5t43.5 -16q33 0 69 26t71.5 69.5t68.5 100.5t60 120t45.5 128t25.5 124q-21 26 -60.5 40t-83.5 14q-62 0 -116 -33.5t-93.5 -89.5t-63 -129t-24.5 -152z" />
<glyph unicode="A" horiz-adv-x="1472" d="M522 1529h432l522 -1529h-380l-89 296h-549l-86 -296h-376zM932 550l-148 497l-53 207l-54 -207l-145 -497h400z" />
<glyph unicode="B" horiz-adv-x="1445" d="M171 1523l175 -1q39 0 79 2.5t83.5 5t92.5 5t107 2.5q157 0 265.5 -26t176 -75t97.5 -120.5t30 -162.5q0 -55 -12.5 -109t-40 -100.5t-71 -82t-105.5 -53.5q67 -6 125 -35t101.5 -75.5t68.5 -108t25 -131.5q0 -105 -30 -191.5t-103 -149t-194 -97t-304 -34.5 q-52 0 -107 1.5t-106 3.5t-95.5 4.5t-75.5 4.5h-182v1523zM533 895q18 -3 39 -4.5t43.5 -1.5h44h40.5q48 0 90 12t72.5 39t48 69.5t17.5 103.5q0 104 -68 148.5t-198 44.5q-10 0 -29 -0.5t-39 -2t-37 -4t-24 -6.5v-398zM533 242q10 -6 30.5 -10t46 -6.5t53 -3.5t51.5 -1 q140 0 209.5 54.5t69.5 179.5q0 52 -16.5 92t-52 67t-90.5 41t-133 14h-41.5t-47 -0.5t-45 -2t-34.5 -4.5v-420z" />
<glyph unicode="C" horiz-adv-x="1317" d="M78 757q0 195 61 341.5t166.5 244t246.5 146.5t300 49q79 0 139 -7t105.5 -17t79.5 -20t61 -17l-46 -312q-10 8 -33.5 22t-61 27.5t-90 23t-121.5 9.5q-96 0 -175.5 -31t-136.5 -90.5t-88.5 -146.5t-31.5 -200q0 -117 26.5 -212t80.5 -162t135.5 -103t191.5 -36 q50 0 101 8.5t95.5 22.5t79.5 31.5t54 35.5v-300q-28 -12 -64.5 -26t-82 -26t-101 -20t-122.5 -8q-187 0 -330.5 54t-241 154t-147.5 243t-50 322z" />
<glyph unicode="D" horiz-adv-x="1530" d="M171 1522h118q19 0 50 1t69.5 3t81.5 4t84.5 4t80 3t67.5 1q190 0 329 -49.5t229.5 -144t134 -232t43.5 -312.5q0 -195 -49.5 -347t-146 -257t-238.5 -159.5t-326 -52.5q-50 0 -104.5 2.5t-110.5 5.5t-111 5.5t-106 2.5h-95v1522zM536 259q29 -8 80.5 -11.5t105.5 -2.5 q82 1 149 32t114.5 95.5t73.5 162.5t26 232q0 142 -24 240t-71.5 159.5t-119.5 89t-168 27.5q-21 0 -44 -0.5t-45.5 -2t-42 -4t-34.5 -5.5v-1012z" />
<glyph unicode="E" horiz-adv-x="1262" d="M171 1522h952v-269h-594v-343h450v-261h-450v-376h656v-273h-1014v1522z" />
<glyph unicode="F" horiz-adv-x="1146" d="M171 1522h939v-269h-579v-391h450v-266h-450v-596h-360v1522z" />
<glyph unicode="G" horiz-adv-x="1489" d="M80 753q0 210 60.5 358.5t165.5 243.5t246.5 139t303.5 44q82 0 145.5 -6.5t115 -16t94 -20t83.5 -18.5l-10 -303q-57 31 -161 56.5t-253 25.5q-99 0 -177.5 -32.5t-132.5 -94t-83 -150t-29 -199.5q0 -116 25 -213t73 -167.5t117.5 -109.5t158.5 -39q74 0 133.5 9 t93.5 29v282l-229 18v252h557v-754q-32 -1 -61.5 -9t-62.5 -19.5t-72 -24.5t-89.5 -24t-116.5 -18.5t-153 -7.5q-167 0 -303.5 52.5t-234 151.5t-151 242t-53.5 323z" />
<glyph unicode="H" horiz-adv-x="1624" d="M171 1522h367v-627h548v627h367v-1522h-367v637h-548v-637h-367v1522z" />
<glyph unicode="I" horiz-adv-x="733" d="M183 1522h368v-1522h-368v1522z" />
<glyph unicode="J" horiz-adv-x="765" d="M-57 -154q36 15 72 34t68 47t58 66.5t43 91.5q13 40 19.5 87.5t9.5 109t3 141v185.5v914h368v-909q0 -75 1.5 -145t0.5 -135.5t-5 -125.5t-15 -114q-14 -73 -48 -133t-80 -108t-100.5 -83t-110 -58t-108.5 -33.5t-96 -9.5l-80 178v0z" />
<glyph unicode="K" horiz-adv-x="1448" d="M171 1522h361v-668l481 668h400l-502 -667q30 -43 65.5 -97.5t75 -116t81.5 -128.5t83.5 -135.5t82 -136t77.5 -130.5l65 -111h-413q-12 21 -25.5 48t-39.5 75q-66 127 -139 245t-146 233l-146 -180v-421h-361v1522z" />
<glyph unicode="L" horiz-adv-x="1108" d="M171 1522h374v-1247h509v-275h-883v1522z" />
<glyph unicode="M" horiz-adv-x="2039" d="M269 1522h481l214 -804l66 -357l61 358l195 803h465l199 -1522h-349l-76 864l-22 402l-84 -419l-242 -854h-314l-254 854l-93 418l-20 -401l-65 -864h-339z" />
<glyph unicode="N" horiz-adv-x="1610" d="M170 1522h341l536 -860l105 -216l-37 344v732h324v-1522h-359l-512 843l-114 229l41 -355v-717h-325v1522z" />
<glyph unicode="O" horiz-adv-x="1597" d="M93 770q4 201 60 345.5t153 237.5t229.5 137.5t288.5 47.5q160 3 287.5 -49t215.5 -152t133.5 -245.5t42.5 -329.5q-4 -201 -57 -347t-146.5 -240.5t-222 -141t-283.5 -49.5q-167 -3 -299 50.5t-222.5 156.5t-136.5 249.5t-43 329.5zM801 250q76 0 137 30t104 93.5 t66 162.5t23 238q0 108 -19.5 198.5t-58.5 155.5t-98 101.5t-138 36.5q-72 0 -136 -26.5t-112 -86.5t-76 -157t-28 -238q0 -109 21 -202t63 -161t105 -106.5t147 -38.5z" />
<glyph unicode="P" horiz-adv-x="1369" d="M171 1522h172q81 0 175.5 8t207.5 8q138 0 247 -27.5t185 -90t116.5 -163t40.5 -247.5q0 -269 -158 -410.5t-463 -141.5q-62 0 -97 1t-60 2v-461h-366v1522zM537 718q35 -4 70.5 -6t87.5 -2q58 0 107 16t84.5 51.5t55 92t19.5 138.5q0 66 -16 119t-50 89.5t-85.5 55.5 t-123.5 18q-37 -1 -76 -4t-73 -9v-559z" />
<glyph unicode="Q" horiz-adv-x="1597" d="M707 -13q-147 11 -263 71t-195 161t-119 240.5t-37 310.5q4 201 60 345.5t153 237.5t229.5 137.5t288.5 47.5q160 3 287.5 -49t215.5 -152t133.5 -245.5t42.5 -329.5q-3 -166 -40 -294t-102.5 -221t-157.5 -151.5t-204 -86.5q25 -29 61.5 -49.5t80.5 -33t94 -18t102 -5.5 q21 0 48 2.5t53.5 6.5t50 9.5t37.5 10.5v-245q-15 -7 -38.5 -14t-52 -12.5t-61.5 -9t-66 -3.5q-114 0 -205 18t-163.5 58t-129.5 104.5t-103 158.5zM801 250q76 0 137 30t104 93.5t66 162.5t23 238q0 108 -19.5 198.5t-58.5 155.5t-98 101.5t-138 36.5q-72 0 -136 -26.5 t-112 -86.5t-76 -157t-28 -238q0 -109 21 -202t63 -161t105 -106.5t147 -38.5z" />
<glyph unicode="R" horiz-adv-x="1457" d="M171 1522h103q43 0 96 2.5t113.5 5.5t127 5.5t135.5 2.5q68 0 136.5 -10t131 -32.5t116 -59t93 -89.5t62 -124t22.5 -163q0 -83 -17.5 -150t-49.5 -120t-77.5 -92.5t-100.5 -65.5q48 -34 85.5 -94t71.5 -132t67.5 -149t72.5 -146l62 -111h-402q-6 7 -11.5 15.5 t-11.5 20.5t-13.5 29.5t-18.5 42.5q-20 45 -38 94.5t-36 97t-37.5 91.5t-41 79t-47 58.5t-55.5 30.5q-33 -2 -75.5 -3t-99.5 -1v-555h-363v1522zM534 802q15 -2 39.5 -3.5t51.5 -2.5t53.5 -1.5t44.5 -0.5q108 1 169.5 66t61.5 193q0 54 -14 97.5t-45 74t-80 47t-118 16.5 q-43 0 -85.5 -4t-77.5 -14v-468z" />
<glyph unicode="S" horiz-adv-x="1207" d="M163 359q25 -15 68.5 -32t96.5 -31.5t112 -24t114 -9.5q54 0 97.5 8t74 25t47 44t16.5 67q0 42 -21.5 73t-64 59t-104.5 57t-143 67q-76 35 -140.5 79.5t-111 101.5t-72.5 127t-26 156q0 99 39 175.5t110 129t169.5 80t218.5 27.5q90 0 160 -8.5t122 -21t87.5 -27 t56.5 -25.5l-59 -272q-20 18 -56 34t-80.5 28.5t-94.5 20t-99 7.5q-46 0 -87.5 -8t-73 -24.5t-50.5 -40.5t-19 -57q0 -38 16 -69t50 -58.5t87 -55t127 -59.5q95 -38 172.5 -82.5t133 -99.5t85.5 -123t30 -155q0 -104 -35.5 -188.5t-106 -144.5t-175.5 -92.5t-244 -32.5 q-85 0 -162 9.5t-140 23.5t-108.5 30.5t-67.5 30.5z" />
<glyph unicode="T" horiz-adv-x="1280" d="M456 1240h-414v282h1195v-282h-414v-1240h-367v1240z" />
<glyph unicode="U" horiz-adv-x="1528" d="M142 1522h363l-3 -824q-1 -126 16 -209t51 -132.5t84.5 -69.5t118.5 -20q63 0 111 20t81 69t49.5 132.5t16.5 209.5v824h360v-898q0 -147 -33.5 -265.5t-106.5 -202t-188.5 -128t-279.5 -44.5q-173 0 -295 44.5t-199.5 127.5t-113.5 201.5t-35 265.5z" />
<glyph unicode="V" horiz-adv-x="1408" d="M-2 1522h387l260 -829l67 -274l69 274l242 829h387l-543 -1528h-320z" />
<glyph unicode="W" horiz-adv-x="1987" d="M-11 1522h367l171 -873l44 -322l48 322l223 873h317l222 -873l55 -309l41 308l175 874h346l-400 -1529h-347l-221 837l-42 254l-39 -254l-215 -837h-344z" />
<glyph unicode="X" horiz-adv-x="1378" d="M468 777l-446 745l404 1l206 -375l72 -138l72 138l195 374h382l-446 -765l462 -757h-405l-212 389l-73 150l-71 -150l-205 -389h-389z" />
<glyph unicode="Y" horiz-adv-x="1321" d="M472 562l-493 960h395l229 -483l72 -189l59 189l225 483h383l-495 -961v-561h-375v562z" />
<glyph unicode="Z" horiz-adv-x="1297" d="M46 84l640 1065l71 100h-638v273h1075l46 -81l-628 -1064l-75 -105h658v-272h-1104z" />
<glyph unicode="[" horiz-adv-x="837" d="M139 1486q0 74 10.5 125t35 83t64 46t96.5 14q108 0 193.5 -8t148.5 -16v-171h-244v-1581h244v-173q-63 -9 -148.5 -19.5t-193.5 -10.5q-58 0 -97.5 18.5t-63.5 55.5t-34.5 92.5t-10.5 129.5v1415z" />
<glyph unicode="\" horiz-adv-x="856" d="M287.034 1599h-280.982l556.966 -1962h280.983z" />
<glyph unicode="]" horiz-adv-x="837" d="M695.009 1486q0 74 -10.5 125q-10.499 51 -34.9971 83q-24.499 32 -63.9961 46q-39.498 14 -96.4941 14q-107.994 0 -193.488 -8q-85.4951 -8 -148.491 -16v-171h243.985v-1581h-243.985v-173q62.9961 -9 148.491 -19.5q85.4941 -10.5 193.488 -10.5 q57.9961 0 97.4932 18.5q39.498 18.5 63.4971 55.5q23.998 37 34.4971 92.5q10.5 55.5 10.5 129.5v1415z" />
<glyph unicode="^" horiz-adv-x="1392" d="M578 1531h237l432 -1041h-313l-238 604l-232 -604h-318z" />
<glyph unicode="_" horiz-adv-x="1694" d="M1733 -247v-164h-1772v164h1772z" />
<glyph unicode="`" horiz-adv-x="683" d="M479 1228q-23 12 -58 37.5t-75 60t-82 75t-80 83t-69 83.5t-48 76l230 178q33 -49 77.5 -111t91 -124.5t92 -118.5t81.5 -93l-160 -146v0z" />
<glyph unicode="a" horiz-adv-x="1242" d="M78 323q0 51 15.5 97t43.5 84.5t68 69t90 51.5q55 22 114.5 36.5t118.5 22.5t116 11t108 3v87q0 40 -11.5 66t-36 40.5t-64 20t-95.5 5.5q-41 0 -90 -6.5t-97 -17.5t-92 -26t-75 -32l-70 200q27 17 79 38t119.5 39.5t145.5 31t157 12.5q129 0 220.5 -23t149 -72.5 t84.5 -127.5t27 -189v-760h-212q-29 0 -50.5 2.5t-36.5 12.5t-22.5 31t-7.5 58v8q-24 -21 -57 -41t-74.5 -36t-92 -25.5t-110.5 -9.5q-81 0 -147.5 24t-114.5 68.5t-74 107t-26 139.5zM430 357q0 -41 12.5 -71t33.5 -49.5t50 -29t62 -9.5q26 0 52 5t48.5 12.5t39 16 t24.5 16.5v288q-28 -1 -59 -3.5t-61 -7.5t-57.5 -12t-47.5 -16t-37.5 -21t-30.5 -28.5t-21 -38.5t-8 -52z" />
<glyph unicode="b" horiz-adv-x="1355" d="M156 1662h353v-418l-8 -204q21 19 50 39.5t68.5 37.5t89.5 28t113 11q91 0 173 -33t143.5 -100.5t97.5 -169.5t36 -241q0 -144 -41.5 -260.5t-119.5 -199t-188.5 -127t-248.5 -44.5q-86 0 -173.5 9.5t-160.5 23t-123 27.5t-61 23v1598zM509 253q19 -16 60.5 -24.5 t101.5 -8.5q50 0 92.5 24t74 71t49.5 115.5t19 158.5q0 82 -14.5 139.5t-41.5 93.5t-65 52.5t-86 16.5q-32 0 -61 -7t-53.5 -17t-44 -21.5t-31.5 -19.5v-573z" />
<glyph unicode="c" horiz-adv-x="1030" d="M83 561q0 124 34.5 233t105 189t179 126.5t257.5 46.5q59 0 111 -5.5t93 -13.5t69.5 -18.5t41.5 -19.5l-42 -263q-31 21 -89.5 38.5t-146.5 17.5q-47 0 -91.5 -16t-80.5 -52.5t-58.5 -95.5t-23.5 -146q-2 -94 18.5 -158.5t57.5 -104.5t86 -57.5t104 -17.5q75 0 136.5 14 t100.5 33l45 -192q-22 -23 -60.5 -44t-86.5 -37t-103.5 -25t-110.5 -9q-139 0 -242 43.5t-170.5 121t-100.5 183t-33 229.5z" />
<glyph unicode="d" horiz-adv-x="1355" d="M533 -16q-91 0 -173 33t-143.5 100.5t-97.5 169.5t-36 241q0 144 41 260t117 198t182.5 126t237.5 44q60 0 107 -7.5t81 -17.5l-3 113v419h353v-1679h-261q-34 0 -49.5 17.5t-15.5 48.5v65q-20 -20 -49.5 -42.5t-70.5 -42.5t-95.5 -33t-124.5 -13zM656 244q28 0 56 6 t53 15t46 20t35 22v568q-42 39 -162 39q-52 0 -95 -23.5t-73.5 -70t-48 -115.5t-17.5 -160q-1 -155 52.5 -228t153.5 -73z" />
<glyph unicode="e" horiz-adv-x="1206" d="M83 575q0 124 38 230.5t110.5 184.5t178 122t240.5 44q91 0 176 -22t151 -75t106 -142t42 -223q0 -62 -3.5 -114.5t-8.5 -89.5h-681q6 -74 29 -124.5t61.5 -81t91 -43.5t117.5 -13q45 0 91 5.5t87.5 14t75 19t53.5 21.5l55 -183q-29 -23 -74 -44.5t-102.5 -38.5 t-125.5 -27.5t-142 -10.5q-137 0 -242.5 40.5t-177.5 116.5t-109 185.5t-37 248.5zM798 667q3 62 -3 112t-24 85.5t-49.5 55t-79.5 19.5q-42 0 -76.5 -14t-60.5 -45.5t-44 -84t-25 -128.5h362z" />
<glyph unicode="f" horiz-adv-x="872" d="M222 908h-146v203l146 29v115q0 123 40 205.5t103.5 132t142.5 70.5t157 21q88 0 134.5 -9.5t66.5 -14.5v-246q-21 10 -57.5 17.5t-91.5 7.5q-63 0 -101.5 -43t-38.5 -143v-113h247v-232h-247v-908h-355v908z" />
<glyph unicode="g" horiz-adv-x="1348" d="M67 -165q0 75 41 138.5t122 101.5q-47 27 -69 70t-22 99q0 28 10 58t30.5 60t52.5 58t77 51q-102 44 -156 122t-54 191q0 90 34.5 159t101 116t163 71t220.5 24q114 0 205 -20t158 -58q31 25 83.5 46.5t117.5 21.5h126v-245h-178q8 -26 12 -53t4 -56q0 -84 -30.5 -153 t-95 -117.5t-163.5 -75.5t-237 -27q-35 0 -68.5 1.5t-64.5 6.5q-22 -19 -31 -41.5t-9 -42.5q0 -23 7 -39t23.5 -26.5t45 -15.5t70.5 -5h248q127 0 213 -26t138 -71t74.5 -106t22.5 -131q0 -111 -55 -193.5t-145.5 -136.5t-207 -80.5t-238.5 -26.5q-152 0 -261 25t-179 71 t-103 110.5t-33 144.5zM623 594q42 0 74.5 9.5t54.5 32t33.5 59.5t11.5 93q0 196 -177 196q-41 0 -74 -9t-57 -31.5t-36.5 -60t-12.5 -94.5q0 -43 10 -79t32 -61.5t57 -40t84 -14.5zM422 -118q0 -42 9.5 -79t35.5 -65.5t73.5 -45t122.5 -16.5q55 0 105 10t88.5 30.5t61 53 t22.5 77.5q0 33 -9 63.5t-32.5 54t-64.5 37t-105 13.5h-265q-17 -26 -29.5 -60t-12.5 -73z" />
<glyph unicode="h" horiz-adv-x="1367" d="M161 1663h353v-441l-14 -199q30 24 69.5 47.5t87 42.5t102.5 31t115 13q92 1 157 -27t106.5 -84.5t60.5 -140.5t19 -194v-711h-354v682q0 63 -10 104t-29.5 64.5t-49.5 32t-70 7.5q-18 -1 -42 -5.5t-49.5 -13.5t-51 -23t-47.5 -35v-813h-353v1663z" />
<glyph unicode="i" horiz-adv-x="681" d="M163 1139h355v-1139h-355v1139zM342 1285q-43 0 -79.5 13.5t-63 38t-41.5 58.5t-15 75t17.5 77.5t47.5 63.5t69 42.5t82 15.5q45 0 81 -13.5t61.5 -37.5t39.5 -57.5t14 -74.5t-17 -77.5t-46 -64t-68 -43.5t-82 -16z" />
<glyph unicode="j" horiz-adv-x="662" d="M163 1139h355v-1077q0 -165 -29 -275t-83 -175t-132 -92t-175 -27q-29 0 -58.5 2t-55 5t-46 7t-31.5 9v229q6 -4 20.5 -8t31.5 -7t34.5 -5t30.5 -2q38 0 64.5 14t43 44.5t23.5 79.5t7 120v1158zM340 1285q-43 0 -79.5 13.5t-63 38t-41.5 58.5t-15 75t17.5 77.5t47.5 63.5 t69 42.5t82 15.5q45 0 81 -13.5t61.5 -37.5t39.5 -57.5t14 -74.5t-17 -77.5t-46 -64t-68 -43.5t-82 -16z" />
<glyph unicode="k" horiz-adv-x="1276" d="M157 1662h353v-707l-10 -247l353 432h408l-415 -442l442 -698h-387l-282 457l-111 -118l2 -155v-184h-353v1662z" />
<glyph unicode="l" horiz-adv-x="684" d="M165 1663h355v-1663h-355v1663z" />
<glyph unicode="m" horiz-adv-x="2041" d="M161 1139h322l8 -121q30 25 71 49t90.5 43.5t105 32t114.5 13.5q102 2 171 -28t109 -104q26 20 65 43.5t88.5 43t108.5 32.5t125 13q86 1 151.5 -20.5t110 -72.5t67.5 -135.5t23 -209.5v-718h-353v682q0 59 -7.5 99.5t-25.5 65t-47.5 34.5t-73.5 9q-26 -1 -51 -8t-48 -18 t-44 -24.5t-38 -26.5q3 -39 3 -83v-730h-350v681q0 59 -7.5 99.5t-25 65t-47 35t-73.5 9.5q-22 -1 -47 -6.5t-50 -15.5t-49 -24t-43 -30v-814h-353v1139z" />
<glyph unicode="n" horiz-adv-x="1362" d="M161 1139h322l8 -121q34 28 78.5 53.5t95 44t104 30t106.5 11.5q87 1 150.5 -22t105 -75t61.5 -136.5t20 -206.5v-717h-352v681q0 59 -7.5 100t-26 65.5t-48.5 35t-75 8.5q-23 0 -48 -6t-49.5 -16t-48.5 -24t-43 -30v-814h-353v1139z" />
<glyph unicode="o" horiz-adv-x="1305" d="M83 593q2 137 46 242t120.5 176.5t182 108t231.5 36.5q155 0 262 -49t173.5 -132.5t95.5 -194t27 -233.5q-2 -137 -45.5 -242.5t-120 -176.5t-182 -107.5t-231.5 -36.5q-155 0 -262.5 49t-174 132.5t-95.5 194t-27 233.5zM650 225q57 0 96 20t63.5 62t35.5 106t11 150 q0 76 -10 140t-33.5 110.5t-61.5 73t-95 26.5q-58 0 -97.5 -20.5t-63.5 -62t-34.5 -103.5t-10.5 -144q0 -77 10 -142.5t33.5 -113.5t62 -75t94.5 -27z" />
<glyph unicode="p" horiz-adv-x="1359" d="M509 -139v-367h-353v1646h332v-113q19 19 48.5 42t70 42t94 32t122.5 13q91 0 173 -33t144.5 -100.5t99 -169.5t36.5 -241q0 -144 -41.5 -260t-118 -198t-183.5 -126t-238 -44q-61 0 -108.5 7.5t-80.5 17.5zM510 261q20 -19 60.5 -30t101.5 -11q52 0 94.5 23.5t73.5 70 t48 115.5t18 160q1 156 -52.5 229t-153.5 73q-29 0 -57 -6t-53 -16t-46 -21.5t-34 -21.5l-1 5v-574z" />
<glyph unicode="q" horiz-adv-x="1357" d="M83 528q0 144 41.5 260t118 198t183.5 126t238 44q86 0 156 -14.5t125 -37.5l256 36v-1646h-353v367l5 235q-21 -19 -50 -38.5t-68 -36t-88.5 -27t-110.5 -10.5q-91 0 -173 33t-144.5 100.5t-99 169.5t-36.5 241zM659 244q28 0 56 6t53 15.5t45.5 20.5t34.5 22v566 q-20 19 -60.5 29.5t-100.5 10.5q-52 0 -95 -23.5t-73.5 -70t-48 -115.5t-17.5 -160q-2 -155 52 -228t154 -73z" />
<glyph unicode="r" horiz-adv-x="938" d="M157 1139h303l17 -180q16 43 47 79.5t73 62.5t93 40.5t108 14.5q27 0 53.5 -3.5t37.5 -9.5v-349q-14 8 -42.5 17t-79.5 9q-53 0 -94 -10.5t-72 -26.5t-53.5 -35t-37.5 -37v-711h-353v1139z" />
<glyph unicode="s" horiz-adv-x="1069" d="M142 310q13 -10 45.5 -27t78.5 -33.5t101 -29t112 -12.5q91 0 131.5 25.5t40.5 73.5q0 27 -18.5 47.5t-51 38.5t-76.5 35t-95 36q-75 27 -133 61.5t-97.5 79.5t-60 102t-20.5 129q0 81 38 141t101 99.5t146 59.5t174 20q69 0 128 -7t106.5 -17t82 -22.5t54.5 -22.5 l-34 -236q-14 11 -42 26t-65.5 28t-81 22t-88.5 9q-97 0 -137 -24t-41 -63q-1 -27 12 -47.5t41.5 -39.5t74 -37t110.5 -39q63 -21 120.5 -51t101.5 -72t70 -97.5t26 -127.5q0 -85 -34 -151.5t-96 -112t-149.5 -69t-194.5 -23.5q-73 0 -138.5 9t-120 23t-95.5 30t-64 31z" />
<glyph unicode="t" horiz-adv-x="906" d="M189 908h-135v185q37 11 68 21t55.5 22.5t42.5 29t29 40.5q18 37 38.5 91t40.5 103h214v-260h296v-232h-296v-438q0 -75 5 -118.5t19 -66t39.5 -28.5t66.5 -6q19 0 43.5 3.5t48.5 9.5t45 13.5t34 15.5l46 -196q-21 -20 -62.5 -40t-93.5 -36.5t-110.5 -26.5t-115.5 -10 q-164 0 -241 85.5t-77 262.5v576z" />
<glyph unicode="u" horiz-adv-x="1346" d="M143 1140h354v-687q0 -68 9.5 -110t28.5 -66t48.5 -32.5t69.5 -8.5q27 0 54.5 5t51.5 13t43 17.5t30 18.5l-1 850h354v-1156h-239q-20 0 -35.5 2.5t-25.5 10t-15 21.5t-5 37v35q-32 -23 -75 -42.5t-90 -33.5t-94.5 -22t-88.5 -8q-120 0 -193.5 37t-113.5 101.5t-53.5 153 t-13.5 192.5v672z" />
<glyph unicode="v" horiz-adv-x="1176" d="M-12 1140h378l159 -511l77 -296l69 296l147 511h370l-425 -1156h-334z" />
<glyph unicode="w" horiz-adv-x="1741" d="M-8 1140h340l126 -483l64 -280l69 280l136 483h316l133 -483l68 -280l63 280l118 483h323l-356 -1156h-311l-170 603l-39 197l-41 -197l-162 -603h-318z" />
<glyph unicode="x" horiz-adv-x="1210" d="M403 575l-401 565h400l167 -263l45 -74l39 74l163 263h392l-404 -558l412 -582h-404l-181 288l-30 50l-25 -50l-170 -288h-405z" />
<glyph unicode="y" horiz-adv-x="1186" d="M128 -224q8 -3 22.5 -6t31.5 -6t34.5 -5t31.5 -2q36 0 76.5 10t78.5 36.5t69.5 74t49.5 122.5h-115l-406 1140h367l195 -667l60 -237l54 237l157 667h366l-374 -1169q-32 -101 -70.5 -175.5t-82 -127t-91.5 -86.5t-100 -55q-40 -17 -91 -25.5t-105 -8.5q-11 0 -35.5 1.5 t-50 4.5t-47 6t-25.5 6v265v0z" />
<glyph unicode="z" horiz-adv-x="1092" d="M46 83l468 719l61 94h-462v244h895l35 -96l-462 -696l-66 -96h503v-252h-930z" />
<glyph unicode="{" horiz-adv-x="1026" d="M330 533q0 30 -26 56.5t-65 46.5t-84 32.5t-83 16.5v184q38 4 83 15t84 29.5t65 43.5t26 56v473q0 74 14.5 125.5t43 83.5t71.5 46.5t101 14.5q41 0 83.5 -2t83.5 -5.5t79.5 -8t70.5 -8.5v-172h-243v-550q0 -35 -10 -61.5t-27 -46.5q-16 -20 -40.5 -38t-53.5 -34 t-60.5 -29.5t-61.5 -24.5q29 -11 60 -24t60 -28.5t53.5 -33t41.5 -36.5q38 -43 38 -108v-567h243v-162q-32 -9 -70.5 -15.5t-79.5 -11t-83.5 -6.5t-83.5 -2q-116 0 -173 65t-57 213v473z" />
<glyph unicode="|" horiz-adv-x="857" d="M289 1780h279v-1966h-279v1966z" />
<glyph unicode="}" horiz-adv-x="1026" d="M695.021 533q0 30 25.998 56.5t64.9961 46.5q38.9971 20 83.9951 32.5q44.9971 12.5 82.9941 16.5v184q-37.9971 4 -82.9941 15q-44.998 11 -83.9951 29.5q-38.998 18.5 -64.9961 43.5t-25.998 56v473q0 74 -14.499 125.5q-14.5 51.5 -42.998 83.5t-71.4951 46.5 q-42.998 14.5 -100.994 14.5q-40.9971 0 -83.4951 -2q-42.4971 -2 -83.4951 -5.5q-40.9971 -3.5 -79.4951 -8q-38.4971 -4.5 -70.4951 -8.5v-172h242.985v-550q0 -35 9.99902 -61.5t26.998 -46.5q15.999 -20 40.498 -38q24.498 -18 53.4961 -34q28.999 -16 60.4971 -29.5 t61.4961 -24.5q-28.998 -11 -59.9961 -24t-59.9971 -28.5q-28.998 -15.5 -53.4961 -33q-24.499 -17.5 -41.498 -36.5q-37.9971 -43 -37.9971 -108v-567h-242.985v-162q31.998 -9 70.4951 -15.5q38.498 -6.5 79.4951 -11q40.998 -4.5 83.4951 -6.5q42.498 -2 83.4951 -2 q115.993 0 172.989 65q56.9971 65 56.9971 213v473z" />
<glyph unicode="~" horiz-adv-x="1440" d="M187 804q9 27 37.5 68t73.5 78.5t105 64.5t132 27q51 0 91 -12t72.5 -30t60.5 -38.5t55 -38.5t55.5 -30t63.5 -12q37 0 66.5 10t53 25.5t42 34.5t35.5 37l125 -154q-9 -31 -37 -69.5t-71.5 -73t-101.5 -58t-128 -23.5q-51 0 -89.5 12t-69.5 30t-57.5 39t-53 39t-56.5 30 t-68 12q-37 0 -65.5 -10t-51.5 -25.5t-41.5 -34.5t-35.5 -37z" />
<glyph horiz-adv-x="0" />
<glyph unicode="&#xa2;" horiz-adv-x="1203" d="M558 -5q-107 19 -186 69t-131 124t-77.5 169t-25.5 204q0 110 27 208t82 175.5t139.5 130t199.5 71.5l6 231h181l-5 -223q99 -5 168.5 -21.5t92.5 -33.5l-42 -263q-31 21 -89.5 38.5t-146.5 17.5q-47 0 -91.5 -16t-80.5 -52.5t-58.5 -95.5t-23.5 -146q-2 -94 18.5 -158.5 t57.5 -104.5t86 -57.5t104 -17.5q75 0 136.5 14t100.5 33l45 -192q-20 -21 -52 -39.5t-72.5 -33t-87 -25t-94.5 -14.5l-4 -203h-182l5 211v0z" />
<glyph unicode="&#xa3;" horiz-adv-x="1613" d="M113 112q0 42 22.5 75.5t60 57.5t84.5 38.5t97 17.5q10 11 16 35t9.5 55t4.5 66.5t1 69.5v168h-177v198h177v144q0 111 39 203.5t112.5 158.5t179 102.5t239.5 36.5q78 0 138.5 -10t106.5 -26t79 -34.5t56 -35.5l-144 -257q-15 15 -39 30t-54 27t-66.5 20t-77.5 8 q-52 0 -92.5 -11t-68.5 -41.5t-42 -83.5t-14 -137v-94h303v-198h-303v-41q0 -64 -2.5 -122.5t-10.5 -108t-24 -88.5t-43 -63q36 -8 69.5 -19t68 -20.5t72.5 -16t84 -6.5q58 0 99.5 12t68.5 33t40 50t13 63q0 24 -8 46.5t-19.5 41t-24.5 31t-23 17.5l258 116q15 -9 41 -32 t50.5 -58t42.5 -82.5t18 -105.5q0 -80 -28 -146t-85.5 -113t-146.5 -73t-212 -26q-111 0 -200.5 16t-160.5 35t-124.5 35t-93.5 16q-15 -14 -39 -30.5t-53 -30t-60.5 -22.5t-61.5 -9q-25 0 -52 6t-49 20t-36.5 36.5t-14.5 55.5z" />
<glyph unicode="&#xa4;" horiz-adv-x="1566" d="M410 514q-38 55 -58.5 120.5t-20.5 138.5t20.5 138.5t58.5 120.5l-191 196l146 157l203 -210q50 26 105 41t115 15t116 -15t106 -43l220 222l148 -158l-209 -209q36 -55 56.5 -119t20.5 -136q0 -73 -21 -138t-58 -120l193 -197l-146 -156l-206 209q-50 -26 -105 -40.5 t-115 -14.5t-115 14.5t-104 40.5l-204 -207l-147 154zM578 774q0 -44 16 -83.5t44.5 -68.5t67.5 -46t84 -17t83.5 17t66 46t43 68.5t15.5 83.5q0 43 -15.5 82t-43 67.5t-66 45.5t-83.5 17t-84 -16.5t-67.5 -45.5t-44.5 -67.5t-16 -82.5z" />
<glyph unicode="&#xa5;" horiz-adv-x="1561" d="M249 449h365v190h-365v194h311l-439 689h389l213 -389l74 -171l74 171l209 389h378l-440 -689h279v-194h-349v-190h349v-194h-349v-255h-334v255h-365v194z" />
<glyph unicode="&#xa6;" horiz-adv-x="857" d="M289 1780h279v-809h-279v809zM289 609h279v-795h-279v795z" />
<glyph unicode="&#xa7;" horiz-adv-x="1385" d="M292 157q19 -15 52.5 -32.5t78.5 -32.5t101 -25t119 -10q40 0 77 6.5t65.5 20t45.5 34t17 50.5q0 34 -29 59.5t-76.5 48t-108.5 44.5t-124.5 48t-124.5 59.5t-108.5 78t-76.5 103.5t-29 137q0 50 13.5 95t38 85t58.5 75.5t76 65.5q-60 49 -97 113t-37 152q0 90 39 155 t105 106t152.5 60.5t180.5 19.5q73 0 133.5 -6.5t108 -17t83 -23.5t58.5 -26l-53 -257q-16 12 -42 27t-63 28t-86 22t-111 9q-37 0 -71.5 -5.5t-61 -18t-42.5 -32.5t-16 -49q0 -35 29 -63.5t77 -54t108.5 -50.5t124.5 -54t124.5 -65t108.5 -83t77 -107.5t29 -138.5 q0 -94 -39.5 -169.5t-105.5 -137.5q42 -42 67 -94.5t25 -122.5q0 -101 -41.5 -172.5t-110 -117t-157 -66.5t-182.5 -21q-72 0 -140 8.5t-125 22t-100.5 30t-67.5 32.5zM455 826q0 -63 42 -106.5t107.5 -77.5t145 -64t155.5 -67q15 32 24.5 63.5t9.5 57.5q0 64 -38.5 110.5 t-100 84.5t-137.5 71.5t-150 71.5q-23 -34 -40.5 -71.5t-17.5 -72.5z" />
<glyph unicode="&#xa8;" horiz-adv-x="1010" d="M757 1292q-40 0 -73.5 13.5t-58 37.5t-38.5 57.5t-14 74.5q0 40 16.5 76t44.5 62.5t64.5 42t76.5 15.5q41 0 74.5 -13t57 -37t36 -57.5t12.5 -73.5q0 -41 -16 -77t-43 -63t-63 -42.5t-76 -15.5zM237 1292q-39 0 -72.5 13.5t-58 37.5t-38.5 57.5t-14 74.5q0 40 16.5 76 t44.5 62.5t64.5 42t76.5 15.5q41 0 74.5 -13t57 -37t36 -57.5t12.5 -73.5q0 -41 -16 -77t-43 -63t-63 -42.5t-77 -15.5z" />
<glyph unicode="&#xa9;" horiz-adv-x="2105" d="M1052 244q-121 0 -233 31.5t-208.5 88.5t-175.5 137t-135.5 177.5t-87 210t-30.5 234.5q0 121 30.5 233t87 209.5t135.5 177t175.5 136t208 87.5t233.5 31q121 0 233 -31t209 -87.5t176 -136t135 -177t87 -209.5t31 -233q0 -122 -31 -234.5t-87 -210t-135 -177.5 t-176 -137t-209 -88.5t-233 -31.5zM1052 373q105 0 199.5 27t175.5 75.5t146 117t111 152t71 179t25 199.5q0 103 -25 198.5t-71 179t-111 151.5t-146 117t-175.5 75.5t-199.5 26.5t-199.5 -26.5t-175.5 -75.5t-146 -117t-111 -151.5t-71 -179t-25 -198.5q0 -104 25 -199.5 t71 -179t111 -152t146 -117t175.5 -75.5t199.5 -27zM1056 631q-104 0 -187.5 40.5t-142 108t-90.5 155.5t-32 183q0 106 31.5 197t93.5 158.5t155 106t216 38.5q45 0 84 -6.5t71.5 -16t56.5 -20.5t38 -19l-28 -186q-36 24 -94 40t-125 16q-60 0 -108 -22t-81.5 -60.5 t-51.5 -90.5t-18 -111q0 -80 18 -138t51 -96.5t78.5 -57t98.5 -18.5q85 0 145.5 19.5t88.5 40.5l41 -162q-22 -20 -54.5 -38t-72.5 -31.5t-86 -21.5t-96 -8z" />
<glyph unicode="&#xaa;" horiz-adv-x="1069" d="M418 667q-69 0 -125.5 18.5t-97 54t-62.5 86.5t-22 116q0 49 15 90t41.5 73.5t62.5 57t78 40.5q75 28 169 42t188 14v51q0 34 -9 56t-29 35t-52 17.5t-78 4.5q-35 0 -80 -7.5t-88.5 -18.5t-80 -24t-52.5 -25l-58 168q14 13 57.5 32t101.5 36.5t124 29.5t126 12 q102 0 178 -16.5t126.5 -54t75.5 -97.5t25 -148v-638h-156q-29 0 -51 0.5t-37.5 7t-23.5 22t-8 45.5v14q-13 -14 -38 -30.5t-59 -30.5t-75 -23.5t-86 -9.5zM520 855q28 0 52 4.5t42 11t31 13.5t19 12l1 -2v222q-61 0 -111 -6.5t-91 -28.5q-39 -22 -54 -53t-15 -64 q0 -23 9.5 -43t26.5 -34.5t40 -23t50 -8.5z" />
<glyph unicode="&#xab;" horiz-adv-x="2013" d="M219 752l662 418l83 -244l-405 -311l405 -310l-83 -245l-662 417v275zM1026 752l662 418l83 -244l-405 -311l405 -310l-83 -245l-662 417v275z" />
<glyph unicode="&#xac;" horiz-adv-x="1472" d="M241 852h990v-563h-264v323h-726v240z" />
<glyph unicode="&#xad;" horiz-adv-x="1352" d="M251 898h850v-261h-850v261z" />
<glyph unicode="&#xae;" horiz-adv-x="2105" d="M1052 244q-121 0 -233 31t-209 88t-176.5 137t-135.5 177.5t-87 210t-31 234.5q0 121 31 233.5t87 209.5t135.5 176.5t176.5 136.5t208.5 88t233.5 31q121 0 233 -31t209 -88t176.5 -136.5t136 -176.5t87.5 -209.5t31 -233.5q0 -122 -31 -234.5t-87.5 -210t-136 -177.5 t-176.5 -137t-209 -88t-233 -31zM1052 374q104 0 198.5 26.5t176 75.5t147 117t112 151t71.5 178.5t25 199.5q0 103 -25 198.5t-71.5 179t-112 151.5t-147 117t-176 75.5t-198.5 26.5t-198.5 -26.5t-176 -75.5t-147 -117t-112 -151.5t-71.5 -179t-25 -198.5 q0 -104 25 -199.5t71.5 -178.5t112 -151t147 -117t176 -75.5t198.5 -26.5zM709 1610h95q32 0 61.5 1t60.5 2.5t65.5 3t77.5 1.5q95 0 165 -21.5t116.5 -59t69 -88t22.5 -108.5q0 -56 -10.5 -106t-34 -91t-61 -71t-91.5 -45q34 -23 58 -52.5t43.5 -63t36.5 -69t37 -69.5 q7 -13 14.5 -25.5t16.5 -26.5t21 -32t29 -42h-240q-20 23 -32 50t-28 59q-15 32 -31.5 69.5t-36.5 72.5t-45 63t-56 41q-7 0 -20 -0.5t-28.5 -0.5h-31.5h-29v-355h-214v963zM923 1160q11 -2 27.5 -3.5t34.5 -2t35 -0.5h31q85 0 131 38t46 123q0 35 -10 63t-33 47.5t-60.5 29 t-93.5 8.5q-30 -1 -55 -2t-53 -9v-292z" />
<glyph unicode="&#xaf;" horiz-adv-x="711" d="M50 1631h611v-231h-611v231z" />
<glyph unicode="&#xb0;" horiz-adv-x="965" d="M482 911q-79 0 -147.5 28t-118.5 77.5t-79 116.5t-29 145t28.5 145t79 116t118.5 77t148 28q82 0 151 -28t118.5 -77t77.5 -116t28 -145t-28 -145.5t-77.5 -116.5t-118.5 -77t-151 -28zM482 1105q34 0 64.5 12t53 34.5t36 54.5t13.5 72t-13.5 72t-37 54t-53.5 34t-63 12 q-34 0 -64 -12t-52.5 -34t-36 -54t-13.5 -72t13.5 -72t36.5 -54.5t53 -34.5t63 -12z" />
<glyph unicode="&#xb1;" horiz-adv-x="1395" d="M233 232h918v-232h-918v232zM566 448l6 204l-161 -6h-226v258h226l161 -6l-6 203v198h262v-198l-6 -203l155 6h233v-258h-233l-155 6l6 -204v-195h-262v195z" />
<glyph unicode="&#xb2;" d="M76 830q59 34 121.5 79.5t123 98.5t114.5 112t95 119t65 119t24 113q0 39 -11 64.5t-32.5 41.5t-53 22.5t-71.5 6.5q-41 0 -78 -10t-68 -25t-55 -32t-38 -30l-111 126q19 27 60 58.5t97 58.5t123 45t139 18q114 0 189 -27.5t119.5 -72.5t62.5 -103.5t18 -119.5 q0 -96 -41.5 -183.5t-112.5 -166.5t-165 -149t-199 -130l559 54l3 -228h-824z" />
<glyph unicode="&#xb3;" d="M151 917q48 -20 104 -34.5t107 -14.5q64 0 115 7.5t87 26.5t55 49.5t19 77.5q0 64 -47 102t-155 39l-94 -33l-48 170q14 2 33 6.5t39.5 10t40.5 12.5t37 14q71 33 101.5 72.5t30.5 87.5q0 24 -7 44.5t-23.5 35t-45 23t-71.5 8.5q-29 0 -60 -7.5t-60.5 -21t-56.5 -32.5 t-48 -41l-89 161q22 21 65 44.5t97 44t113 33.5t113 13q87 0 154 -21t113 -57t69.5 -84.5t23.5 -104.5q0 -39 -11.5 -80t-40.5 -80t-78 -72.5t-124 -56.5q93 5 155.5 -17t100.5 -60t54 -86t16 -95q0 -70 -33.5 -129t-98 -102.5t-158 -68t-213.5 -24.5q-34 0 -71.5 4 t-75 11.5t-72.5 18t-62 22.5v184z" />
<glyph unicode="&#xb4;" horiz-adv-x="683" d="M28 1397q32 36 76 87.5t90.5 109.5t91.5 117t79 110l229 -178q-16 -33 -45.5 -72t-66.5 -79t-78 -78.5t-80.5 -71t-73.5 -56.5t-57 -35z" />
<glyph unicode="&#xb5;" horiz-adv-x="1389" d="M150 1140h353v-686q0 -116 43.5 -169t131.5 -53q18 0 40.5 3.5t45 10.5t42.5 18t35 25v851h354v-833q0 -23 4 -38t11 -23.5t15.5 -11.5t16.5 -3q10 0 33 5t51 22l31 -171q-5 -8 -26.5 -25.5t-56.5 -35t-83.5 -31t-107.5 -13.5q-36 0 -68 8t-56 25t-39 43t-18 62 q-13 -23 -32.5 -47t-48.5 -43.5t-69.5 -32.5t-94.5 -13q-75 0 -127 15.5t-88 55.5l31 -426h-323v1511z" />
<glyph unicode="&#xb6;" horiz-adv-x="1411" d="M486 777q-93 0 -172 27t-137.5 84t-91.5 146t-33 214q0 105 35 190t109 146t188.5 94t273.5 33q60 0 130 -3t145 -6.5t152 -7t151 -3.5v-1691h-268l-1 1496h-216v-1496h-265v777z" />
<glyph unicode="&#xb7;" horiz-adv-x="662" d="M127 733q0 43 16.5 82t45.5 69t67.5 47.5t83.5 17.5t81 -15t61 -42t39 -63.5t14 -78.5q0 -44 -16 -83t-44.5 -69t-67 -47.5t-83.5 -17.5q-43 0 -79 15t-62 42t-40.5 63.5t-15.5 79.5z" />
<glyph unicode="&#xb8;" horiz-adv-x="519" d="M361 34l50 -4q18 -15 30.5 -42.5t20.5 -61.5t11.5 -71.5t3.5 -71.5q-2 -64 -23 -110.5t-56.5 -77t-82.5 -45t-100 -14.5q-23 0 -50 2t-53 6t-47 9t-31 11l22 177q13 -8 32 -11t42 -3q49 0 83 37.5t36 112.5q1 31 -1.5 54t-7.5 41t-12 32t-14 26z" />
<glyph unicode="&#xb9;" d="M129 888h284v642q-25 -6 -60 -13.5t-72.5 -13.5t-74 -11t-66.5 -6l-36 166q48 12 101.5 27.5t106.5 36t104 47t95 60.5h4l177 -15v-920h256v-199h-819v199z" />
<glyph unicode="&#xba;" horiz-adv-x="1067" d="M523 664q-108 0 -193 35.5t-143 100.5t-88 156t-28 203q2 128 46 217.5t112 145.5t152 81.5t165 25.5q105 0 186.5 -36t137 -101.5t84 -155.5t26.5 -198q-2 -127 -42.5 -217t-105 -147t-145.5 -83.5t-164 -26.5zM535 879q71 1 111 61.5t40 195.5q0 64 -10 116t-29.5 88 t-47.5 55t-64 18q-37 -1 -68 -15t-53.5 -44t-35.5 -78t-13 -117q0 -63 11.5 -115t33.5 -89t53.5 -57t71.5 -19z" />
<glyph unicode="&#xbb;" horiz-adv-x="2013" d="M985.014 752l-661.96 418l-82.9951 -244l404.976 -311l-404.976 -310l82.9951 -245l661.96 417v275zM1792.01 752l-661.96 418l-82.9951 -244l404.976 -311l-404.976 -310l82.9951 -245l661.96 417v275z" />
<glyph unicode="&#xbc;" horiz-adv-x="2481" d="M129 742h284v642q-25 -6 -60 -13.5t-72.5 -13.5t-74 -11t-66.5 -6l-36 166q48 12 101.5 27.5t106.5 36t104 47t95 60.5h4l177 -15v-920h256v-199h-819v199zM733 -171l713 1832l195 -17l-712 -1829zM1453 293q8 16 26.5 53.5t44 89t56 114t62.5 129.5t64 134.5t60.5 129.5 t51.5 115t38 90h252l40 -70l-363 -649l-47 -71l280 11l37 253l210 1v-243l164 10v-191h-164v-199h-250v199h-492z" />
<glyph unicode="&#xbd;" horiz-adv-x="2481" d="M129 742h284v642q-25 -6 -60 -13.5t-72.5 -13.5t-74 -11t-66.5 -6l-36 166q48 12 101.5 27.5t106.5 36t104 47t95 60.5h4l177 -15v-920h256v-199h-819v199zM733 -171l713 1832l195 -17l-712 -1829zM1508 141q59 34 121.5 79.5t123 98.5t114.5 112t95 119t65 119t24 113 q0 39 -11 64.5t-32.5 41.5t-53 22.5t-71.5 6.5q-41 0 -78 -10t-68 -25t-55 -32t-38 -30l-111 126q19 27 60 58.5t97 58.5t123 45t139 18q114 0 189 -27.5t119.5 -72.5t62.5 -103.5t18 -119.5q0 -96 -41.5 -183.5t-112.5 -166.5t-165 -149t-199 -130l559 54l3 -228h-824z" />
<glyph unicode="&#xbe;" horiz-adv-x="2481" d="M151 771q48 -20 104 -34.5t107 -14.5q64 0 115 7.5t87 26.5t55 49.5t19 77.5q0 64 -47 102t-155 39l-94 -33l-48 170q14 2 33 6.5t39.5 10t40.5 12.5t37 14q71 33 101.5 72.5t30.5 87.5q0 24 -7 44.5t-23.5 35t-45 23t-71.5 8.5q-29 0 -60 -7.5t-60.5 -21t-56.5 -32.5 t-48 -41l-89 161q22 21 65 44.5t97 44t113 33.5t113 13q87 0 154 -21t113 -57t69.5 -84.5t23.5 -104.5q0 -39 -11.5 -80t-40.5 -80t-78 -72.5t-124 -56.5q93 5 155.5 -17t100.5 -60t54 -86t16 -95q0 -70 -33.5 -129t-98 -102.5t-158 -68t-213.5 -24.5q-34 0 -71.5 4 t-75 11.5t-72.5 18t-62 22.5v184zM733 -171l713 1832l195 -17l-712 -1829zM1453 293q8 16 26.5 53.5t44 89t56 114t62.5 129.5t64 134.5t60.5 129.5t51.5 115t38 90h252l40 -70l-363 -649l-47 -71l280 11l37 253l210 1v-243l164 10v-191h-164v-199h-250v199h-492z" />
<glyph unicode="&#xc0;" horiz-adv-x="1472" d="M522 1529h432l522 -1529h-380l-89 296h-549l-86 -296h-376zM932 550l-148 497l-53 207l-54 -207l-145 -497h400zM719 1544q-21 6 -50 24t-62 43.5t-68 56.5t-67.5 64t-61 66t-47.5 63l249 130q6 -18 25.5 -47t46 -62t57 -68t58 -65t49.5 -53t31 -32l-160 -120v0z" />
<glyph unicode="&#xc1;" horiz-adv-x="1472" d="M522 1529h432l522 -1529h-380l-89 296h-549l-86 -296h-376zM932 550l-148 497l-53 207l-54 -207l-145 -497h400zM595 1664q9 9 31 32t49.5 53t58 65t57 68t46 62t25.5 47l249 -130q-32 -45 -78.5 -96.5t-96.5 -96.5t-98 -79t-82 -45z" />
<glyph unicode="&#xc2;" horiz-adv-x="1472" d="M522 1529h432l522 -1529h-380l-89 296h-549l-86 -296h-376zM932 550l-148 497l-53 207l-54 -207l-145 -497h400zM340 1676l281 303h230l282 -302l-174 -111l-223 192l-223 -192z" />
<glyph unicode="&#xc3;" horiz-adv-x="1472" d="M522 1529h432l522 -1529h-380l-89 296h-549l-86 -296h-376zM932 550l-148 497l-53 207l-54 -207l-145 -497h400zM290 1748q10 40 37.5 79t68 70.5t91 51t106.5 19.5q48 0 82.5 -10t60 -25t44.5 -32.5t37 -32.5t38 -25t47 -10t53.5 9.5t49 24t41.5 31.5t31 32l109 -130 q-9 -39 -36 -78.5t-66.5 -72t-88.5 -53t-102 -20.5q-46 0 -79.5 10.5t-59.5 25.5t-46 33.5t-40 33.5t-41 25.5t-49 10.5q-27 0 -52.5 -9.5t-47 -24.5t-39.5 -32.5t-31 -33.5z" />
<glyph unicode="&#xc4;" horiz-adv-x="1472" d="M522 1529h432l522 -1529h-380l-89 296h-549l-86 -296h-376zM932 550l-148 497l-53 207l-54 -207l-145 -497h400zM999 1592q-40 0 -74 13t-58.5 36.5t-38.5 56.5t-14 72q0 40 16.5 75t44.5 61.5t64.5 41.5t77.5 15q42 0 76 -13t58 -36t37 -55.5t13 -72.5t-16 -75.5 t-43.5 -61.5t-64 -41.5t-78.5 -15.5zM464 1592q-40 0 -74 13t-59 36.5t-39 56.5t-14 72q0 40 16.5 75t44.5 61.5t64.5 41.5t77.5 15q42 0 76 -13t58 -36t37 -55.5t13 -72.5t-16 -75.5t-43.5 -61.5t-64 -41.5t-77.5 -15.5z" />
<glyph unicode="&#xc6;" horiz-adv-x="1951" d="M581 1522h1223v-269h-585v-343h441v-261h-441v-376h647v-273h-1007v299h-446l-124 -299h-394zM859 551v821l-342 -821h342z" />
<glyph unicode="&#xc8;" horiz-adv-x="1262" d="M677 1544q-21 6 -50 24t-62 43.5t-68 56.5t-67.5 64t-61 66t-47.5 63l249 130q6 -18 25.5 -47t46 -62t57 -68t58 -65t49.5 -53t31 -32l-160 -120v0zM171 1522h952v-269h-594v-343h450v-261h-450v-376h656v-273h-1014v1522z" />
<glyph unicode="&#xc9;" horiz-adv-x="1262" d="M553 1664q9 9 31 32t49.5 53t58 65t57 68t46 62t25.5 47l249 -130q-32 -45 -78.5 -96.5t-96.5 -96.5t-98 -79t-82 -45zM171 1522h952v-269h-594v-343h450v-261h-450v-376h656v-273h-1014v1522z" />
<glyph unicode="&#xca;" horiz-adv-x="1262" d="M171 1522h952v-269h-594v-343h450v-261h-450v-376h656v-273h-1014v1522zM297 1676l281 303h230l282 -302l-174 -111l-223 192l-223 -192z" />
<glyph unicode="&#xcb;" horiz-adv-x="1262" d="M957 1592q-40 0 -74 13t-58.5 36.5t-38.5 56.5t-14 72q0 40 16.5 75t44.5 61.5t64.5 41.5t77.5 15q42 0 76 -13t58 -36t37 -55.5t13 -72.5t-16 -75.5t-43.5 -61.5t-64 -41.5t-78.5 -15.5zM422 1592q-40 0 -74 13t-59 36.5t-39 56.5t-14 72q0 40 16.5 75t44.5 61.5 t64.5 41.5t77.5 15q42 0 76 -13t58 -36t37 -55.5t13 -72.5t-16 -75.5t-43.5 -61.5t-64 -41.5t-77.5 -15.5zM171 1522h952v-269h-594v-343h450v-261h-450v-376h656v-273h-1014v1522z" />
<glyph unicode="&#xcc;" horiz-adv-x="733" d="M183 1522h368v-1522h-368v1522zM351 1544q-21 6 -50 24t-62 43.5t-68 56.5t-67.5 64t-61 66t-47.5 63l249 130q6 -18 25.5 -47t46 -62t57 -68t58 -65t49.5 -53t31 -32l-160 -120v0z" />
<glyph unicode="&#xcd;" horiz-adv-x="733" d="M183 1522h368v-1522h-368v1522zM226 1664q9 9 31 32t49.5 53t58 65t57 68t46 62t25.5 47l249 -130q-32 -45 -78.5 -96.5t-96.5 -96.5t-98 -79t-82 -45z" />
<glyph unicode="&#xce;" horiz-adv-x="733" d="M183 1522h368v-1522h-368v1522zM-29 1676l281 303h230l282 -302l-174 -111l-223 192l-223 -192z" />
<glyph unicode="&#xcf;" horiz-adv-x="733" d="M183 1522h368v-1522h-368v1522zM630 1592q-40 0 -74 13t-58.5 36.5t-38.5 56.5t-14 72q0 40 16.5 75t44.5 61.5t64.5 41.5t77.5 15q42 0 76 -13t58 -36t37 -55.5t13 -72.5t-16 -75.5t-43.5 -61.5t-64 -41.5t-78.5 -15.5zM95 1592q-40 0 -74 13t-59 36.5t-39 56.5t-14 72 q0 40 16.5 75t44.5 61.5t64.5 41.5t77.5 15q42 0 76 -13t58 -36t37 -55.5t13 -72.5t-16 -75.5t-43.5 -61.5t-64 -41.5t-77.5 -15.5z" />
<glyph unicode="&#xd0;" horiz-adv-x="1531" d="M171 679h-115v230h115v613h118q19 0 50 1t69.5 3t81.5 4t84.5 4t80 3t67.5 1q190 0 329 -49.5t229.5 -144t134 -232t43.5 -312.5q0 -195 -49.5 -347t-146 -257t-238.5 -159.5t-326 -52.5q-50 0 -104.5 2.5t-110.5 5.5t-111 5.5t-106 2.5h-95v679zM536 259 q29 -8 80.5 -11.5t105.5 -2.5q82 1 149 32t114.5 95.5t73.5 162.5t26 232q0 142 -24 240t-71.5 159.5t-119.5 89t-168 27.5q-21 0 -44 -0.5t-45.5 -2t-42 -4t-34.5 -5.5v-362h302v-230h-302v-420z" />
<glyph unicode="&#xd1;" horiz-adv-x="1610" d="M373 1748q10 40 37.5 79t68 70.5t91 51t106.5 19.5q48 0 82.5 -10t60 -25t44.5 -32.5t37 -32.5t38 -25t47 -10t53.5 9.5t49 24t41.5 31.5t31 32l109 -130q-9 -39 -36 -78.5t-66.5 -72t-88.5 -53t-102 -20.5q-46 0 -79.5 10.5t-59.5 25.5t-46 33.5t-40 33.5t-41 25.5 t-49 10.5q-27 0 -52.5 -9.5t-47 -24.5t-39.5 -32.5t-31 -33.5zM170 1522h341l536 -860l105 -216l-37 344v732h324v-1522h-359l-512 843l-114 229l41 -355v-717h-325v1522z" />
<glyph unicode="&#xd2;" horiz-adv-x="1597" d="M809 1544q-21 6 -50 24t-62 43.5t-68 56.5t-67.5 64t-61 66t-47.5 63l249 130q6 -18 25.5 -47t46 -62t57 -68t58 -65t49.5 -53t31 -32l-160 -120v0zM93 770q4 201 60 345.5t153 237.5t229.5 137.5t288.5 47.5q160 3 287.5 -49t215.5 -152t133.5 -245.5t42.5 -329.5 q-4 -201 -57 -347t-146.5 -240.5t-222 -141t-283.5 -49.5q-167 -3 -299 50.5t-222.5 156.5t-136.5 249.5t-43 329.5zM801 250q76 0 137 30t104 93.5t66 162.5t23 238q0 108 -19.5 198.5t-58.5 155.5t-98 101.5t-138 36.5q-72 0 -136 -26.5t-112 -86.5t-76 -157t-28 -238 q0 -109 21 -202t63 -161t105 -106.5t147 -38.5z" />
<glyph unicode="&#xd3;" horiz-adv-x="1597" d="M685 1664q9 9 31 32t49.5 53t58 65t57 68t46 62t25.5 47l249 -130q-32 -45 -78.5 -96.5t-96.5 -96.5t-98 -79t-82 -45zM93 770q4 201 60 345.5t153 237.5t229.5 137.5t288.5 47.5q160 3 287.5 -49t215.5 -152t133.5 -245.5t42.5 -329.5q-4 -201 -57 -347t-146.5 -240.5 t-222 -141t-283.5 -49.5q-167 -3 -299 50.5t-222.5 156.5t-136.5 249.5t-43 329.5zM801 250q76 0 137 30t104 93.5t66 162.5t23 238q0 108 -19.5 198.5t-58.5 155.5t-98 101.5t-138 36.5q-72 0 -136 -26.5t-112 -86.5t-76 -157t-28 -238q0 -109 21 -202t63 -161t105 -106.5 t147 -38.5z" />
<glyph unicode="&#xd4;" horiz-adv-x="1597" d="M93 770q4 201 60 345.5t153 237.5t229.5 137.5t288.5 47.5q160 3 287.5 -49t215.5 -152t133.5 -245.5t42.5 -329.5q-4 -201 -57 -347t-146.5 -240.5t-222 -141t-283.5 -49.5q-167 -3 -299 50.5t-222.5 156.5t-136.5 249.5t-43 329.5zM801 250q76 0 137 30t104 93.5 t66 162.5t23 238q0 108 -19.5 198.5t-58.5 155.5t-98 101.5t-138 36.5q-72 0 -136 -26.5t-112 -86.5t-76 -157t-28 -238q0 -109 21 -202t63 -161t105 -106.5t147 -38.5zM430 1676l281 303h230l282 -302l-174 -111l-223 192l-223 -192z" />
<glyph unicode="&#xd5;" horiz-adv-x="1597" d="M380 1748q10 40 37.5 79t68 70.5t91 51t106.5 19.5q48 0 82.5 -10t60 -25t44.5 -32.5t37 -32.5t38 -25t47 -10t53.5 9.5t49 24t41.5 31.5t31 32l109 -130q-9 -39 -36 -78.5t-66.5 -72t-88.5 -53t-102 -20.5q-46 0 -79.5 10.5t-59.5 25.5t-46 33.5t-40 33.5t-41 25.5 t-49 10.5q-27 0 -52.5 -9.5t-47 -24.5t-39.5 -32.5t-31 -33.5zM93 770q4 201 60 345.5t153 237.5t229.5 137.5t288.5 47.5q160 3 287.5 -49t215.5 -152t133.5 -245.5t42.5 -329.5q-4 -201 -57 -347t-146.5 -240.5t-222 -141t-283.5 -49.5q-167 -3 -299 50.5t-222.5 156.5 t-136.5 249.5t-43 329.5zM801 250q76 0 137 30t104 93.5t66 162.5t23 238q0 108 -19.5 198.5t-58.5 155.5t-98 101.5t-138 36.5q-72 0 -136 -26.5t-112 -86.5t-76 -157t-28 -238q0 -109 21 -202t63 -161t105 -106.5t147 -38.5z" />
<glyph unicode="&#xd6;" horiz-adv-x="1597" d="M1089 1592q-40 0 -74 13t-58.5 36.5t-38.5 56.5t-14 72q0 40 16.5 75t44.5 61.5t64.5 41.5t77.5 15q42 0 76 -13t58 -36t37 -55.5t13 -72.5t-16 -75.5t-43.5 -61.5t-64 -41.5t-78.5 -15.5zM554 1592q-40 0 -74 13t-59 36.5t-39 56.5t-14 72q0 40 16.5 75t44.5 61.5 t64.5 41.5t77.5 15q42 0 76 -13t58 -36t37 -55.5t13 -72.5t-16 -75.5t-43.5 -61.5t-64 -41.5t-77.5 -15.5zM93 770q4 201 60 345.5t153 237.5t229.5 137.5t288.5 47.5q160 3 287.5 -49t215.5 -152t133.5 -245.5t42.5 -329.5q-4 -201 -57 -347t-146.5 -240.5t-222 -141 t-283.5 -49.5q-167 -3 -299 50.5t-222.5 156.5t-136.5 249.5t-43 329.5zM801 250q76 0 137 30t104 93.5t66 162.5t23 238q0 108 -19.5 198.5t-58.5 155.5t-98 101.5t-138 36.5q-72 0 -136 -26.5t-112 -86.5t-76 -157t-28 -238q0 -109 21 -202t63 -161t105 -106.5t147 -38.5z " />
<glyph unicode="&#xd7;" horiz-adv-x="1406" d="M170 399l378 375l-378 385l174 173l360 -397l359 397l175 -173l-378 -382l378 -378l-175 -173l-359 384l-360 -384z" />
<glyph unicode="&#xd8;" horiz-adv-x="1597" d="M468 46q-92 42 -163 110.5t-119 161t-72 206.5t-21 246q4 201 60 345.5t153 237.5t229.5 137.5t288.5 47.5q90 2 170 -15l100 281l140 -29l-106 -294q91 -40 162 -106.5t119 -157.5t72 -205.5t22 -249.5q-4 -201 -57 -347t-146.5 -240.5t-222 -141t-283.5 -49.5 q-105 -1 -196 18l-83 -233l-137 24zM898 1254q-38 12 -81 12q-72 0 -136 -26.5t-112 -86.5t-76 -157t-28 -238q0 -128 27.5 -231.5t84.5 -172.5zM694 269q47 -19 107 -19q76 0 137 30t104 93.5t66 162.5t23 238q0 131 -27.5 233.5t-84.5 168.5z" />
<glyph unicode="&#xd9;" horiz-adv-x="1528" d="M750 1544q-21 6 -50 24t-62 43.5t-68 56.5t-67.5 64t-61 66t-47.5 63l249 130q6 -18 25.5 -47t46 -62t57 -68t58 -65t49.5 -53t31 -32l-160 -120v0zM142 1522h363l-3 -824q-1 -126 16 -209t51 -132.5t84.5 -69.5t118.5 -20q63 0 111 20t81 69t49.5 132.5t16.5 209.5v824 h360v-898q0 -147 -33.5 -265.5t-106.5 -202t-188.5 -128t-279.5 -44.5q-173 0 -295 44.5t-199.5 127.5t-113.5 201.5t-35 265.5z" />
<glyph unicode="&#xda;" horiz-adv-x="1528" d="M625 1664q9 9 31 32t49.5 53t58 65t57 68t46 62t25.5 47l249 -130q-32 -45 -78.5 -96.5t-96.5 -96.5t-98 -79t-82 -45zM142 1522h363l-3 -824q-1 -126 16 -209t51 -132.5t84.5 -69.5t118.5 -20q63 0 111 20t81 69t49.5 132.5t16.5 209.5v824h360v-898 q0 -147 -33.5 -265.5t-106.5 -202t-188.5 -128t-279.5 -44.5q-173 0 -295 44.5t-199.5 127.5t-113.5 201.5t-35 265.5z" />
<glyph unicode="&#xdb;" horiz-adv-x="1528" d="M142 1522h363l-3 -824q-1 -126 16 -209t51 -132.5t84.5 -69.5t118.5 -20q63 0 111 20t81 69t49.5 132.5t16.5 209.5v824h360v-898q0 -147 -33.5 -265.5t-106.5 -202t-188.5 -128t-279.5 -44.5q-173 0 -295 44.5t-199.5 127.5t-113.5 201.5t-35 265.5zM370 1676l281 303 h230l282 -302l-174 -111l-223 192l-223 -192z" />
<glyph unicode="&#xdc;" horiz-adv-x="1528" d="M1029 1592q-40 0 -74 13t-58.5 36.5t-38.5 56.5t-14 72q0 40 16.5 75t44.5 61.5t64.5 41.5t77.5 15q42 0 76 -13t58 -36t37 -55.5t13 -72.5t-16 -75.5t-43.5 -61.5t-64 -41.5t-78.5 -15.5zM494 1592q-40 0 -74 13t-59 36.5t-39 56.5t-14 72q0 40 16.5 75t44.5 61.5 t64.5 41.5t77.5 15q42 0 76 -13t58 -36t37 -55.5t13 -72.5t-16 -75.5t-43.5 -61.5t-64 -41.5t-77.5 -15.5zM142 1522h363l-3 -824q-1 -126 16 -209t51 -132.5t84.5 -69.5t118.5 -20q63 0 111 20t81 69t49.5 132.5t16.5 209.5v824h360v-898q0 -147 -33.5 -265.5t-106.5 -202 t-188.5 -128t-279.5 -44.5q-173 0 -295 44.5t-199.5 127.5t-113.5 201.5t-35 265.5z" />
<glyph unicode="&#xde;" horiz-adv-x="1367" d="M171 1522h367v-243q55 4 117 8t122 4q130 0 229.5 -32.5t167.5 -95.5t103 -154.5t35 -208.5q0 -130 -36 -234t-105.5 -176.5t-172.5 -111.5t-237 -39q-73 0 -131.5 2.5t-91.5 5.5v-247h-367v1522zM538 489q36 -5 66.5 -6t62.5 -1q59 0 111 14.5t91 49t61.5 92t22.5 143.5 q0 121 -68.5 189.5t-216.5 65.5q-40 -1 -69.5 -4.5t-60.5 -10.5v-532z" />
<glyph unicode="&#xdf;" horiz-adv-x="1368" d="M162 908h-133v205l149 36q25 115 83.5 196.5t141 133.5t185 76t215.5 24q103 0 184 -22.5t137 -61.5t85.5 -92.5t29.5 -114.5t-16 -104.5t-40 -76t-52 -57t-52 -47t-40 -46.5t-16 -56q0 -33 23.5 -63.5t58.5 -63.5t76 -70.5t76 -85.5t58.5 -108.5t23.5 -138.5 q0 -115 -38 -190t-100 -118.5t-140.5 -61t-160.5 -17.5q-38 0 -75.5 3.5t-69.5 8.5t-56.5 12t-36.5 13v235q8 -5 23.5 -11.5t36 -12.5t45.5 -10.5t51 -4.5q27 0 54 6.5t48.5 23t34.5 44.5t13 72q0 46 -19.5 83.5t-48.5 71.5t-63.5 67t-63.5 72t-48.5 85.5t-19.5 106.5 q0 47 14.5 81.5t37 63t48 53.5t48 53t37 61t14.5 78q0 52 -38.5 86t-111.5 34q-54 0 -98 -20.5t-75 -68t-48 -125.5t-17 -193v-952h-354v908z" />
<glyph unicode="&#xe0;" horiz-adv-x="1242" d="M78 323q0 51 15.5 97t43.5 84.5t68 69t90 51.5q55 22 114.5 36.5t118.5 22.5t116 11t108 3v87q0 40 -11.5 66t-36 40.5t-64 20t-95.5 5.5q-41 0 -90 -6.5t-97 -17.5t-92 -26t-75 -32l-70 200q27 17 79 38t119.5 39.5t145.5 31t157 12.5q129 0 220.5 -23t149 -72.5 t84.5 -127.5t27 -189v-760h-212q-29 0 -50.5 2.5t-36.5 12.5t-22.5 31t-7.5 58v8q-24 -21 -57 -41t-74.5 -36t-92 -25.5t-110.5 -9.5q-81 0 -147.5 24t-114.5 68.5t-74 107t-26 139.5zM430 357q0 -41 12.5 -71t33.5 -49.5t50 -29t62 -9.5q26 0 52 5t48.5 12.5t39 16 t24.5 16.5v288q-28 -1 -59 -3.5t-61 -7.5t-57.5 -12t-47.5 -16t-37.5 -21t-30.5 -28.5t-21 -38.5t-8 -52zM589 1228q-23 12 -58 37.5t-75 60t-82 75t-80 83t-69 83.5t-48 76l230 178q33 -49 77.5 -111t91 -124.5t92 -118.5t81.5 -93l-160 -146v0z" />
<glyph unicode="&#xe1;" horiz-adv-x="1242" d="M78 323q0 51 15.5 97t43.5 84.5t68 69t90 51.5q55 22 114.5 36.5t118.5 22.5t116 11t108 3v87q0 40 -11.5 66t-36 40.5t-64 20t-95.5 5.5q-41 0 -90 -6.5t-97 -17.5t-92 -26t-75 -32l-70 200q27 17 79 38t119.5 39.5t145.5 31t157 12.5q129 0 220.5 -23t149 -72.5 t84.5 -127.5t27 -189v-760h-212q-29 0 -50.5 2.5t-36.5 12.5t-22.5 31t-7.5 58v8q-24 -21 -57 -41t-74.5 -36t-92 -25.5t-110.5 -9.5q-81 0 -147.5 24t-114.5 68.5t-74 107t-26 139.5zM430 357q0 -41 12.5 -71t33.5 -49.5t50 -29t62 -9.5q26 0 52 5t48.5 12.5t39 16 t24.5 16.5v288q-28 -1 -59 -3.5t-61 -7.5t-57.5 -12t-47.5 -16t-37.5 -21t-30.5 -28.5t-21 -38.5t-8 -52zM461 1397q32 36 76 87.5t90.5 109.5t91.5 117t79 110l229 -178q-16 -33 -45.5 -72t-66.5 -79t-78 -78.5t-80.5 -71t-73.5 -56.5t-57 -35z" />
<glyph unicode="&#xe2;" horiz-adv-x="1242" d="M78 323q0 51 15.5 97t43.5 84.5t68 69t90 51.5q55 22 114.5 36.5t118.5 22.5t116 11t108 3v87q0 40 -11.5 66t-36 40.5t-64 20t-95.5 5.5q-41 0 -90 -6.5t-97 -17.5t-92 -26t-75 -32l-70 200q27 17 79 38t119.5 39.5t145.5 31t157 12.5q129 0 220.5 -23t149 -72.5 t84.5 -127.5t27 -189v-760h-212q-29 0 -50.5 2.5t-36.5 12.5t-22.5 31t-7.5 58v8q-24 -21 -57 -41t-74.5 -36t-92 -25.5t-110.5 -9.5q-81 0 -147.5 24t-114.5 68.5t-74 107t-26 139.5zM430 357q0 -41 12.5 -71t33.5 -49.5t50 -29t62 -9.5q26 0 52 5t48.5 12.5t39 16 t24.5 16.5v288q-28 -1 -59 -3.5t-61 -7.5t-57.5 -12t-47.5 -16t-37.5 -21t-30.5 -28.5t-21 -38.5t-8 -52zM206 1388l307 351h212l306 -351l-173 -109l-239 209l-243 -209z" />
<glyph unicode="&#xe3;" horiz-adv-x="1242" d="M78 323q0 51 15.5 97t43.5 84.5t68 69t90 51.5q55 22 114.5 36.5t118.5 22.5t116 11t108 3v87q0 40 -11.5 66t-36 40.5t-64 20t-95.5 5.5q-41 0 -90 -6.5t-97 -17.5t-92 -26t-75 -32l-70 200q27 17 79 38t119.5 39.5t145.5 31t157 12.5q129 0 220.5 -23t149 -72.5 t84.5 -127.5t27 -189v-760h-212q-29 0 -50.5 2.5t-36.5 12.5t-22.5 31t-7.5 58v8q-24 -21 -57 -41t-74.5 -36t-92 -25.5t-110.5 -9.5q-81 0 -147.5 24t-114.5 68.5t-74 107t-26 139.5zM430 357q0 -41 12.5 -71t33.5 -49.5t50 -29t62 -9.5q26 0 52 5t48.5 12.5t39 16 t24.5 16.5v288q-28 -1 -59 -3.5t-61 -7.5t-57.5 -12t-47.5 -16t-37.5 -21t-30.5 -28.5t-21 -38.5t-8 -52zM157 1454q10 37 36.5 76.5t66.5 71t91 52t110 20.5q51 0 87 -10t62.5 -25t46 -32t38.5 -32t39.5 -25t48.5 -10q31 0 59 9.5t51.5 23.5t42.5 31.5t32 32.5l109 -131 q-10 -38 -36 -77.5t-64.5 -72t-88 -53.5t-106.5 -21q-49 0 -84 10t-62 25.5t-47.5 33t-40.5 33t-42 25.5t-51 10q-30 0 -56.5 -9.5t-49.5 -23.5t-41.5 -31.5t-31.5 -33.5z" />
<glyph unicode="&#xe4;" horiz-adv-x="1242" d="M78 323q0 51 15.5 97t43.5 84.5t68 69t90 51.5q55 22 114.5 36.5t118.5 22.5t116 11t108 3v87q0 40 -11.5 66t-36 40.5t-64 20t-95.5 5.5q-41 0 -90 -6.5t-97 -17.5t-92 -26t-75 -32l-70 200q27 17 79 38t119.5 39.5t145.5 31t157 12.5q129 0 220.5 -23t149 -72.5 t84.5 -127.5t27 -189v-760h-212q-29 0 -50.5 2.5t-36.5 12.5t-22.5 31t-7.5 58v8q-24 -21 -57 -41t-74.5 -36t-92 -25.5t-110.5 -9.5q-81 0 -147.5 24t-114.5 68.5t-74 107t-26 139.5zM430 357q0 -41 12.5 -71t33.5 -49.5t50 -29t62 -9.5q26 0 52 5t48.5 12.5t39 16 t24.5 16.5v288q-28 -1 -59 -3.5t-61 -7.5t-57.5 -12t-47.5 -16t-37.5 -21t-30.5 -28.5t-21 -38.5t-8 -52zM870 1292q-40 0 -73.5 13.5t-58 37.5t-38.5 57.5t-14 74.5q0 40 16.5 76t44.5 62.5t64.5 42t76.5 15.5q41 0 74.5 -13t57 -37t36 -57.5t12.5 -73.5q0 -41 -16 -77 t-43 -63t-63 -42.5t-76 -15.5zM350 1292q-39 0 -72.5 13.5t-58 37.5t-38.5 57.5t-14 74.5q0 40 16.5 76t44.5 62.5t64.5 42t76.5 15.5q41 0 74.5 -13t57 -37t36 -57.5t12.5 -73.5q0 -41 -16 -77t-43 -63t-63 -42.5t-77 -15.5z" />
<glyph unicode="&#xe5;" horiz-adv-x="1242" d="M78 323q0 51 15.5 97t43.5 84.5t68 69t90 51.5q55 22 114.5 36.5t118.5 22.5t116 11t108 3v87q0 40 -11.5 66t-36 40.5t-64 20t-95.5 5.5q-41 0 -90 -6.5t-97 -17.5t-92 -26t-75 -32l-70 200q27 17 79 38t119.5 39.5t145.5 31t157 12.5q129 0 220.5 -23t149 -72.5 t84.5 -127.5t27 -189v-760h-212q-29 0 -50.5 2.5t-36.5 12.5t-22.5 31t-7.5 58v8q-24 -21 -57 -41t-74.5 -36t-92 -25.5t-110.5 -9.5q-81 0 -147.5 24t-114.5 68.5t-74 107t-26 139.5zM430 357q0 -41 12.5 -71t33.5 -49.5t50 -29t62 -9.5q26 0 52 5t48.5 12.5t39 16 t24.5 16.5v288q-28 -1 -59 -3.5t-61 -7.5t-57.5 -12t-47.5 -16t-37.5 -21t-30.5 -28.5t-21 -38.5t-8 -52zM614 1295q-84 0 -151 22.5t-113.5 64t-71 99.5t-23.5 130q2 81 34.5 137.5t84.5 91.5t116.5 51t130.5 16q83 0 149.5 -20t113 -58.5t71.5 -94.5t25 -129 q-1 -81 -31.5 -139.5t-81 -96.5t-116 -56t-137.5 -18zM617 1460q36 0 66.5 7t52.5 24t34 44.5t12 67.5q0 34 -12.5 60.5t-35 45t-52.5 28.5t-65 10q-31 0 -60 -6.5t-51.5 -23t-36 -43.5t-13.5 -67q0 -33 11.5 -60t33 -46.5t51 -30t65.5 -10.5z" />
<glyph unicode="&#xe6;" horiz-adv-x="1858" d="M86 323q0 51 15 97t43 84.5t67.5 69t87.5 51.5q54 23 112 37t116.5 22t115.5 11t110 3v85q0 39 -14.5 64t-42.5 39.5t-69 19.5t-94 5q-47 0 -97.5 -8.5t-97 -21.5t-83.5 -27t-56 -26l-76 207q16 9 62.5 29t115 40.5t154.5 36t182 15.5q118 0 200.5 -21.5t133.5 -78.5 q66 48 150.5 74t187.5 26q60 0 117.5 -9.5t109.5 -31t95.5 -56.5t75.5 -86t50.5 -120.5t19.5 -158.5q0 -62 -3 -112t-8 -86h-673q5 -77 27 -127.5t60 -80.5t90 -42t117 -12q44 0 90.5 5.5t88 14t75 19t52.5 21.5l54 -189q-28 -23 -73 -44.5t-102 -38.5t-124.5 -27.5 t-140.5 -10.5q-144 0 -252 44t-179 129q-38 -43 -87 -75.5t-104.5 -54t-116 -32.5t-122.5 -11q-81 0 -147.5 24t-113.5 68.5t-73 107t-26 139.5zM1455 667q3 62 -2.5 112t-23.5 85.5t-49.5 55t-79.5 19.5q-41 0 -75.5 -14t-60.5 -45.5t-43.5 -84t-24.5 -128.5h359zM438 357 q0 -41 11.5 -71t32.5 -49.5t49 -29t61 -9.5q26 0 55 5.5t57 17t52 29.5t41 42q-43 106 -47 244q-64 -2 -121.5 -12t-95.5 -27q-20 -9 -37.5 -21t-30 -28.5t-20 -38.5t-7.5 -52z" />
<glyph unicode="&#xe8;" horiz-adv-x="1206" d="M83 575q0 124 38 230.5t110.5 184.5t178 122t240.5 44q91 0 176 -22t151 -75t106 -142t42 -223q0 -62 -3.5 -114.5t-8.5 -89.5h-681q6 -74 29 -124.5t61.5 -81t91 -43.5t117.5 -13q45 0 91 5.5t87.5 14t75 19t53.5 21.5l55 -183q-29 -23 -74 -44.5t-102.5 -38.5 t-125.5 -27.5t-142 -10.5q-137 0 -242.5 40.5t-177.5 116.5t-109 185.5t-37 248.5zM798 667q3 62 -3 112t-24 85.5t-49.5 55t-79.5 19.5q-42 0 -76.5 -14t-60.5 -45.5t-44 -84t-25 -128.5h362zM616 1228q-23 12 -58 37.5t-75 60t-82 75t-80 83t-69 83.5t-48 76l230 178 q33 -49 77.5 -111t91 -124.5t92 -118.5t81.5 -93l-160 -146v0z" />
<glyph unicode="&#xe9;" horiz-adv-x="1206" d="M488 1397q32 36 76 87.5t90.5 109.5t91.5 117t79 110l229 -178q-16 -33 -45.5 -72t-66.5 -79t-78 -78.5t-80.5 -71t-73.5 -56.5t-57 -35zM83 575q0 124 38 230.5t110.5 184.5t178 122t240.5 44q91 0 176 -22t151 -75t106 -142t42 -223q0 -62 -3.5 -114.5t-8.5 -89.5h-681 q6 -74 29 -124.5t61.5 -81t91 -43.5t117.5 -13q45 0 91 5.5t87.5 14t75 19t53.5 21.5l55 -183q-29 -23 -74 -44.5t-102.5 -38.5t-125.5 -27.5t-142 -10.5q-137 0 -242.5 40.5t-177.5 116.5t-109 185.5t-37 248.5zM798 667q3 62 -3 112t-24 85.5t-49.5 55t-79.5 19.5 q-42 0 -76.5 -14t-60.5 -45.5t-44 -84t-25 -128.5h362z" />
<glyph unicode="&#xea;" horiz-adv-x="1206" d="M233 1388l307 351h212l306 -351l-173 -109l-239 209l-243 -209zM83 575q0 124 38 230.5t110.5 184.5t178 122t240.5 44q91 0 176 -22t151 -75t106 -142t42 -223q0 -62 -3.5 -114.5t-8.5 -89.5h-681q6 -74 29 -124.5t61.5 -81t91 -43.5t117.5 -13q45 0 91 5.5t87.5 14 t75 19t53.5 21.5l55 -183q-29 -23 -74 -44.5t-102.5 -38.5t-125.5 -27.5t-142 -10.5q-137 0 -242.5 40.5t-177.5 116.5t-109 185.5t-37 248.5zM798 667q3 62 -3 112t-24 85.5t-49.5 55t-79.5 19.5q-42 0 -76.5 -14t-60.5 -45.5t-44 -84t-25 -128.5h362z" />
<glyph unicode="&#xeb;" horiz-adv-x="1206" d="M897 1292q-40 0 -73.5 13.5t-58 37.5t-38.5 57.5t-14 74.5q0 40 16.5 76t44.5 62.5t64.5 42t76.5 15.5q41 0 74.5 -13t57 -37t36 -57.5t12.5 -73.5q0 -41 -16 -77t-43 -63t-63 -42.5t-76 -15.5zM377 1292q-39 0 -72.5 13.5t-58 37.5t-38.5 57.5t-14 74.5q0 40 16.5 76 t44.5 62.5t64.5 42t76.5 15.5q41 0 74.5 -13t57 -37t36 -57.5t12.5 -73.5q0 -41 -16 -77t-43 -63t-63 -42.5t-77 -15.5zM83 575q0 124 38 230.5t110.5 184.5t178 122t240.5 44q91 0 176 -22t151 -75t106 -142t42 -223q0 -62 -3.5 -114.5t-8.5 -89.5h-681q6 -74 29 -124.5 t61.5 -81t91 -43.5t117.5 -13q45 0 91 5.5t87.5 14t75 19t53.5 21.5l55 -183q-29 -23 -74 -44.5t-102.5 -38.5t-125.5 -27.5t-142 -10.5q-137 0 -242.5 40.5t-177.5 116.5t-109 185.5t-37 248.5zM798 667q3 62 -3 112t-24 85.5t-49.5 55t-79.5 19.5q-42 0 -76.5 -14 t-60.5 -45.5t-44 -84t-25 -128.5h362z" />
<glyph unicode="&#xec;" horiz-adv-x="681" d="M163 1139h355v-1139h-355v1139zM311 1228q-23 12 -58 37.5t-75 60t-82 75t-80 83t-69 83.5t-48 76l230 178q33 -49 77.5 -111t91 -124.5t92 -118.5t81.5 -93l-160 -146v0z" />
<glyph unicode="&#xed;" horiz-adv-x="681" d="M182 1397q32 36 76 87.5t90.5 109.5t91.5 117t79 110l229 -178q-16 -33 -45.5 -72t-66.5 -79t-78 -78.5t-80.5 -71t-73.5 -56.5t-57 -35zM163 1139h355v-1139h-355v1139z" />
<glyph unicode="&#xee;" horiz-adv-x="681" d="M-73 1388l307 351h212l306 -351l-173 -109l-239 209l-243 -209zM163 1139h355v-1139h-355v1139z" />
<glyph unicode="&#xef;" horiz-adv-x="681" d="M592 1292q-40 0 -73.5 13.5t-58 37.5t-38.5 57.5t-14 74.5q0 40 16.5 76t44.5 62.5t64.5 42t76.5 15.5q41 0 74.5 -13t57 -37t36 -57.5t12.5 -73.5q0 -41 -16 -77t-43 -63t-63 -42.5t-76 -15.5zM72 1292q-39 0 -72.5 13.5t-58 37.5t-38.5 57.5t-14 74.5q0 40 16.5 76 t44.5 62.5t64.5 42t76.5 15.5q41 0 74.5 -13t57 -37t36 -57.5t12.5 -73.5q0 -41 -16 -77t-43 -63t-63 -42.5t-77 -15.5zM163 1139h355v-1139h-355v1139z" />
<glyph unicode="&#xf0;" horiz-adv-x="1289" d="M81 551q0 127 36 237t104 190.5t165.5 126.5t220.5 46q66 0 117 -14t89 -36q-37 96 -95.5 173t-135.5 145l-128 -160l-156 116l131 155q-48 32 -101 59.5t-110 45.5l63 175q43 -12 80 -24t71 -25.5t67 -29t68 -34.5q22 28 45 58t42 56q22 30 43 58l158 -117 q-19 -25 -40 -51q-18 -23 -40.5 -50t-44.5 -53q117 -83 209 -189t156 -227.5t97.5 -256t33.5 -273.5q0 -185 -46 -314t-125 -210t-184.5 -118t-223.5 -37q-130 0 -235 41.5t-178.5 117.5t-113 182.5t-39.5 236.5zM652 206q45 0 85 22.5t69.5 69.5t47 119.5t17.5 172.5v55.5 v67t-0.5 67.5t-2.5 57q-17 36 -69 63.5t-132 27.5q-105 0 -161 -100.5t-56 -289.5q0 -163 55.5 -247.5t146.5 -84.5z" />
<glyph unicode="&#xf1;" horiz-adv-x="1362" d="M161 1139h322l8 -121q34 28 78.5 53.5t95 44t104 30t106.5 11.5q87 1 150.5 -22t105 -75t61.5 -136.5t20 -206.5v-717h-352v681q0 59 -7.5 100t-26 65.5t-48.5 35t-75 8.5q-23 0 -48 -6t-49.5 -16t-48.5 -24t-43 -30v-814h-353v1139zM301 1454q10 37 36.5 76.5t66.5 71 t91 52t110 20.5q51 0 87 -10t62.5 -25t46 -32t38.5 -32t39.5 -25t48.5 -10q31 0 59 9.5t51.5 23.5t42.5 31.5t32 32.5l109 -131q-10 -38 -36 -77.5t-64.5 -72t-88 -53.5t-106.5 -21q-49 0 -84 10t-62 25.5t-47.5 33t-40.5 33t-42 25.5t-51 10q-30 0 -56.5 -9.5t-49.5 -23.5 t-41.5 -31.5t-31.5 -33.5z" />
<glyph unicode="&#xf2;" horiz-adv-x="1305" d="M83 593q2 137 46 242t120.5 176.5t182 108t231.5 36.5q155 0 262 -49t173.5 -132.5t95.5 -194t27 -233.5q-2 -137 -45.5 -242.5t-120 -176.5t-182 -107.5t-231.5 -36.5q-155 0 -262.5 49t-174 132.5t-95.5 194t-27 233.5zM650 225q57 0 96 20t63.5 62t35.5 106t11 150 q0 76 -10 140t-33.5 110.5t-61.5 73t-95 26.5q-58 0 -97.5 -20.5t-63.5 -62t-34.5 -103.5t-10.5 -144q0 -77 10 -142.5t33.5 -113.5t62 -75t94.5 -27zM629 1228q-23 12 -58 37.5t-75 60t-82 75t-80 83t-69 83.5t-48 76l230 178q33 -49 77.5 -111t91 -124.5t92 -118.5 t81.5 -93l-160 -146v0z" />
<glyph unicode="&#xf3;" horiz-adv-x="1305" d="M501 1397q32 36 76 87.5t90.5 109.5t91.5 117t79 110l229 -178q-16 -33 -45.5 -72t-66.5 -79t-78 -78.5t-80.5 -71t-73.5 -56.5t-57 -35zM83 593q2 137 46 242t120.5 176.5t182 108t231.5 36.5q155 0 262 -49t173.5 -132.5t95.5 -194t27 -233.5q-2 -137 -45.5 -242.5 t-120 -176.5t-182 -107.5t-231.5 -36.5q-155 0 -262.5 49t-174 132.5t-95.5 194t-27 233.5zM650 225q57 0 96 20t63.5 62t35.5 106t11 150q0 76 -10 140t-33.5 110.5t-61.5 73t-95 26.5q-58 0 -97.5 -20.5t-63.5 -62t-34.5 -103.5t-10.5 -144q0 -77 10 -142.5t33.5 -113.5 t62 -75t94.5 -27z" />
<glyph unicode="&#xf4;" horiz-adv-x="1305" d="M246 1388l307 351h212l306 -351l-173 -109l-239 209l-243 -209zM83 593q2 137 46 242t120.5 176.5t182 108t231.5 36.5q155 0 262 -49t173.5 -132.5t95.5 -194t27 -233.5q-2 -137 -45.5 -242.5t-120 -176.5t-182 -107.5t-231.5 -36.5q-155 0 -262.5 49t-174 132.5 t-95.5 194t-27 233.5zM650 225q57 0 96 20t63.5 62t35.5 106t11 150q0 76 -10 140t-33.5 110.5t-61.5 73t-95 26.5q-58 0 -97.5 -20.5t-63.5 -62t-34.5 -103.5t-10.5 -144q0 -77 10 -142.5t33.5 -113.5t62 -75t94.5 -27z" />
<glyph unicode="&#xf5;" horiz-adv-x="1305" d="M83 593q2 137 46 242t120.5 176.5t182 108t231.5 36.5q155 0 262 -49t173.5 -132.5t95.5 -194t27 -233.5q-2 -137 -45.5 -242.5t-120 -176.5t-182 -107.5t-231.5 -36.5q-155 0 -262.5 49t-174 132.5t-95.5 194t-27 233.5zM650 225q57 0 96 20t63.5 62t35.5 106t11 150 q0 76 -10 140t-33.5 110.5t-61.5 73t-95 26.5q-58 0 -97.5 -20.5t-63.5 -62t-34.5 -103.5t-10.5 -144q0 -77 10 -142.5t33.5 -113.5t62 -75t94.5 -27zM198 1454q10 37 36.5 76.5t66.5 71t91 52t110 20.5q51 0 87 -10t62.5 -25t46 -32t38.5 -32t39.5 -25t48.5 -10 q31 0 59 9.5t51.5 23.5t42.5 31.5t32 32.5l109 -131q-10 -38 -36 -77.5t-64.5 -72t-88 -53.5t-106.5 -21q-49 0 -84 10t-62 25.5t-47.5 33t-40.5 33t-42 25.5t-51 10q-30 0 -56.5 -9.5t-49.5 -23.5t-41.5 -31.5t-31.5 -33.5z" />
<glyph unicode="&#xf6;" horiz-adv-x="1305" d="M910 1292q-40 0 -73.5 13.5t-58 37.5t-38.5 57.5t-14 74.5q0 40 16.5 76t44.5 62.5t64.5 42t76.5 15.5q41 0 74.5 -13t57 -37t36 -57.5t12.5 -73.5q0 -41 -16 -77t-43 -63t-63 -42.5t-76 -15.5zM390 1292q-39 0 -72.5 13.5t-58 37.5t-38.5 57.5t-14 74.5q0 40 16.5 76 t44.5 62.5t64.5 42t76.5 15.5q41 0 74.5 -13t57 -37t36 -57.5t12.5 -73.5q0 -41 -16 -77t-43 -63t-63 -42.5t-77 -15.5zM83 593q2 137 46 242t120.5 176.5t182 108t231.5 36.5q155 0 262 -49t173.5 -132.5t95.5 -194t27 -233.5q-2 -137 -45.5 -242.5t-120 -176.5 t-182 -107.5t-231.5 -36.5q-155 0 -262.5 49t-174 132.5t-95.5 194t-27 233.5zM650 225q57 0 96 20t63.5 62t35.5 106t11 150q0 76 -10 140t-33.5 110.5t-61.5 73t-95 26.5q-58 0 -97.5 -20.5t-63.5 -62t-34.5 -103.5t-10.5 -144q0 -77 10 -142.5t33.5 -113.5t62 -75 t94.5 -27z" />
<glyph unicode="&#xf7;" horiz-adv-x="1418" d="M721 1033q-43 0 -79 14.5t-61.5 40t-39.5 61.5t-14 78t16.5 80.5t45.5 67.5t68 46t84 17t81 -14.5t60.5 -41t37.5 -62t13 -77.5t-16.5 -80.5t-45 -67t-67 -45.5t-83.5 -17zM197 902h1024v-254h-1024v254zM526 313q0 42 17 80.5t46 67.5t68 46t84 17t80.5 -14.5 t60.5 -40.5t38 -61.5t13 -77.5q0 -43 -16.5 -81t-45 -66.5t-67 -45.5t-83.5 -17q-44 0 -79.5 14.5t-61.5 40t-40 61t-14 77.5z" />
<glyph unicode="&#xf8;" horiz-adv-x="1312" d="M390 28q-84 34 -143 91.5t-95.5 131.5t-53 161t-15.5 181q2 137 46 242t120.5 176.5t182 108t231.5 36.5q69 0 125 -10l84 234l136 -29l-87 -243q82 -35 140 -92t94 -130.5t51.5 -159.5t14.5 -179q-2 -137 -45.5 -242.5t-120 -176.5t-182 -107.5t-231.5 -36.5 q-66 0 -123 9l-80 -224l-133 24zM703 907q-23 6 -47 6q-116 1 -170.5 -82t-54.5 -248q0 -82 14.5 -151t46.5 -118zM605 230q11 -3 22 -4t23 -1q113 -1 168.5 82t55.5 256q0 79 -14 144.5t-43 113.5z" />
<glyph unicode="&#xf9;" horiz-adv-x="1346" d="M143 1140h354v-687q0 -68 9.5 -110t28.5 -66t48.5 -32.5t69.5 -8.5q27 0 54.5 5t51.5 13t43 17.5t30 18.5l-1 850h354v-1156h-239q-20 0 -35.5 2.5t-25.5 10t-15 21.5t-5 37v35q-32 -23 -75 -42.5t-90 -33.5t-94.5 -22t-88.5 -8q-120 0 -193.5 37t-113.5 101.5t-53.5 153 t-13.5 192.5v672zM646 1228q-23 12 -58 37.5t-75 60t-82 75t-80 83t-69 83.5t-48 76l230 178q33 -49 77.5 -111t91 -124.5t92 -118.5t81.5 -93l-160 -146v0z" />
<glyph unicode="&#xfa;" horiz-adv-x="1346" d="M518 1397q32 36 76 87.5t90.5 109.5t91.5 117t79 110l229 -178q-16 -33 -45.5 -72t-66.5 -79t-78 -78.5t-80.5 -71t-73.5 -56.5t-57 -35zM143 1140h354v-687q0 -68 9.5 -110t28.5 -66t48.5 -32.5t69.5 -8.5q27 0 54.5 5t51.5 13t43 17.5t30 18.5l-1 850h354v-1156h-239 q-20 0 -35.5 2.5t-25.5 10t-15 21.5t-5 37v35q-32 -23 -75 -42.5t-90 -33.5t-94.5 -22t-88.5 -8q-120 0 -193.5 37t-113.5 101.5t-53.5 153t-13.5 192.5v672z" />
<glyph unicode="&#xfb;" horiz-adv-x="1346" d="M263 1388l307 351h212l306 -351l-173 -109l-239 209l-243 -209zM143 1140h354v-687q0 -68 9.5 -110t28.5 -66t48.5 -32.5t69.5 -8.5q27 0 54.5 5t51.5 13t43 17.5t30 18.5l-1 850h354v-1156h-239q-20 0 -35.5 2.5t-25.5 10t-15 21.5t-5 37v35q-32 -23 -75 -42.5 t-90 -33.5t-94.5 -22t-88.5 -8q-120 0 -193.5 37t-113.5 101.5t-53.5 153t-13.5 192.5v672z" />
<glyph unicode="&#xfc;" horiz-adv-x="1346" d="M927 1292q-40 0 -73.5 13.5t-58 37.5t-38.5 57.5t-14 74.5q0 40 16.5 76t44.5 62.5t64.5 42t76.5 15.5q41 0 74.5 -13t57 -37t36 -57.5t12.5 -73.5q0 -41 -16 -77t-43 -63t-63 -42.5t-76 -15.5zM407 1292q-39 0 -72.5 13.5t-58 37.5t-38.5 57.5t-14 74.5q0 40 16.5 76 t44.5 62.5t64.5 42t76.5 15.5q41 0 74.5 -13t57 -37t36 -57.5t12.5 -73.5q0 -41 -16 -77t-43 -63t-63 -42.5t-77 -15.5zM143 1140h354v-687q0 -68 9.5 -110t28.5 -66t48.5 -32.5t69.5 -8.5q27 0 54.5 5t51.5 13t43 17.5t30 18.5l-1 850h354v-1156h-239q-20 0 -35.5 2.5 t-25.5 10t-15 21.5t-5 37v35q-32 -23 -75 -42.5t-90 -33.5t-94.5 -22t-88.5 -8q-120 0 -193.5 37t-113.5 101.5t-53.5 153t-13.5 192.5v672z" />
<glyph unicode="&#xfe;" horiz-adv-x="1355" d="M509 -169v-338h-353v2169h353v-418l-8 -204q21 19 50 39.5t68.5 37.5t89.5 28t113 11q91 0 173 -33t143.5 -100.5t97.5 -169.5t36 -241q0 -144 -41.5 -260.5t-119.5 -199t-188.5 -127t-248.5 -44.5q-44 0 -87 2.5t-86 7.5zM509 253q19 -16 60.5 -24.5t101.5 -8.5 q50 0 92.5 24t74 71t49.5 115.5t19 158.5q0 82 -14.5 139.5t-41.5 93.5t-65 52.5t-86 16.5q-32 0 -61 -7t-53.5 -17t-44 -21.5t-31.5 -19.5v-573z" />
<glyph unicode="&#x100;" horiz-adv-x="1472" d="M522 1529h432l522 -1529h-380l-89 296h-549l-86 -296h-376zM932 550l-148 497l-53 207l-54 -207l-145 -497h400zM431 1915h611v-226h-611v226z" />
<glyph unicode="&#x101;" horiz-adv-x="1242" d="M78 323q0 51 15.5 97t43.5 84.5t68 69t90 51.5q55 22 114.5 36.5t118.5 22.5t116 11t108 3v87q0 40 -11.5 66t-36 40.5t-64 20t-95.5 5.5q-41 0 -90 -6.5t-97 -17.5t-92 -26t-75 -32l-70 200q27 17 79 38t119.5 39.5t145.5 31t157 12.5q129 0 220.5 -23t149 -72.5 t84.5 -127.5t27 -189v-760h-212q-29 0 -50.5 2.5t-36.5 12.5t-22.5 31t-7.5 58v8q-24 -21 -57 -41t-74.5 -36t-92 -25.5t-110.5 -9.5q-81 0 -147.5 24t-114.5 68.5t-74 107t-26 139.5zM430 357q0 -41 12.5 -71t33.5 -49.5t50 -29t62 -9.5q26 0 52 5t48.5 12.5t39 16 t24.5 16.5v288q-28 -1 -59 -3.5t-61 -7.5t-57.5 -12t-47.5 -16t-37.5 -21t-30.5 -28.5t-21 -38.5t-8 -52zM313 1631h611v-231h-611v231z" />
<glyph unicode="&#x102;" horiz-adv-x="1472" d="M522 1529h432l522 -1529h-380l-89 296h-549l-86 -296h-376zM932 550l-148 497l-53 207l-54 -207l-145 -497h400zM736 1595q-97 0 -169.5 27.5t-121 77.5t-72 118.5t-22.5 151.5h221q2 -14 7 -38.5t21.5 -49t48.5 -42.5t87 -18t87 18t48.5 42.5t22 49t8.5 38.5h217 q1 -83 -23.5 -151.5t-73.5 -118.5t-121 -77.5t-165 -27.5z" />
<glyph unicode="&#x103;" horiz-adv-x="1242" d="M78 323q0 51 15.5 97t43.5 84.5t68 69t90 51.5q55 22 114.5 36.5t118.5 22.5t116 11t108 3v87q0 40 -11.5 66t-36 40.5t-64 20t-95.5 5.5q-41 0 -90 -6.5t-97 -17.5t-92 -26t-75 -32l-70 200q27 17 79 38t119.5 39.5t145.5 31t157 12.5q129 0 220.5 -23t149 -72.5 t84.5 -127.5t27 -189v-760h-212q-29 0 -50.5 2.5t-36.5 12.5t-22.5 31t-7.5 58v8q-24 -21 -57 -41t-74.5 -36t-92 -25.5t-110.5 -9.5q-81 0 -147.5 24t-114.5 68.5t-74 107t-26 139.5zM430 357q0 -41 12.5 -71t33.5 -49.5t50 -29t62 -9.5q26 0 52 5t48.5 12.5t39 16 t24.5 16.5v288q-28 -1 -59 -3.5t-61 -7.5t-57.5 -12t-47.5 -16t-37.5 -21t-30.5 -28.5t-21 -38.5t-8 -52zM618 1286q-96 0 -169 30.5t-121.5 84.5t-72.5 127.5t-23 160.5h221q2 -15 6.5 -44t20.5 -57t48.5 -49t89.5 -21q55 0 87 21t48.5 49t22 56.5t8.5 44.5h217 q1 -87 -24 -161t-74 -127.5t-121 -84t-164 -30.5z" />
<glyph unicode="&#x106;" horiz-adv-x="1317" d="M78 757q0 195 61 341.5t166.5 244t246.5 146.5t300 49q79 0 139 -7t105.5 -17t79.5 -20t61 -17l-46 -312q-10 8 -33.5 22t-61 27.5t-90 23t-121.5 9.5q-96 0 -175.5 -31t-136.5 -90.5t-88.5 -146.5t-31.5 -200q0 -117 26.5 -212t80.5 -162t135.5 -103t191.5 -36 q50 0 101 8.5t95.5 22.5t79.5 31.5t54 35.5v-300q-28 -12 -64.5 -26t-82 -26t-101 -20t-122.5 -8q-187 0 -330.5 54t-241 154t-147.5 243t-50 322zM687 1664q9 9 31 32t49.5 53t58 65t57 68t46 62t25.5 47l249 -130q-32 -45 -78.5 -96.5t-96.5 -96.5t-98 -79t-82 -45z" />
<glyph unicode="&#x107;" horiz-adv-x="1030" d="M456 1397q32 36 76 87.5t90.5 109.5t91.5 117t79 110l229 -178q-16 -33 -45.5 -72t-66.5 -79t-78 -78.5t-80.5 -71t-73.5 -56.5t-57 -35zM83 561q0 124 34.5 233t105 189t179 126.5t257.5 46.5q59 0 111 -5.5t93 -13.5t69.5 -18.5t41.5 -19.5l-42 -263q-31 21 -89.5 38.5 t-146.5 17.5q-47 0 -91.5 -16t-80.5 -52.5t-58.5 -95.5t-23.5 -146q-2 -94 18.5 -158.5t57.5 -104.5t86 -57.5t104 -17.5q75 0 136.5 14t100.5 33l45 -192q-22 -23 -60.5 -44t-86.5 -37t-103.5 -25t-110.5 -9q-139 0 -242 43.5t-170.5 121t-100.5 183t-33 229.5z" />
<glyph unicode="&#x108;" horiz-adv-x="1317" d="M78 757q0 195 61 341.5t166.5 244t246.5 146.5t300 49q79 0 139 -7t105.5 -17t79.5 -20t61 -17l-46 -312q-10 8 -33.5 22t-61 27.5t-90 23t-121.5 9.5q-96 0 -175.5 -31t-136.5 -90.5t-88.5 -146.5t-31.5 -200q0 -117 26.5 -212t80.5 -162t135.5 -103t191.5 -36 q50 0 101 8.5t95.5 22.5t79.5 31.5t54 35.5v-300q-28 -12 -64.5 -26t-82 -26t-101 -20t-122.5 -8q-187 0 -330.5 54t-241 154t-147.5 243t-50 322zM432 1676l281 303h230l282 -302l-174 -111l-223 192l-223 -192z" />
<glyph unicode="&#x109;" horiz-adv-x="1030" d="M201 1388l307 351h212l306 -351l-173 -109l-239 209l-243 -209zM83 561q0 124 34.5 233t105 189t179 126.5t257.5 46.5q59 0 111 -5.5t93 -13.5t69.5 -18.5t41.5 -19.5l-42 -263q-31 21 -89.5 38.5t-146.5 17.5q-47 0 -91.5 -16t-80.5 -52.5t-58.5 -95.5t-23.5 -146 q-2 -94 18.5 -158.5t57.5 -104.5t86 -57.5t104 -17.5q75 0 136.5 14t100.5 33l45 -192q-22 -23 -60.5 -44t-86.5 -37t-103.5 -25t-110.5 -9q-139 0 -242 43.5t-170.5 121t-100.5 183t-33 229.5z" />
<glyph unicode="&#x10b;" horiz-adv-x="1030" d="M83 561q0 124 34.5 233t105 189t179 126.5t257.5 46.5q59 0 111 -5.5t93 -13.5t69.5 -18.5t41.5 -19.5l-42 -263q-31 21 -89.5 38.5t-146.5 17.5q-47 0 -91.5 -16t-80.5 -52.5t-58.5 -95.5t-23.5 -146q-2 -94 18.5 -158.5t57.5 -104.5t86 -57.5t104 -17.5q75 0 136.5 14 t100.5 33l45 -192q-22 -23 -60.5 -44t-86.5 -37t-103.5 -25t-110.5 -9q-139 0 -242 43.5t-170.5 121t-100.5 183t-33 229.5zM599 1285q-43 0 -79.5 13.5t-63 38t-41.5 58.5t-15 75t17.5 77.5t47.5 63.5t69 42.5t82 15.5q45 0 81 -13.5t61.5 -37.5t39.5 -57.5t14 -74.5 t-17 -77.5t-46 -64t-68 -43.5t-82 -16z" />
<glyph unicode="&#x10c;" horiz-adv-x="1317" d="M78 757q0 195 61 341.5t166.5 244t246.5 146.5t300 49q79 0 139 -7t105.5 -17t79.5 -20t61 -17l-46 -312q-10 8 -33.5 22t-61 27.5t-90 23t-121.5 9.5q-96 0 -175.5 -31t-136.5 -90.5t-88.5 -146.5t-31.5 -200q0 -117 26.5 -212t80.5 -162t135.5 -103t191.5 -36 q50 0 101 8.5t95.5 22.5t79.5 31.5t54 35.5v-300q-28 -12 -64.5 -26t-82 -26t-101 -20t-122.5 -8q-187 0 -330.5 54t-241 154t-147.5 243t-50 322zM436 1869l170 110l223 -159l224 159l168 -110l-277 -277h-230z" />
<glyph unicode="&#x10d;" horiz-adv-x="1030" d="M198 1641l170 109l243 -209l239 209l173 -109l-306 -351h-212zM83 561q0 124 34.5 233t105 189t179 126.5t257.5 46.5q59 0 111 -5.5t93 -13.5t69.5 -18.5t41.5 -19.5l-42 -263q-31 21 -89.5 38.5t-146.5 17.5q-47 0 -91.5 -16t-80.5 -52.5t-58.5 -95.5t-23.5 -146 q-2 -94 18.5 -158.5t57.5 -104.5t86 -57.5t104 -17.5q75 0 136.5 14t100.5 33l45 -192q-22 -23 -60.5 -44t-86.5 -37t-103.5 -25t-110.5 -9q-139 0 -242 43.5t-170.5 121t-100.5 183t-33 229.5z" />
<glyph unicode="&#x10f;" horiz-adv-x="1735" d="M533 -16q-91 0 -173 33t-143.5 100.5t-97.5 169.5t-36 241q0 144 41 260t117 198t182.5 126t237.5 44q60 0 107 -7.5t81 -17.5l-3 113v419h353v-1679h-261q-34 0 -49.5 17.5t-15.5 48.5v65q-20 -20 -49.5 -42.5t-70.5 -42.5t-95.5 -33t-124.5 -13zM656 244q28 0 56 6 t53 15t46 20t35 22v568q-42 39 -162 39q-52 0 -95 -23.5t-73.5 -70t-48 -115.5t-17.5 -160q-1 -155 52.5 -228t153.5 -73zM1419 1036l-8 42q7 25 13.5 50t12 56t9 72t3.5 99q0 73 -17 127.5t-43 86.5l11 61l252 89q43 -35 65 -107.5t22 -176.5q0 -85 -15 -154.5t-39 -125 t-53 -97.5t-57 -72z" />
<glyph unicode="&#x110;" horiz-adv-x="1530" d="M171 679h-115v230h115v613h118q19 0 50 1t69.5 3t81.5 4t84.5 4t80 3t67.5 1q190 0 329 -49.5t229.5 -144t134 -232t43.5 -312.5q0 -195 -49.5 -347t-146 -257t-238.5 -159.5t-326 -52.5q-50 0 -104.5 2.5t-110.5 5.5t-111 5.5t-106 2.5h-95v679zM536 259 q29 -8 80.5 -11.5t105.5 -2.5q82 1 149 32t114.5 95.5t73.5 162.5t26 232q0 142 -24 240t-71.5 159.5t-119.5 89t-168 27.5q-21 0 -44 -0.5t-45.5 -2t-42 -4t-34.5 -5.5v-362h302v-230h-302v-420z" />
<glyph unicode="&#x111;" horiz-adv-x="1355" d="M533 -16q-91 0 -173 33t-143.5 100.5t-97.5 169.5t-36 241q0 144 41 260t117 198t182.5 126t237.5 44q60 0 107 -7.5t81 -17.5l-3 113v53h-233v191h233v175h353v-175h133v-191h-133v-1313h-261q-34 0 -49.5 17.5t-15.5 48.5v65q-20 -20 -49.5 -42.5t-70.5 -42.5 t-95.5 -33t-124.5 -13zM656 244q28 0 56 6t53 15t46 20t35 22v568q-42 39 -162 39q-52 0 -95 -23.5t-73.5 -70t-48 -115.5t-17.5 -160q-1 -155 52.5 -228t153.5 -73z" />
<glyph unicode="&#x112;" horiz-adv-x="1262" d="M389 1915h611v-226h-611v226zM171 1522h952v-269h-594v-343h450v-261h-450v-376h656v-273h-1014v1522z" />
<glyph unicode="&#x113;" horiz-adv-x="1206" d="M83 575q0 124 38 230.5t110.5 184.5t178 122t240.5 44q91 0 176 -22t151 -75t106 -142t42 -223q0 -62 -3.5 -114.5t-8.5 -89.5h-681q6 -74 29 -124.5t61.5 -81t91 -43.5t117.5 -13q45 0 91 5.5t87.5 14t75 19t53.5 21.5l55 -183q-29 -23 -74 -44.5t-102.5 -38.5 t-125.5 -27.5t-142 -10.5q-137 0 -242.5 40.5t-177.5 116.5t-109 185.5t-37 248.5zM798 667q3 62 -3 112t-24 85.5t-49.5 55t-79.5 19.5q-42 0 -76.5 -14t-60.5 -45.5t-44 -84t-25 -128.5h362zM340 1631h611v-231h-611v231z" />
<glyph unicode="&#x114;" horiz-adv-x="1262" d="M693 1595q-97 0 -169.5 27.5t-121 77.5t-72 118.5t-22.5 151.5h221q2 -14 7 -38.5t21.5 -49t48.5 -42.5t87 -18t87 18t48.5 42.5t22 49t8.5 38.5h217q1 -83 -23.5 -151.5t-73.5 -118.5t-121 -77.5t-165 -27.5zM171 1522h952v-269h-594v-343h450v-261h-450v-376h656v-273 h-1014v1522z" />
<glyph unicode="&#x115;" horiz-adv-x="1206" d="M83 575q0 124 38 230.5t110.5 184.5t178 122t240.5 44q91 0 176 -22t151 -75t106 -142t42 -223q0 -62 -3.5 -114.5t-8.5 -89.5h-681q6 -74 29 -124.5t61.5 -81t91 -43.5t117.5 -13q45 0 91 5.5t87.5 14t75 19t53.5 21.5l55 -183q-29 -23 -74 -44.5t-102.5 -38.5 t-125.5 -27.5t-142 -10.5q-137 0 -242.5 40.5t-177.5 116.5t-109 185.5t-37 248.5zM798 667q3 62 -3 112t-24 85.5t-49.5 55t-79.5 19.5q-42 0 -76.5 -14t-60.5 -45.5t-44 -84t-25 -128.5h362zM645 1286q-96 0 -169 30.5t-121.5 84.5t-72.5 127.5t-23 160.5h221 q2 -15 6.5 -44t20.5 -57t48.5 -49t89.5 -21q55 0 87 21t48.5 49t22 56.5t8.5 44.5h217q1 -87 -24 -161t-74 -127.5t-121 -84t-164 -30.5z" />
<glyph unicode="&#x116;" horiz-adv-x="1262" d="M692 1613q-86 0 -136.5 43t-50.5 125q0 41 15.5 75t43 58t65 37t80.5 13q90 0 137.5 -42.5t47.5 -124.5q0 -41 -15.5 -75t-42.5 -58t-64 -37.5t-80 -13.5zM171 1522h952v-269h-594v-343h450v-261h-450v-376h656v-273h-1014v1522z" />
<glyph unicode="&#x117;" horiz-adv-x="1206" d="M83 575q0 124 38 230.5t110.5 184.5t178 122t240.5 44q91 0 176 -22t151 -75t106 -142t42 -223q0 -62 -3.5 -114.5t-8.5 -89.5h-681q6 -74 29 -124.5t61.5 -81t91 -43.5t117.5 -13q45 0 91 5.5t87.5 14t75 19t53.5 21.5l55 -183q-29 -23 -74 -44.5t-102.5 -38.5 t-125.5 -27.5t-142 -10.5q-137 0 -242.5 40.5t-177.5 116.5t-109 185.5t-37 248.5zM798 667q3 62 -3 112t-24 85.5t-49.5 55t-79.5 19.5q-42 0 -76.5 -14t-60.5 -45.5t-44 -84t-25 -128.5h362zM631 1285q-43 0 -79.5 13.5t-63 38t-41.5 58.5t-15 75t17.5 77.5t47.5 63.5 t69 42.5t82 15.5q45 0 81 -13.5t61.5 -37.5t39.5 -57.5t14 -74.5t-17 -77.5t-46 -64t-68 -43.5t-82 -16z" />
<glyph unicode="&#x11a;" horiz-adv-x="1262" d="M302 1869l170 110l223 -159l224 159l168 -110l-277 -277h-230zM171 1522h952v-269h-594v-343h450v-261h-450v-376h656v-273h-1014v1522z" />
<glyph unicode="&#x11b;" horiz-adv-x="1206" d="M230 1641l170 109l243 -209l239 209l173 -109l-306 -351h-212zM83 575q0 124 38 230.5t110.5 184.5t178 122t240.5 44q91 0 176 -22t151 -75t106 -142t42 -223q0 -62 -3.5 -114.5t-8.5 -89.5h-681q6 -74 29 -124.5t61.5 -81t91 -43.5t117.5 -13q45 0 91 5.5t87.5 14 t75 19t53.5 21.5l55 -183q-29 -23 -74 -44.5t-102.5 -38.5t-125.5 -27.5t-142 -10.5q-137 0 -242.5 40.5t-177.5 116.5t-109 185.5t-37 248.5zM798 667q3 62 -3 112t-24 85.5t-49.5 55t-79.5 19.5q-42 0 -76.5 -14t-60.5 -45.5t-44 -84t-25 -128.5h362z" />
<glyph unicode="&#x128;" horiz-adv-x="733" d="M183 1522h368v-1522h-368v1522zM-79 1748q10 40 37.5 79t68 70.5t91 51t106.5 19.5q48 0 82.5 -10t60 -25t44.5 -32.5t37 -32.5t38 -25t47 -10t53.5 9.5t49 24t41.5 31.5t31 32l109 -130q-9 -39 -36 -78.5t-66.5 -72t-88.5 -53t-102 -20.5q-46 0 -79.5 10.5t-59.5 25.5 t-46 33.5t-40 33.5t-41 25.5t-49 10.5q-27 0 -52.5 -9.5t-47 -24.5t-39.5 -32.5t-31 -33.5z" />
<glyph unicode="&#x129;" horiz-adv-x="681" d="M163 1139h355v-1139h-355v1139zM-121 1454q10 37 36.5 76.5t66.5 71t91 52t110 20.5q51 0 87 -10t62.5 -25t46 -32t38.5 -32t39.5 -25t48.5 -10q31 0 59 9.5t51.5 23.5t42.5 31.5t32 32.5l109 -131q-10 -38 -36 -77.5t-64.5 -72t-88 -53.5t-106.5 -21q-49 0 -84 10 t-62 25.5t-47.5 33t-40.5 33t-42 25.5t-51 10q-30 0 -56.5 -9.5t-49.5 -23.5t-41.5 -31.5t-31.5 -33.5z" />
<glyph unicode="&#x12a;" horiz-adv-x="733" d="M183 1522h368v-1522h-368v1522zM61 1915h611v-226h-611v226z" />
<glyph unicode="&#x12b;" horiz-adv-x="681" d="M163 1139h355v-1139h-355v1139zM34 1631h611v-231h-611v231z" />
<glyph unicode="&#x12c;" horiz-adv-x="733" d="M183 1522h368v-1522h-368v1522zM367 1595q-97 0 -169.5 27.5t-121 77.5t-72 118.5t-22.5 151.5h221q2 -14 7 -38.5t21.5 -49t48.5 -42.5t87 -18t87 18t48.5 42.5t22 49t8.5 38.5h217q1 -83 -23.5 -151.5t-73.5 -118.5t-121 -77.5t-165 -27.5z" />
<glyph unicode="&#x12d;" horiz-adv-x="681" d="M163 1139h355v-1139h-355v1139zM340 1286q-96 0 -169 30.5t-121.5 84.5t-72.5 127.5t-23 160.5h221q2 -15 6.5 -44t20.5 -57t48.5 -49t89.5 -21q55 0 87 21t48.5 49t22 56.5t8.5 44.5h217q1 -87 -24 -161t-74 -127.5t-121 -84t-164 -30.5z" />
<glyph unicode="&#x130;" horiz-adv-x="733" d="M183 1522h368v-1522h-368v1522zM365 1613q-86 0 -136.5 43t-50.5 125q0 41 15.5 75t43 58t65 37t80.5 13q90 0 137.5 -42.5t47.5 -124.5q0 -41 -15.5 -75t-42.5 -58t-64 -37.5t-80 -13.5z" />
<glyph unicode="&#x131;" horiz-adv-x="681" d="M163 1139h355v-1139h-355v1139z" />
<glyph unicode="&#x132;" horiz-adv-x="1499" d="M183 1522h368v-1522h-368v1522zM676 -154q36 15 72 34t68 47t58 66.5t43 91.5q13 40 19.5 87.5t9.5 109t3 141v185.5v914h368v-909q0 -75 1.5 -145t0.5 -135.5t-5 -125.5t-15 -114q-14 -73 -48 -133t-80 -108t-100.5 -83t-110 -58t-108.5 -33.5t-96 -9.5l-80 178v0z" />
<glyph unicode="&#x133;" horiz-adv-x="1343" d="M843 1139h355v-1077q0 -165 -29 -275t-83 -175t-132 -92t-175 -27q-29 0 -58.5 2t-55 5t-46 7t-31.5 9v229q6 -4 20.5 -8t31.5 -7t34.5 -5t30.5 -2q38 0 64.5 14t43 44.5t23.5 79.5t7 120v1158zM163 1139h355v-1139h-355v1139zM342 1285q-43 0 -79.5 13.5t-63 38 t-41.5 58.5t-15 75t17.5 77.5t47.5 63.5t69 42.5t82 15.5q45 0 81 -13.5t61.5 -37.5t39.5 -57.5t14 -74.5t-17 -77.5t-46 -64t-68 -43.5t-82 -16zM1021 1285q-43 0 -79.5 13.5t-63 38t-41.5 58.5t-15 75t17.5 77.5t47.5 63.5t69 42.5t82 15.5q45 0 81 -13.5t61.5 -37.5 t39.5 -57.5t14 -74.5t-17 -77.5t-46 -64t-68 -43.5t-82 -16z" />
<glyph unicode="&#x134;" horiz-adv-x="765" d="M-57 -154q36 15 72 34t68 47t58 66.5t43 91.5q13 40 19.5 87.5t9.5 109t3 141v185.5v914h368v-909q0 -75 1.5 -145t0.5 -135.5t-5 -125.5t-15 -114q-14 -73 -48 -133t-80 -108t-100.5 -83t-110 -58t-108.5 -33.5t-96 -9.5l-80 178v0zM-1 1676l281 303h230l282 -302 l-174 -111l-223 192l-223 -192z" />
<glyph unicode="&#x141;" horiz-adv-x="1108" d="M171 623l-123 -45l-62 167l185 69v708h374v-569l282 106l62 -170l-344 -127v-487h509v-275h-883v623z" />
<glyph unicode="&#x142;" horiz-adv-x="684" d="M165 696l-136 -50v219l136 52v746h355v-609l170 65v-229l-170 -63v-827h-355v696z" />
<glyph unicode="&#x14c;" horiz-adv-x="1597" d="M521 1915h611v-226h-611v226zM93 770q4 201 60 345.5t153 237.5t229.5 137.5t288.5 47.5q160 3 287.5 -49t215.5 -152t133.5 -245.5t42.5 -329.5q-4 -201 -57 -347t-146.5 -240.5t-222 -141t-283.5 -49.5q-167 -3 -299 50.5t-222.5 156.5t-136.5 249.5t-43 329.5z M801 250q76 0 137 30t104 93.5t66 162.5t23 238q0 108 -19.5 198.5t-58.5 155.5t-98 101.5t-138 36.5q-72 0 -136 -26.5t-112 -86.5t-76 -157t-28 -238q0 -109 21 -202t63 -161t105 -106.5t147 -38.5z" />
<glyph unicode="&#x14d;" horiz-adv-x="1305" d="M353 1631h611v-231h-611v231zM83 593q2 137 46 242t120.5 176.5t182 108t231.5 36.5q155 0 262 -49t173.5 -132.5t95.5 -194t27 -233.5q-2 -137 -45.5 -242.5t-120 -176.5t-182 -107.5t-231.5 -36.5q-155 0 -262.5 49t-174 132.5t-95.5 194t-27 233.5zM650 225 q57 0 96 20t63.5 62t35.5 106t11 150q0 76 -10 140t-33.5 110.5t-61.5 73t-95 26.5q-58 0 -97.5 -20.5t-63.5 -62t-34.5 -103.5t-10.5 -144q0 -77 10 -142.5t33.5 -113.5t62 -75t94.5 -27z" />
<glyph unicode="&#x14e;" horiz-adv-x="1597" d="M825 1595q-97 0 -169.5 27.5t-121 77.5t-72 118.5t-22.5 151.5h221q2 -14 7 -38.5t21.5 -49t48.5 -42.5t87 -18t87 18t48.5 42.5t22 49t8.5 38.5h217q1 -83 -23.5 -151.5t-73.5 -118.5t-121 -77.5t-165 -27.5zM93 770q4 201 60 345.5t153 237.5t229.5 137.5t288.5 47.5 q160 3 287.5 -49t215.5 -152t133.5 -245.5t42.5 -329.5q-4 -201 -57 -347t-146.5 -240.5t-222 -141t-283.5 -49.5q-167 -3 -299 50.5t-222.5 156.5t-136.5 249.5t-43 329.5zM801 250q76 0 137 30t104 93.5t66 162.5t23 238q0 108 -19.5 198.5t-58.5 155.5t-98 101.5 t-138 36.5q-72 0 -136 -26.5t-112 -86.5t-76 -157t-28 -238q0 -109 21 -202t63 -161t105 -106.5t147 -38.5z" />
<glyph unicode="&#x14f;" horiz-adv-x="1305" d="M83 593q2 137 46 242t120.5 176.5t182 108t231.5 36.5q155 0 262 -49t173.5 -132.5t95.5 -194t27 -233.5q-2 -137 -45.5 -242.5t-120 -176.5t-182 -107.5t-231.5 -36.5q-155 0 -262.5 49t-174 132.5t-95.5 194t-27 233.5zM650 225q57 0 96 20t63.5 62t35.5 106t11 150 q0 76 -10 140t-33.5 110.5t-61.5 73t-95 26.5q-58 0 -97.5 -20.5t-63.5 -62t-34.5 -103.5t-10.5 -144q0 -77 10 -142.5t33.5 -113.5t62 -75t94.5 -27zM658 1286q-96 0 -169 30.5t-121.5 84.5t-72.5 127.5t-23 160.5h221q2 -15 6.5 -44t20.5 -57t48.5 -49t89.5 -21 q55 0 87 21t48.5 49t22 56.5t8.5 44.5h217q1 -87 -24 -161t-74 -127.5t-121 -84t-164 -30.5z" />
<glyph unicode="&#x150;" horiz-adv-x="1597" d="M93 770q4 201 60 345.5t153 237.5t229.5 137.5t288.5 47.5q160 3 287.5 -49t215.5 -152t133.5 -245.5t42.5 -329.5q-4 -201 -57 -347t-146.5 -240.5t-222 -141t-283.5 -49.5q-167 -3 -299 50.5t-222.5 156.5t-136.5 249.5t-43 329.5zM801 250q76 0 137 30t104 93.5 t66 162.5t23 238q0 108 -19.5 198.5t-58.5 155.5t-98 101.5t-138 36.5q-72 0 -136 -26.5t-112 -86.5t-76 -157t-28 -238q0 -109 21 -202t63 -161t105 -106.5t147 -38.5zM454 1673q9 9 26 30.5t37.5 50t43 61t43 64t37 59t25.5 45.5l244 -110q-30 -46 -70.5 -96t-82 -93.5 t-78 -76t-57.5 -44.5zM952 1673q9 9 26.5 30.5t39 49.5t44.5 60t45 63t40 58.5t28 45.5l239 -111q-28 -42 -68 -91t-81.5 -93t-78.5 -77t-59 -45z" />
<glyph unicode="&#x151;" horiz-adv-x="1305" d="M252 1372q26 36 57.5 82t63.5 95.5t63 98.5t56 89.5t43 69t24 37.5l209 -139q-17 -36 -45 -78t-62.5 -85.5t-72 -85.5t-74 -78t-68.5 -63.5t-55 -40.5zM764 1372q21 28 50.5 70t62 90t65.5 97.5t61.5 91.5t49 73t27.5 41l206 -139q-16 -35 -44 -76t-63 -83.5t-74 -84 t-76 -77t-70.5 -62t-56.5 -39.5zM83 593q2 137 46 242t120.5 176.5t182 108t231.5 36.5q155 0 262 -49t173.5 -132.5t95.5 -194t27 -233.5q-2 -137 -45.5 -242.5t-120 -176.5t-182 -107.5t-231.5 -36.5q-155 0 -262.5 49t-174 132.5t-95.5 194t-27 233.5zM650 225 q57 0 96 20t63.5 62t35.5 106t11 150q0 76 -10 140t-33.5 110.5t-61.5 73t-95 26.5q-58 0 -97.5 -20.5t-63.5 -62t-34.5 -103.5t-10.5 -144q0 -77 10 -142.5t33.5 -113.5t62 -75t94.5 -27z" />
<glyph unicode="&#x152;" horiz-adv-x="2137" d="M761 -16q-161 -2 -287 55t-212 161t-129.5 249t-40.5 320q3 201 59.5 345.5t151.5 238t223.5 138.5t275.5 47q78 1 138.5 -15.5t103.5 -43.5v43h946v-269h-586v-343h441v-261h-441v-376h647v-273h-1007v58q-46 -29 -114 -51t-169 -23zM803 259q81 0 141 21t100 71v824 q-38 42 -91.5 61t-122.5 19q-40 0 -82.5 -7.5t-83 -27t-77 -54.5t-64 -90t-43.5 -133.5t-16 -184.5q0 -120 23 -213t66.5 -156.5t106.5 -96.5t143 -33z" />
<glyph unicode="&#x153;" horiz-adv-x="1990" d="M83 593q2 137 46 242t121.5 176.5t183.5 108t232 36.5q132 0 228.5 -36t163.5 -99q70 64 165.5 99.5t216.5 35.5q90 0 174 -22t149 -75t104.5 -142t41.5 -223q0 -62 -3 -112t-8 -86h-674q5 -76 27.5 -126.5t60 -80.5t89.5 -42.5t117 -12.5q44 0 90.5 5.5t88 14t75 19 t52.5 21.5l55 -189q-28 -23 -73 -44.5t-102 -38.5t-124.5 -27.5t-140.5 -10.5q-126 0 -224 34t-168 100q-77 -66 -179 -100t-224 -34q-155 0 -262.5 49t-174.5 132.5t-96.5 194t-27.5 233.5zM1587 667q3 62 -3 112t-24 85.5t-49 55t-79 19.5q-41 0 -75.5 -14t-60.5 -45.5 t-43.5 -84t-24.5 -128.5h359zM652 225q57 0 96 20t64 62t36 106t11 150q0 76 -10 140t-33.5 110.5t-61.5 73t-95 26.5t-96.5 -20.5t-64 -62t-35 -103.5t-10.5 -144q0 -77 10 -142.5t33.5 -113.5t61.5 -75t94 -27z" />
<glyph unicode="&#x168;" horiz-adv-x="1528" d="M320 1748q10 40 37.5 79t68 70.5t91 51t106.5 19.5q48 0 82.5 -10t60 -25t44.5 -32.5t37 -32.5t38 -25t47 -10t53.5 9.5t49 24t41.5 31.5t31 32l109 -130q-9 -39 -36 -78.5t-66.5 -72t-88.5 -53t-102 -20.5q-46 0 -79.5 10.5t-59.5 25.5t-46 33.5t-40 33.5t-41 25.5 t-49 10.5q-27 0 -52.5 -9.5t-47 -24.5t-39.5 -32.5t-31 -33.5zM142 1522h363l-3 -824q-1 -126 16 -209t51 -132.5t84.5 -69.5t118.5 -20q63 0 111 20t81 69t49.5 132.5t16.5 209.5v824h360v-898q0 -147 -33.5 -265.5t-106.5 -202t-188.5 -128t-279.5 -44.5q-173 0 -295 44.5 t-199.5 127.5t-113.5 201.5t-35 265.5z" />
<glyph unicode="&#x169;" horiz-adv-x="1346" d="M143 1140h354v-687q0 -68 9.5 -110t28.5 -66t48.5 -32.5t69.5 -8.5q27 0 54.5 5t51.5 13t43 17.5t30 18.5l-1 850h354v-1156h-239q-20 0 -35.5 2.5t-25.5 10t-15 21.5t-5 37v35q-32 -23 -75 -42.5t-90 -33.5t-94.5 -22t-88.5 -8q-120 0 -193.5 37t-113.5 101.5t-53.5 153 t-13.5 192.5v672zM215 1454q10 37 36.5 76.5t66.5 71t91 52t110 20.5q51 0 87 -10t62.5 -25t46 -32t38.5 -32t39.5 -25t48.5 -10q31 0 59 9.5t51.5 23.5t42.5 31.5t32 32.5l109 -131q-10 -38 -36 -77.5t-64.5 -72t-88 -53.5t-106.5 -21q-49 0 -84 10t-62 25.5t-47.5 33 t-40.5 33t-42 25.5t-51 10q-30 0 -56.5 -9.5t-49.5 -23.5t-41.5 -31.5t-31.5 -33.5z" />
<glyph unicode="&#x16a;" horiz-adv-x="1528" d="M461 1915h611v-226h-611v226zM142 1522h363l-3 -824q-1 -126 16 -209t51 -132.5t84.5 -69.5t118.5 -20q63 0 111 20t81 69t49.5 132.5t16.5 209.5v824h360v-898q0 -147 -33.5 -265.5t-106.5 -202t-188.5 -128t-279.5 -44.5q-173 0 -295 44.5t-199.5 127.5t-113.5 201.5 t-35 265.5z" />
<glyph unicode="&#x16b;" horiz-adv-x="1346" d="M143 1140h354v-687q0 -68 9.5 -110t28.5 -66t48.5 -32.5t69.5 -8.5q27 0 54.5 5t51.5 13t43 17.5t30 18.5l-1 850h354v-1156h-239q-20 0 -35.5 2.5t-25.5 10t-15 21.5t-5 37v35q-32 -23 -75 -42.5t-90 -33.5t-94.5 -22t-88.5 -8q-120 0 -193.5 37t-113.5 101.5t-53.5 153 t-13.5 192.5v672zM370 1631h611v-231h-611v231z" />
<glyph unicode="&#x16c;" horiz-adv-x="1528" d="M766 1595q-97 0 -169.5 27.5t-121 77.5t-72 118.5t-22.5 151.5h221q2 -14 7 -38.5t21.5 -49t48.5 -42.5t87 -18t87 18t48.5 42.5t22 49t8.5 38.5h217q1 -83 -23.5 -151.5t-73.5 -118.5t-121 -77.5t-165 -27.5zM142 1522h363l-3 -824q-1 -126 16 -209t51 -132.5 t84.5 -69.5t118.5 -20q63 0 111 20t81 69t49.5 132.5t16.5 209.5v824h360v-898q0 -147 -33.5 -265.5t-106.5 -202t-188.5 -128t-279.5 -44.5q-173 0 -295 44.5t-199.5 127.5t-113.5 201.5t-35 265.5z" />
<glyph unicode="&#x16d;" horiz-adv-x="1346" d="M143 1140h354v-687q0 -68 9.5 -110t28.5 -66t48.5 -32.5t69.5 -8.5q27 0 54.5 5t51.5 13t43 17.5t30 18.5l-1 850h354v-1156h-239q-20 0 -35.5 2.5t-25.5 10t-15 21.5t-5 37v35q-32 -23 -75 -42.5t-90 -33.5t-94.5 -22t-88.5 -8q-120 0 -193.5 37t-113.5 101.5t-53.5 153 t-13.5 192.5v672zM675 1286q-96 0 -169 30.5t-121.5 84.5t-72.5 127.5t-23 160.5h221q2 -15 6.5 -44t20.5 -57t48.5 -49t89.5 -21q55 0 87 21t48.5 49t22 56.5t8.5 44.5h217q1 -87 -24 -161t-74 -127.5t-121 -84t-164 -30.5z" />
<glyph unicode="&#x16e;" horiz-adv-x="1528" d="M142 1522h363l-3 -824q-1 -126 16 -209t51 -132.5t84.5 -69.5t118.5 -20q63 0 111 20t81 69t49.5 132.5t16.5 209.5v824h360v-898q0 -147 -33.5 -265.5t-106.5 -202t-188.5 -128t-279.5 -44.5q-173 0 -295 44.5t-199.5 127.5t-113.5 201.5t-35 265.5zM762 1394 q-84 0 -151 20.5t-113.5 59.5t-71 95t-23.5 128q1 81 34 135.5t84.5 87.5t116.5 47t131 14q83 0 149.5 -18t113 -54t71.5 -90.5t25 -127.5q-1 -81 -31.5 -137.5t-81 -92t-116 -51.5t-137.5 -16zM765 1559q36 0 66.5 5t52.5 19.5t34 40t12 65.5q0 34 -12.5 59t-35 41 t-52.5 24t-65 8q-31 0 -60 -4.5t-51.5 -18.5t-36 -39.5t-13.5 -65.5q0 -65 44.5 -99t116.5 -35z" />
<glyph unicode="&#x16f;" horiz-adv-x="1346" d="M672 1295q-84 0 -151 22.5t-113.5 64t-71 99.5t-23.5 130q2 81 34.5 137.5t84.5 91.5t116.5 51t130.5 16q83 0 149.5 -20t113 -58.5t71.5 -94.5t25 -129q-1 -81 -31.5 -139.5t-81 -96.5t-116 -56t-137.5 -18zM675 1460q36 0 66.5 7t52.5 24t34 44.5t12 67.5 q0 34 -12.5 60.5t-35 45t-52.5 28.5t-65 10q-31 0 -60 -6.5t-51.5 -23t-36 -43.5t-13.5 -67q0 -33 11.5 -60t33 -46.5t51 -30t65.5 -10.5zM143 1140h354v-687q0 -68 9.5 -110t28.5 -66t48.5 -32.5t69.5 -8.5q27 0 54.5 5t51.5 13t43 17.5t30 18.5l-1 850h354v-1156h-239 q-20 0 -35.5 2.5t-25.5 10t-15 21.5t-5 37v35q-32 -23 -75 -42.5t-90 -33.5t-94.5 -22t-88.5 -8q-120 0 -193.5 37t-113.5 101.5t-53.5 153t-13.5 192.5v672z" />
<glyph unicode="&#x170;" horiz-adv-x="1528" d="M142 1522h363l-3 -824q-1 -126 16 -209t51 -132.5t84.5 -69.5t118.5 -20q63 0 111 20t81 69t49.5 132.5t16.5 209.5v824h360v-898q0 -147 -33.5 -265.5t-106.5 -202t-188.5 -128t-279.5 -44.5q-173 0 -295 44.5t-199.5 127.5t-113.5 201.5t-35 265.5zM394 1673 q9 9 26 30.5t37.5 50t43 61t43 64t37 59t25.5 45.5l244 -110q-30 -46 -70.5 -96t-82 -93.5t-78 -76t-57.5 -44.5zM892 1673q9 9 26.5 30.5t39 49.5t44.5 60t45 63t40 58.5t28 45.5l239 -111q-28 -42 -68 -91t-81.5 -93t-78.5 -77t-59 -45z" />
<glyph unicode="&#x171;" horiz-adv-x="1346" d="M143 1140h354v-687q0 -68 9.5 -110t28.5 -66t48.5 -32.5t69.5 -8.5q27 0 54.5 5t51.5 13t43 17.5t30 18.5l-1 850h354v-1156h-239q-20 0 -35.5 2.5t-25.5 10t-15 21.5t-5 37v35q-32 -23 -75 -42.5t-90 -33.5t-94.5 -22t-88.5 -8q-120 0 -193.5 37t-113.5 101.5t-53.5 153 t-13.5 192.5v672zM269 1372q26 36 57.5 82t63.5 95.5t63 98.5t56 89.5t43 69t24 37.5l209 -139q-17 -36 -45 -78t-62.5 -85.5t-72 -85.5t-74 -78t-68.5 -63.5t-55 -40.5zM781 1372q21 28 50.5 70t62 90t65.5 97.5t61.5 91.5t49 73t27.5 41l206 -139q-16 -35 -44 -76 t-63 -83.5t-74 -84t-76 -77t-70.5 -62t-56.5 -39.5z" />
<glyph unicode="&#x192;" horiz-adv-x="1198" d="M368 902h-163l17 200l165 38l9 94q8 86 33 153t63 117t86.5 84.5t104 55.5t114.5 30.5t119 9.5q34 0 66 -2.5t59 -6t46 -7.5t28 -7l-21 -258q-17 12 -56 19.5t-97 7.5q-77 0 -127.5 -54.5t-61.5 -167.5l-8 -68h264l-19 -238h-265l-111 -1258h-356z" />
<glyph unicode="&#x1c7;" horiz-adv-x="1873" d="M171 1522h374v-1247h509v-275h-883v1522zM1051 -154q36 15 72 34t68 47t58 66.5t43 91.5q13 40 19.5 87.5t9.5 109t3 141v185.5v914h368v-909q0 -75 1.5 -145t0.5 -135.5t-5 -125.5t-15 -114q-14 -73 -48 -133t-80 -108t-100.5 -83t-110 -58t-108.5 -33.5t-96 -9.5 l-80 178v0z" />
<glyph unicode="&#x1c8;" horiz-adv-x="1770" d="M171 1522h374v-1247h509v-275h-883v1522zM1271 1139h355v-1077q0 -165 -29 -275t-83 -175t-132 -92t-175 -27q-29 0 -58.5 2t-55 5t-46 7t-31.5 9v229q6 -4 20.5 -8t31.5 -7t34.5 -5t30.5 -2q38 0 64.5 14t43 44.5t23.5 79.5t7 120v1158zM1448 1285q-43 0 -79.5 13.5 t-63 38t-41.5 58.5t-15 75t17.5 77.5t47.5 63.5t69 42.5t82 15.5q45 0 81 -13.5t61.5 -37.5t39.5 -57.5t14 -74.5t-17 -77.5t-46 -64t-68 -43.5t-82 -16z" />
<glyph unicode="&#x1c9;" horiz-adv-x="1346" d="M165 1663h355v-1663h-355v1663zM847 1139h355v-1077q0 -165 -29 -275t-83 -175t-132 -92t-175 -27q-29 0 -58.5 2t-55 5t-46 7t-31.5 9v229q6 -4 20.5 -8t31.5 -7t34.5 -5t30.5 -2q38 0 64.5 14t43 44.5t23.5 79.5t7 120v1158zM1024 1285q-43 0 -79.5 13.5t-63 38 t-41.5 58.5t-15 75t17.5 77.5t47.5 63.5t69 42.5t82 15.5q45 0 81 -13.5t61.5 -37.5t39.5 -57.5t14 -74.5t-17 -77.5t-46 -64t-68 -43.5t-82 -16z" />
<glyph unicode="&#x1ca;" horiz-adv-x="2375" d="M170 1522h341l536 -860l105 -216l-37 344v732h324v-1522h-359l-512 843l-114 229l41 -355v-717h-325v1522zM1553 -154q36 15 72 34t68 47t58 66.5t43 91.5q13 40 19.5 87.5t9.5 109t3 141v185.5v914h368v-909q0 -75 1.5 -145t0.5 -135.5t-5 -125.5t-15 -114 q-14 -73 -48 -133t-80 -108t-100.5 -83t-110 -58t-108.5 -33.5t-96 -9.5l-80 178v0z" />
<glyph unicode="&#x1cb;" horiz-adv-x="2272" d="M170 1522h341l536 -860l105 -216l-37 344v732h324v-1522h-359l-512 843l-114 229l41 -355v-717h-325v1522zM1773 1139h355v-1077q0 -165 -29 -275t-83 -175t-132 -92t-175 -27q-29 0 -58.5 2t-55 5t-46 7t-31.5 9v229q6 -4 20.5 -8t31.5 -7t34.5 -5t30.5 -2q38 0 64.5 14 t43 44.5t23.5 79.5t7 120v1158zM1950 1285q-43 0 -79.5 13.5t-63 38t-41.5 58.5t-15 75t17.5 77.5t47.5 63.5t69 42.5t82 15.5q45 0 81 -13.5t61.5 -37.5t39.5 -57.5t14 -74.5t-17 -77.5t-46 -64t-68 -43.5t-82 -16z" />
<glyph unicode="&#x1cc;" horiz-adv-x="2024" d="M161 1139h322l8 -121q34 28 78.5 53.5t95 44t104 30t106.5 11.5q87 1 150.5 -22t105 -75t61.5 -136.5t20 -206.5v-717h-352v681q0 59 -7.5 100t-26 65.5t-48.5 35t-75 8.5q-23 0 -48 -6t-49.5 -16t-48.5 -24t-43 -30v-814h-353v1139zM1525 1139h355v-1077 q0 -165 -29 -275t-83 -175t-132 -92t-175 -27q-29 0 -58.5 2t-55 5t-46 7t-31.5 9v229q6 -4 20.5 -8t31.5 -7t34.5 -5t30.5 -2q38 0 64.5 14t43 44.5t23.5 79.5t7 120v1158zM1702 1285q-43 0 -79.5 13.5t-63 38t-41.5 58.5t-15 75t17.5 77.5t47.5 63.5t69 42.5t82 15.5 q45 0 81 -13.5t61.5 -37.5t39.5 -57.5t14 -74.5t-17 -77.5t-46 -64t-68 -43.5t-82 -16z" />
<glyph unicode="&#x1f1;" horiz-adv-x="2827" d="M171 1522h118q19 0 50 1t69.5 3t81.5 4t84.5 4t80 3t67.5 1q190 0 329 -49.5t229.5 -144t134 -232t43.5 -312.5q0 -195 -49.5 -347t-146 -257t-238.5 -159.5t-326 -52.5q-50 0 -104.5 2.5t-110.5 5.5t-111 5.5t-106 2.5h-95v1522zM536 259q29 -8 80.5 -11.5t105.5 -2.5 q82 1 149 32t114.5 95.5t73.5 162.5t26 232q0 142 -24 240t-71.5 159.5t-119.5 89t-168 27.5q-21 0 -44 -0.5t-45.5 -2t-42 -4t-34.5 -5.5v-1012zM1576 84l640 1065l71 100h-638v273h1075l46 -81l-628 -1064l-75 -105h658v-272h-1104z" />
<glyph unicode="&#x1f2;" horiz-adv-x="2622" d="M171 1522h118q19 0 50 1t69.5 3t81.5 4t84.5 4t80 3t67.5 1q190 0 329 -49.5t229.5 -144t134 -232t43.5 -312.5q0 -195 -49.5 -347t-146 -257t-238.5 -159.5t-326 -52.5q-50 0 -104.5 2.5t-110.5 5.5t-111 5.5t-106 2.5h-95v1522zM536 259q29 -8 80.5 -11.5t105.5 -2.5 q82 1 149 32t114.5 95.5t73.5 162.5t26 232q0 142 -24 240t-71.5 159.5t-119.5 89t-168 27.5q-21 0 -44 -0.5t-45.5 -2t-42 -4t-34.5 -5.5v-1012zM1576 83l468 719l61 94h-462v244h895l35 -96l-462 -696l-66 -96h503v-252h-930z" />
<glyph unicode="&#x1f3;" horiz-adv-x="2447" d="M533 -16q-91 0 -173 33t-143.5 100.5t-97.5 169.5t-36 241q0 144 41 260t117 198t182.5 126t237.5 44q60 0 107 -7.5t81 -17.5l-3 113v419h353v-1679h-261q-34 0 -49.5 17.5t-15.5 48.5v65q-20 -20 -49.5 -42.5t-70.5 -42.5t-95.5 -33t-124.5 -13zM656 244q28 0 56 6 t53 15t46 20t35 22v568q-42 39 -162 39q-52 0 -95 -23.5t-73.5 -70t-48 -115.5t-17.5 -160q-1 -155 52.5 -228t153.5 -73zM1401 83l468 719l61 94h-462v244h895l35 -96l-462 -696l-66 -96h503v-252h-930z" />
<glyph unicode="&#x1fc;" horiz-adv-x="1951" d="M909 1664q9 9 31 32t49.5 53t58 65t57 68t46 62t25.5 47l249 -130q-32 -45 -78.5 -96.5t-96.5 -96.5t-98 -79t-82 -45zM581 1522h1223v-269h-585v-343h441v-261h-441v-376h647v-273h-1007v299h-446l-124 -299h-394zM859 551v821l-342 -821h342z" />
<glyph unicode="&#x1fd;" horiz-adv-x="1858" d="M765 1397q32 36 76 87.5t90.5 109.5t91.5 117t79 110l229 -178q-16 -33 -45.5 -72t-66.5 -79t-78 -78.5t-80.5 -71t-73.5 -56.5t-57 -35zM86 323q0 51 15 97t43 84.5t67.5 69t87.5 51.5q54 23 112 37t116.5 22t115.5 11t110 3v85q0 39 -14.5 64t-42.5 39.5t-69 19.5 t-94 5q-47 0 -97.5 -8.5t-97 -21.5t-83.5 -27t-56 -26l-76 207q16 9 62.5 29t115 40.5t154.5 36t182 15.5q118 0 200.5 -21.5t133.5 -78.5q66 48 150.5 74t187.5 26q60 0 117.5 -9.5t109.5 -31t95.5 -56.5t75.5 -86t50.5 -120.5t19.5 -158.5q0 -62 -3 -112t-8 -86h-673 q5 -77 27 -127.5t60 -80.5t90 -42t117 -12q44 0 90.5 5.5t88 14t75 19t52.5 21.5l54 -189q-28 -23 -73 -44.5t-102 -38.5t-124.5 -27.5t-140.5 -10.5q-144 0 -252 44t-179 129q-38 -43 -87 -75.5t-104.5 -54t-116 -32.5t-122.5 -11q-81 0 -147.5 24t-113.5 68.5t-73 107 t-26 139.5zM1455 667q3 62 -2.5 112t-23.5 85.5t-49.5 55t-79.5 19.5q-41 0 -75.5 -14t-60.5 -45.5t-43.5 -84t-24.5 -128.5h359zM438 357q0 -41 11.5 -71t32.5 -49.5t49 -29t61 -9.5q26 0 55 5.5t57 17t52 29.5t41 42q-43 106 -47 244q-64 -2 -121.5 -12t-95.5 -27 q-20 -9 -37.5 -21t-30 -28.5t-20 -38.5t-7.5 -52z" />
<glyph unicode="&#x237;" horiz-adv-x="662" d="M163 1139h355v-1077q0 -165 -29 -275t-83 -175t-132 -92t-175 -27q-29 0 -58.5 2t-55 5t-46 7t-31.5 9v229q6 -4 20.5 -8t31.5 -7t34.5 -5t30.5 -2q38 0 64.5 14t43 44.5t23.5 79.5t7 120v1158z" />
<glyph unicode="&#x2c6;" horiz-adv-x="882" d="M29 1388l307 351h212l306 -351l-173 -109l-239 209l-243 -209z" />
<glyph unicode="&#x2c7;" horiz-adv-x="824" d="M29 1629l170 109l243 -209l239 209l173 -109l-306 -351h-212z" />
<glyph unicode="&#x2d8;" horiz-adv-x="815" d="M409 1286q-96 0 -169 30.5t-121.5 84.5t-72.5 127.5t-23 160.5h221q2 -15 6.5 -44t20.5 -57t48.5 -49t89.5 -21q55 0 87 21t48.5 49t22 56.5t8.5 44.5h217q1 -87 -24 -161t-74 -127.5t-121 -84t-164 -30.5z" />
<glyph unicode="&#x2d9;" horiz-adv-x="512" d="M249 1285q-43 0 -79.5 13.5t-63 38t-41.5 58.5t-15 75t17.5 77.5t47.5 63.5t69 42.5t82 15.5q45 0 81 -13.5t61.5 -37.5t39.5 -57.5t14 -74.5t-17 -77.5t-46 -64t-68 -43.5t-82 -16z" />
<glyph unicode="&#x2da;" horiz-adv-x="768" d="M380 1295q-84 0 -151 22.5t-113.5 64t-71 99.5t-23.5 130q2 81 34.5 137.5t84.5 91.5t116.5 51t130.5 16q83 0 149.5 -20t113 -58.5t71.5 -94.5t25 -129q-1 -81 -31.5 -139.5t-81 -96.5t-116 -56t-137.5 -18zM383 1460q36 0 66.5 7t52.5 24t34 44.5t12 67.5 q0 34 -12.5 60.5t-35 45t-52.5 28.5t-65 10q-31 0 -60 -6.5t-51.5 -23t-36 -43.5t-13.5 -67q0 -33 11.5 -60t33 -46.5t51 -30t65.5 -10.5z" />
<glyph unicode="&#x2dc;" horiz-adv-x="927" d="M4 1454q10 37 36.5 76.5t66.5 71t91 52t110 20.5q51 0 87 -10t62.5 -25t46 -32t38.5 -32t39.5 -25t48.5 -10q31 0 59 9.5t51.5 23.5t42.5 31.5t32 32.5l109 -131q-10 -38 -36 -77.5t-64.5 -72t-88 -53.5t-106.5 -21q-49 0 -84 10t-62 25.5t-47.5 33t-40.5 33t-42 25.5 t-51 10q-30 0 -56.5 -9.5t-49.5 -23.5t-41.5 -31.5t-31.5 -33.5z" />
<glyph unicode="&#x2dd;" horiz-adv-x="1035" d="M9 1361q26 36 57.5 82t63.5 95.5t63 98.5t56 89.5t43 69t24 37.5l209 -139q-17 -36 -45 -78t-62.5 -85.5t-72 -85.5t-74 -78t-68.5 -63.5t-55 -40.5zM521 1361q21 28 50.5 70t62 90t65.5 97.5t61.5 91.5t49 73t27.5 41l206 -139q-16 -35 -44 -76t-63 -83.5t-74 -84 t-76 -77t-70.5 -62t-56.5 -39.5z" />
<glyph unicode="&#x3c0;" horiz-adv-x="1585" d="M131 124q14 3 39 14.5t51 30.5q42 34 67.5 71.5t40.5 78t22.5 82.5t12.5 86l44 379h-69q-40 0 -68.5 -7t-50 -18t-38 -25.5t-32.5 -30.5l-124 91q1 13 4.5 32.5t9.5 41.5t15.5 44t22.5 42q20 24 45 43t59.5 32.5t81 21t110.5 7.5h866q62 0 97.5 17t49.5 58h174 q-2 -94 -22 -160.5t-60 -108.5t-101 -61t-144 -19h-16l-14 -543q-2 -32 3.5 -53t15 -33t23 -16.5t27.5 -4.5q22 0 44 11t42.5 27.5t39 36t33.5 36.5l105 -101q-21 -43 -60 -87.5t-93.5 -80.5t-122 -59t-144.5 -23q-59 0 -105.5 16.5t-76.5 52t-42.5 91.5t-4.5 134l56 596 h-250l-24 -477q-5 -79 -16 -132.5t-29 -92t-43.5 -66.5t-59.5 -57q-31 -23 -80 -42t-115 -23l-196 148v0z" />
<glyph unicode="&#x1e0b;" horiz-adv-x="1355" d="M533 -16q-91 0 -173 33t-143.5 100.5t-97.5 169.5t-36 241q0 144 41 260t117 198t182.5 126t237.5 44q60 0 107 -7.5t81 -17.5l-3 113v419h353v-1679h-261q-34 0 -49.5 17.5t-15.5 48.5v65q-20 -20 -49.5 -42.5t-70.5 -42.5t-95.5 -33t-124.5 -13zM656 244q28 0 56 6 t53 15t46 20t35 22v568q-42 39 -162 39q-52 0 -95 -23.5t-73.5 -70t-48 -115.5t-17.5 -160q-1 -155 52.5 -228t153.5 -73zM417 1285q-43 0 -79.5 13.5t-63 38t-41.5 58.5t-15 75t17.5 77.5t47.5 63.5t69 42.5t82 15.5q45 0 81 -13.5t61.5 -37.5t39.5 -57.5t14 -74.5 t-17 -77.5t-46 -64t-68 -43.5t-82 -16z" />
<glyph unicode="&#x1e1e;" horiz-adv-x="1146" d="M665 1613q-86 0 -136.5 43t-50.5 125q0 41 15.5 75t43 58t65 37t80.5 13q90 0 137.5 -42.5t47.5 -124.5q0 -41 -15.5 -75t-42.5 -58t-64 -37.5t-80 -13.5zM171 1522h939v-269h-579v-391h450v-266h-450v-596h-360v1522z" />
<glyph unicode="&#x1e9e;" horiz-adv-x="1517" d="M103 753q0 183 47.5 328.5t141 247t231.5 155.5t319 54q102 0 185 -15t149.5 -33t118 -33t89.5 -15l-1 -245l-253 -299q36 0 77.5 -11.5t82.5 -34t78.5 -57t66.5 -81t46 -105t17 -129.5q0 -111 -36.5 -203.5t-104 -159t-164 -103.5t-215.5 -37q-80 0 -140.5 7t-106.5 18 t-80 25.5t-62 29.5l87 229q17 -12 42 -25.5t56.5 -24.5t67.5 -18t75 -7q43 0 85.5 14t77 44t56 76.5t21.5 111.5q0 71 -22 122.5t-70.5 84.5t-125 48.5t-185.5 15.5l5 166l283 370q-32 19 -81.5 30.5t-112.5 11.5q-193 0 -299 -109t-106 -329v-868h-340v753z" />
<glyph unicode="&#x2002;" horiz-adv-x="0" />
<glyph unicode="&#x2009;" horiz-adv-x="0" />
<glyph unicode="&#x200b;" horiz-adv-x="0" />
<glyph unicode="&#x200c;" horiz-adv-x="0" />
<glyph unicode="&#x2013;" horiz-adv-x="1705" d="M247 898h1212v-261h-1212v261z" />
<glyph unicode="&#x2014;" horiz-adv-x="2395" d="M247 898h1901v-261h-1901v261z" />
<glyph unicode="&#x2018;" horiz-adv-x="631" d="M323 916q-35 13 -71 46.5t-65.5 84t-48.5 117t-19 145.5q0 105 23 183.5t55 133.5t67 88.5t58 48.5l149 -90v-32q-26 -28 -44.5 -92t-18.5 -152q0 -48 9.5 -88.5t24 -71t32 -50.5t33.5 -28v-79l-184 -164v0z" />
<glyph unicode="&#x2019;" horiz-adv-x="631" d="M165 1006v32q21 28 37.5 92t16.5 152q0 49 -9 90t-22.5 72t-29.5 51.5t-30 29.5v78l203 160q30 -13 61 -43t56.5 -76.5t42 -109t16.5 -141.5q0 -112 -23 -195t-55 -140.5t-65.5 -92t-55.5 -49.5z" />
<glyph unicode="&#x201a;" horiz-adv-x="631" d="M165 -453v32q21 28 37.5 92t16.5 152q0 49 -9 90t-22.5 72t-29.5 51.5t-30 29.5v78l203 160q30 -13 61 -43t56.5 -76.5t42 -109t16.5 -141.5q0 -112 -23 -195t-55 -140.5t-65.5 -92t-55.5 -49.5z" />
<glyph unicode="&#x201b;" horiz-adv-x="631" d="M322 916q-23 15 -58 48.5t-67 88.5t-55 133.5t-23 183.5q0 79 19 145.5t48.5 117t65.5 84t71 46.5l184 -164v-78q-16 -9 -33.5 -29t-32 -50.5t-24 -71t-9.5 -88.5q0 -88 18.5 -152t44.5 -92v-32l-149 -90v0z" />
<glyph unicode="&#x201c;" horiz-adv-x="1185" d="M323 916q-35 13 -71 46.5t-65.5 84t-48.5 117t-19 145.5q0 105 23 183.5t55 133.5t67 88.5t58 48.5l149 -90v-32q-26 -28 -44.5 -92t-18.5 -152q0 -48 9.5 -88.5t24 -71t32 -50.5t33.5 -28v-79l-184 -164v0zM879 916q-35 13 -71 46.5t-65.5 84t-48.5 117t-19 145.5 q0 105 23 183.5t55 133.5t67 88.5t58 48.5l149 -90v-32q-26 -28 -44.5 -92t-18.5 -152q0 -48 9.5 -88.5t24 -71t32 -50.5t33.5 -28v-79l-184 -164v0z" />
<glyph unicode="&#x201d;" horiz-adv-x="1191" d="M165 1006v32q21 28 37.5 92t16.5 152q0 49 -9 90t-22.5 72t-29.5 51.5t-30 29.5v78l203 160q30 -13 61 -43t56.5 -76.5t42 -109t16.5 -141.5q0 -112 -23 -195t-55 -140.5t-65.5 -92t-55.5 -49.5zM727 1006v32q21 28 37.5 92t16.5 152q0 49 -9 90t-22.5 72t-29.5 51.5 t-30 29.5v78l203 160q30 -13 61 -43t56.5 -76.5t42 -109t16.5 -141.5q0 -112 -23 -195t-55 -140.5t-65.5 -92t-55.5 -49.5z" />
<glyph unicode="&#x201e;" horiz-adv-x="1180" d="M165 -447v32q21 28 37.5 92t16.5 152q0 49 -9 90t-22.5 72t-29.5 51.5t-30 29.5v78l203 160q30 -13 61 -43t56.5 -76.5t42 -109t16.5 -141.5q0 -112 -23 -195t-55 -140.5t-65.5 -92t-55.5 -49.5zM714 -447v32q21 28 37.5 92t16.5 152q0 49 -9 90t-22.5 72t-29.5 51.5 t-30 29.5v78l203 160q30 -13 61 -43t56.5 -76.5t42 -109t16.5 -141.5q0 -112 -23 -195t-55 -140.5t-65.5 -92t-55.5 -49.5z" />
<glyph unicode="&#x2020;" horiz-adv-x="1028" d="M373 1049h-280l1 239l279 -1l-1 371h284l-1 -371l280 1v-239h-280l-15 -849h-252z" />
<glyph unicode="&#x2022;" horiz-adv-x="891" d="M436 444q-60 0 -111 21t-88 58t-57.5 87.5t-20.5 109.5q1 59 25 112t65 93.5t95 64.5t114 24t110.5 -20.5t87 -57.5t56.5 -87t19 -110q0 -59 -23.5 -112.5t-64 -94t-94 -64.5t-113.5 -24z" />
<glyph unicode="&#x2026;" horiz-adv-x="2093" d="M1541 178q0 43 16 82t45 69t68 47.5t84 17.5t81 -15t61 -42t38.5 -63.5t13.5 -78.5q0 -44 -16 -83t-44.5 -69t-67 -47.5t-83.5 -17.5q-43 0 -79 15t-62 42t-40.5 63.5t-14.5 79.5zM843 178q0 43 16.5 82t45 69t67.5 47.5t84 17.5t81 -15t61 -42t38.5 -63.5t13.5 -78.5 q0 -44 -16 -83t-44.5 -69t-67 -47.5t-83.5 -17.5q-43 0 -79 15t-62 42t-40.5 63.5t-14.5 79.5zM145 178q0 43 16.5 82t45.5 69t67.5 47.5t83.5 17.5t81 -15t61 -42t38.5 -63.5t13.5 -78.5q0 -44 -16 -83t-44.5 -69t-67 -47.5t-83.5 -17.5q-43 0 -79 15t-62 42t-40.5 63.5 t-14.5 79.5z" />
<glyph unicode="&#x2030;" horiz-adv-x="3171" d="M2223 470q0 113 37 200t99.5 146.5t143.5 90.5t169 32q108 1 186.5 -35t129 -99t74.5 -148t24 -182q0 -113 -37.5 -200t-99.5 -146.5t-143 -90.5t-169 -32q-107 -1 -185 35t-129 99t-75.5 148t-24.5 182zM2496 479q0 -56 10.5 -101.5t30.5 -77.5t49 -50t66 -18 q78 0 119 62.5t41 173.5q0 55 -10.5 101t-30.5 78.5t-49 50.5t-66 18q-78 0 -119 -63t-41 -174zM1262 1530h273l-568 -1530h-271zM477 590q-107 -1 -184 35t-126.5 99t-73.5 148t-24 182q0 113 36.5 200t97.5 146.5t141 90.5t168 32q108 1 185.5 -35t127 -99t73 -148 t23.5 -182q0 -113 -36.5 -200t-98 -146.5t-141.5 -90.5t-168 -32zM492 816q78 0 119 62.5t41 173.5q0 56 -10.5 101.5t-30.5 78t-49 50.5t-66 18q-78 0 -116 -63t-38 -174q0 -55 9.5 -100.5t28.5 -78t47 -50.5t65 -18zM1312 470q0 113 36.5 200t98 146.5t141.5 90.5t168 32 q108 1 185.5 -35t127 -99t72.5 -148t23 -182q0 -113 -36.5 -200t-97.5 -146.5t-141 -90.5t-168 -32q-107 -1 -184 35t-127 99t-74 148t-24 182zM1586 479q0 -56 9.5 -101.5t28.5 -77.5t47 -50t65 -18q78 0 119 62.5t41 173.5q0 55 -10.5 101t-30.5 78.5t-49 50.5t-66 18 q-78 0 -116 -63t-38 -174z" />
<glyph unicode="&#x2032;" horiz-adv-x="684" d="M258 1845h333l-183 -655h-266z" />
<glyph unicode="&#x2033;" horiz-adv-x="1182" d="M258 1845h333l-183 -655h-266zM755 1845h333l-183 -655h-266z" />
<glyph unicode="&#x2039;" horiz-adv-x="1206" d="M219 752l662 418l83 -244l-405 -311l405 -310l-83 -245l-662 417v275z" />
<glyph unicode="&#x203a;" horiz-adv-x="1206" d="M985.014 752l-661.96 418l-82.9951 -244l404.976 -311l-404.976 -310l82.9951 -245l661.96 417v275z" />
<glyph unicode="&#x2044;" horiz-adv-x="383" d="M-316 -171l713 1832l195 -17l-712 -1829z" />
<glyph unicode="&#x2070;" d="M514 677q-85 0 -151 23.5t-116 64.5t-84.5 96.5t-55.5 119.5t-30.5 134.5t-8.5 140.5q1 123 38 226t99.5 177t147 115t181.5 41q88 0 156 -21.5t117.5 -59.5t83.5 -91t54 -116t28.5 -133.5t7.5 -144.5q-1 -119 -35.5 -223.5t-96 -182t-147 -122t-188.5 -44.5zM521 859 q54 0 91 28.5t60 79.5t33.5 121.5t10.5 153.5q0 81 -9.5 151.5t-32 123t-59.5 83t-92 30.5q-51 0 -87 -27.5t-59 -76t-33.5 -116t-10.5 -147.5q0 -77 9.5 -149.5t31.5 -129t58 -91t89 -34.5z" />
<glyph unicode="&#x2074;" d="M21 982q8 16 26.5 53.5t44 89t56 114t62.5 129.5t64 134.5t60.5 129.5t51.5 115t38 90h252l40 -70l-363 -649l-47 -71l280 11l37 253l210 1v-243l164 10v-191h-164v-199h-250v199h-492z" />
<glyph unicode="&#x2075;" d="M187 871q11 -2 32.5 -5t46.5 -5.5t48.5 -4.5t39.5 -2q60 0 110.5 15t88 41.5t58.5 63.5t21 82q0 38 -10.5 66.5t-33.5 47t-61 27.5t-93 9q-27 0 -52.5 -3.5t-47 -8.5t-38 -10.5t-26.5 -9.5l-117 73l60 561h679v-205h-491l-39 -241q38 14 86 23t124 9q96 0 163.5 -23.5 t109.5 -65t61.5 -97.5t19.5 -122q0 -84 -38.5 -158.5t-111 -130t-176 -88t-233.5 -32.5q-27 0 -59 3t-63 8t-59 10t-48 10z" />
<glyph unicode="&#x2076;" d="M505 677q-99 0 -177 33.5t-132.5 94t-83.5 144t-29 182.5q0 148 52 268.5t140.5 210.5t206.5 147t251 77l76 -124q-159 -47 -259.5 -128t-151.5 -194q38 23 93 40t133 17q76 0 136.5 -26t103.5 -73.5t66 -114.5t23 -148t-33.5 -155t-93 -129.5t-141.5 -88.5t-180 -33z M521 836q45 0 76.5 19t51 49t28.5 66.5t9 71.5q0 71 -14 118.5t-38 75.5t-56 39.5t-67 11.5q-36 0 -61 -4.5t-42.5 -12t-30 -16.5t-24.5 -19q-3 -19 -6 -37.5t-3 -36.5q-1 -60 6.5 -118.5t27.5 -104.5t55 -74t88 -28z" />
<glyph unicode="&#x2077;" d="M266 727q122 198 244 417.5t242 433.5h-607v230h830l50 -63l-478 -1094l-281 76v0z" />
<glyph unicode="&#x2078;" d="M518 677q-74 0 -150.5 16t-138.5 51.5t-101 91.5t-39 136q0 36 11 75t34.5 74t60 63.5t88.5 45.5q-33 22 -60.5 51.5t-47.5 66.5t-31.5 81.5t-11.5 96.5q0 72 34 126t88.5 90.5t124 54.5t140.5 18q91 0 161.5 -18.5t117.5 -52.5t71.5 -80.5t24.5 -103.5q0 -35 -6.5 -71.5 t-25 -72.5t-50.5 -69t-83 -60q44 -22 85.5 -48.5t73 -60.5t51 -78t19.5 -100q1 -74 -34 -134t-95 -102t-140.5 -64.5t-170.5 -22.5zM612 1338q21 18 36.5 41.5t26 48t16 48.5t5.5 44q0 69 -43.5 110t-127.5 41q-68 0 -107.5 -34t-39.5 -84q0 -37 19.5 -68t51.5 -57 t74.5 -48.5t88.5 -41.5zM517 833q33 0 61 10t48 27t31 39.5t11 48.5q0 45 -24 74.5t-63 52.5t-89.5 42.5t-104.5 44.5q-36 -31 -55.5 -73t-19.5 -90q0 -38 11.5 -70t36 -55.5t63.5 -37t94 -13.5z" />
<glyph unicode="&#x2079;" d="M209 753q77 22 144 56t122 77.5t96 95t67 108.5q-18 -11 -35.5 -21t-38.5 -17.5t-48 -11.5t-65 -4q-76 0 -141.5 28t-113.5 78t-75.5 119t-27.5 150q0 89 30.5 163t88.5 127.5t140.5 83.5t187.5 30q99 0 177 -33.5t133 -93.5t84 -143t29 -182q0 -108 -27 -203t-73 -174 t-108 -142.5t-132 -108.5t-144.5 -72t-145.5 -33zM514 1193q70 0 109.5 15t62.5 35q7 46 9 90q1 60 -5.5 118t-25.5 103.5t-53 73.5t-87 28q-45 0 -76 -18.5t-49.5 -48t-27 -66t-8.5 -71.5q0 -71 13 -120.5t34.5 -80.5t48.5 -44.5t55 -13.5z" />
<glyph unicode="&#x2080;" d="M514 -204q-85 0 -151 23.5t-116 64.5t-84.5 96.5t-55.5 119.5t-30.5 134.5t-8.5 140.5q1 123 38 226t99.5 177t147 115t181.5 41q88 0 156 -21.5t117.5 -59.5t83.5 -91t54 -116t28.5 -133.5t7.5 -144.5q-1 -119 -35.5 -223.5t-96 -182t-147 -122t-188.5 -44.5zM521 -22 q54 0 91 28.5t60 79.5t33.5 121.5t10.5 153.5q0 81 -9.5 151.5t-32 123t-59.5 83t-92 30.5q-51 0 -87 -27.5t-59 -76t-33.5 -116t-10.5 -147.5q0 -77 9.5 -149.5t31.5 -129t58 -91t89 -34.5z" />
<glyph unicode="&#x2081;" d="M129 7h284v642q-25 -6 -60 -13.5t-72.5 -13.5t-74 -11t-66.5 -6l-36 166q48 12 101.5 27.5t106.5 36t104 47t95 60.5h4l177 -15v-920h256v-199h-819v199z" />
<glyph unicode="&#x2082;" d="M76 -51q59 34 121.5 79.5t123 98.5t114.5 112t95 119t65 119t24 113q0 39 -11 64.5t-32.5 41.5t-53 22.5t-71.5 6.5q-41 0 -78 -10t-68 -25t-55 -32t-38 -30l-111 126q19 27 60 58.5t97 58.5t123 45t139 18q114 0 189 -27.5t119.5 -72.5t62.5 -103.5t18 -119.5 q0 -96 -41.5 -183.5t-112.5 -166.5t-165 -149t-199 -130l559 54l3 -228h-824z" />
<glyph unicode="&#x2083;" d="M151 36q48 -20 104 -34.5t107 -14.5q64 0 115 7.5t87 26.5t55 49.5t19 77.5q0 64 -47 102t-155 39l-94 -33l-48 170q14 2 33 6.5t39.5 10t40.5 12.5t37 14q71 33 101.5 72.5t30.5 87.5q0 24 -7 44.5t-23.5 35t-45 23t-71.5 8.5q-29 0 -60 -7.5t-60.5 -21t-56.5 -32.5 t-48 -41l-89 161q22 21 65 44.5t97 44t113 33.5t113 13q87 0 154 -21t113 -57t69.5 -84.5t23.5 -104.5q0 -39 -11.5 -80t-40.5 -80t-78 -72.5t-124 -56.5q93 5 155.5 -17t100.5 -60t54 -86t16 -95q0 -70 -33.5 -129t-98 -102.5t-158 -68t-213.5 -24.5q-34 0 -71.5 4 t-75 11.5t-72.5 18t-62 22.5v184z" />
<glyph unicode="&#x2084;" d="M21 94q8 16 26.5 53.5t44 89t56 114t62.5 129.5t64 134.5t60.5 129.5t51.5 115t38 90h252l40 -70l-363 -649l-47 -71l280 11l37 253l210 1v-243l164 10v-191h-164v-199h-250v199h-492z" />
<glyph unicode="&#x2085;" d="M187 -10q11 -2 32.5 -5t46.5 -5.5t48.5 -4.5t39.5 -2q60 0 110.5 15t88 41.5t58.5 63.5t21 82q0 38 -10.5 66.5t-33.5 47t-61 27.5t-93 9q-27 0 -52.5 -3.5t-47 -8.5t-38 -10.5t-26.5 -9.5l-117 73l60 561h679v-205h-491l-39 -241q38 14 86 23t124 9q96 0 163.5 -23.5 t109.5 -65t61.5 -97.5t19.5 -122q0 -84 -38.5 -158.5t-111 -130t-176 -88t-233.5 -32.5q-27 0 -59 3t-63 8t-59 10t-48 10z" />
<glyph unicode="&#x2086;" d="M505 -204q-99 0 -177 33.5t-132.5 94t-83.5 144t-29 182.5q0 148 52 268.5t140.5 210.5t206.5 147t251 77l76 -124q-159 -47 -259.5 -128t-151.5 -194q38 23 93 40t133 17q76 0 136.5 -26t103.5 -73.5t66 -114.5t23 -148t-33.5 -155t-93 -129.5t-141.5 -88.5t-180 -33z M521 -45q45 0 76.5 19t51 49t28.5 66.5t9 71.5q0 71 -14 118.5t-38 75.5t-56 39.5t-67 11.5q-36 0 -61 -4.5t-42.5 -12t-30 -16.5t-24.5 -19q-3 -19 -6 -37.5t-3 -36.5q-1 -60 6.5 -118.5t27.5 -104.5t55 -74t88 -28z" />
<glyph unicode="&#x2087;" d="M266 -154q122 198 244 417.5t242 433.5h-607v230h830l50 -63l-478 -1094l-281 76v0z" />
<glyph unicode="&#x2088;" d="M518 -204q-74 0 -150.5 16t-138.5 51.5t-101 91.5t-39 136q0 36 11 75t34.5 74t60 63.5t88.5 45.5q-33 22 -60.5 51.5t-47.5 66.5t-31.5 81.5t-11.5 96.5q0 72 34 126t88.5 90.5t124 54.5t140.5 18q91 0 161.5 -18.5t117.5 -52.5t71.5 -80.5t24.5 -103.5 q0 -35 -6.5 -71.5t-25 -72.5t-50.5 -69t-83 -60q44 -22 85.5 -48.5t73 -60.5t51 -78t19.5 -100q1 -74 -34 -134t-95 -102t-140.5 -64.5t-170.5 -22.5zM612 457q21 18 36.5 41.5t26 48t16 48.5t5.5 44q0 69 -43.5 110t-127.5 41q-68 0 -107.5 -34t-39.5 -84q0 -37 19.5 -68 t51.5 -57t74.5 -48.5t88.5 -41.5zM517 -48q33 0 61 10t48 27t31 39.5t11 48.5q0 45 -24 74.5t-63 52.5t-89.5 42.5t-104.5 44.5q-36 -31 -55.5 -73t-19.5 -90q0 -38 11.5 -70t36 -55.5t63.5 -37t94 -13.5z" />
<glyph unicode="&#x2089;" d="M209 -128q77 22 144 56t122 77.5t96 95t67 108.5q-18 -11 -35.5 -21t-38.5 -17.5t-48 -11.5t-65 -4q-76 0 -141.5 28t-113.5 78t-75.5 119t-27.5 150q0 89 30.5 163t88.5 127.5t140.5 83.5t187.5 30q99 0 177 -33.5t133 -93.5t84 -143t29 -182q0 -108 -27 -203t-73 -174 t-108 -142.5t-132 -108.5t-144.5 -72t-145.5 -33zM514 312q70 0 109.5 15t62.5 35q7 46 9 90q1 60 -5.5 118t-25.5 103.5t-53 73.5t-87 28q-45 0 -76 -18.5t-49.5 -48t-27 -66t-8.5 -71.5q0 -71 13 -120.5t34.5 -80.5t48.5 -44.5t55 -13.5z" />
<glyph unicode="&#x20a1;" horiz-adv-x="1438" d="M599 26q-123 36 -216.5 102.5t-157 159.5t-95.5 211t-32 258q0 162 45 290.5t125 223.5t190 156.5t240 88.5l20 299h117l-19 -282q25 2 50 3.5t51 1.5h18t18 -1l19 278h117l-19 -286q84 -11 138 -26.5t94 -25.5l-46 -312q-9 6 -25.5 16.5t-41.5 21.5t-59.5 21t-78.5 16 l-65 -973q46 3 91.5 12t85 22.5t70.5 30t49 32.5v-300q-25 -11 -57 -23.5t-71 -23.5t-85.5 -19.5t-101.5 -11.5l-22 -340h-117l22 340q-35 2 -69.5 5.5t-66.5 8.5l-23 -354h-117zM734 304q62 -24 135 -33l65 975q-74 -2 -138 -18zM675 1179q-95 -57 -148.5 -157.5 t-53.5 -242.5q0 -133 37 -235.5t112 -169.5z" />
<glyph unicode="&#x20a4;" horiz-adv-x="1596" d="M113 112q0 42 22.5 75.5t60 57.5t84.5 38.5t97 17.5q10 11 16 35t9.5 55t4.5 66.5t1 69.5v49h-199v150h199v118h-177v150h177v43q0 111 39 203.5t112.5 158.5t179 102.5t239.5 36.5q78 0 138.5 -10t106.5 -26t79 -34.5t56 -35.5l-144 -257q-15 15 -39 30t-54 27t-66.5 20 t-77.5 8q-52 0 -92.5 -11t-68 -40.5t-42 -81t-14.5 -133.5h315v-150h-315v-118h293v-150h-294q-2 -103 -18 -182.5t-61 -121.5q36 -8 69.5 -19t68 -20.5t72.5 -16t84 -6.5q58 0 99.5 12t68.5 33t40 50t13 63q0 24 -8 46.5t-19.5 41t-24.5 31t-23 17.5l258 116q15 -9 41 -32 t50.5 -58t42.5 -82.5t18 -105.5q0 -80 -28 -146t-85.5 -113t-146.5 -73t-212 -26q-111 0 -200.5 16t-160.5 35t-124.5 35t-93.5 16q-15 -14 -39 -30.5t-53 -30t-60.5 -22.5t-61.5 -9q-25 0 -52 6t-49 20t-36.5 36.5t-14.5 55.5z" />
<glyph unicode="&#x20ac;" horiz-adv-x="1499" d="M90 678h183v42q0 67 6 129h-163v188h195q66 239 231 365.5t413 135.5q84 3 143.5 -3.5t104 -17t78 -22t65.5 -18.5l-53 -275q-26 16 -52.5 28.5t-60 21t-77 13.5t-103.5 5q-57 0 -108.5 -14t-95 -42.5t-78 -72.5t-56.5 -104h497v-188h-533q-1 -13 -1 -25.5v-26.5 q0 -31 1 -60.5t3 -58.5h492v-189h-458q19 -59 48 -106.5t71 -80.5t97.5 -51t127.5 -18q48 0 93.5 6t86 16.5t74 25t57.5 30.5l60 -266q-32 -5 -62.5 -16.5t-76 -24.5t-113.5 -22.5t-174 -9.5q-141 0 -252 35.5t-192.5 102t-134.5 162.5t-78 217h-205v189z" />
<glyph unicode="&#x20b2;" horiz-adv-x="1525" d="M682 -6q-137 20 -248.5 81t-190.5 158t-122 228t-43 292q0 187 48.5 325.5t134.5 233t203.5 148t254.5 70.5v232h207v-226q64 -3 116 -10t96 -15.5t81.5 -17.5t73.5 -16l-10 -303q-57 31 -161 56.5t-253 25.5q-99 0 -177.5 -32.5t-132.5 -94t-83 -150t-29 -199.5 q0 -116 25 -213t73 -167.5t117.5 -109.5t158.5 -39q74 0 133.5 9t93.5 29v282l-230 18v252h558v-754q-30 -1 -57.5 -8.5t-57.5 -17.5t-65 -22t-79 -22.5t-100 -19t-128 -11.5l-2 -244h-207l2 252v0z" />
<glyph unicode="&#x20b5;" horiz-adv-x="1468" d="M685 1q-140 26 -247.5 89.5t-180.5 160.5t-110 224.5t-37 281.5q0 186 55.5 327.5t152.5 239t226.5 150.5t278.5 62l25 279h147l-25 -280q58 -3 103 -10.5t81 -16t64 -17t52 -14.5l-47 -312q-10 8 -31.5 21t-55.5 25.5t-82 22.5t-110 12l-87 -977q30 -3 62 -3 q51 0 101.5 8.5t95 22.5t79.5 31.5t54 35.5l1 -300q-29 -12 -65 -26t-82 -26t-101.5 -20t-121.5 -8q-13 0 -25 0.5t-24 0.5l-30 -339h-147zM796 1233q-71 -17 -128 -55t-98 -95.5t-63 -133.5t-22 -170q0 -172 56.5 -293t171.5 -177z" />
<glyph unicode="&#x2105;" horiz-adv-x="2227" d="M579 637q-109 0 -190.5 34t-136 94t-81.5 142.5t-27 179.5q0 96 29 180t86.5 146.5t142 98.5t195.5 36q109 0 176 -14.5t87 -31.5l-38 -222q-9 5 -26 12.5t-42 15t-57 13t-69 5.5q-38 0 -70 -12.5t-55.5 -39.5t-37 -69.5t-13.5 -102.5q0 -68 13 -115t37 -75.5t59 -41 t80 -12.5q37 0 66 5t51.5 12t40.5 15t35 14l35 -172q-17 -19 -46 -36t-67 -30t-83 -21t-94 -8zM1262 1530h273l-568 -1530h-271zM1312 470q0 113 36.5 200t98 146.5t141.5 90.5t168 32q108 1 185.5 -35t127 -99t72.5 -148t23 -182q0 -113 -36.5 -200t-97.5 -146.5 t-141 -90.5t-168 -32q-107 -1 -184 35t-127 99t-74 148t-24 182zM1586 479q0 -56 9.5 -101.5t28.5 -77.5t47 -50t65 -18q78 0 119 62.5t41 173.5q0 55 -10.5 101t-30.5 78.5t-49 50.5t-66 18q-78 0 -116 -63t-38 -174z" />
<glyph unicode="&#x2113;" horiz-adv-x="1322" d="M-45 188q76 45 154 99.5t156 115.5q-6 51 -6 108q0 138 22 278.5t63.5 270t100 242t131.5 196t158.5 131.5t181.5 48q141 0 218 -76.5t79 -237.5q1 -132 -46.5 -268.5t-132.5 -271.5t-201.5 -265t-251.5 -250q17 -39 45.5 -61.5t72.5 -22.5q42 0 77.5 22.5t65.5 60 t56.5 85.5t51.5 99l243 -78q-11 -32 -32.5 -76.5t-53.5 -93.5t-75.5 -97.5t-98.5 -87t-122.5 -62.5t-147.5 -24q-39 0 -79.5 9.5t-79.5 29t-74.5 50t-65.5 71.5q-78 -60 -159 -114zM559 670q78 82 144 166t113.5 167.5t74 163t25.5 152.5q0 13 -2 27.5t-7.5 26.5t-14 19.5 t-22.5 7.5q-27 0 -58 -30.5t-62.5 -83t-61 -123t-55 -151.5t-45 -168.5t-29.5 -173.5z" />
<glyph unicode="&#x2116;" horiz-adv-x="2704" d="M1577 979q2 132 41 235t110 173t172.5 106.5t229.5 36.5q139 0 237 -44.5t160 -121t90 -178.5t27 -218q-1 -131 -38 -236.5t-106 -179.5t-167 -114t-222 -40q-107 0 -188.5 22t-141.5 61t-99.5 93t-63 118.5t-33 137.5t-8.5 149zM169 1522h317l525 -844l95 -207l-33 307 v744h308v-1522h-327l-496 824l-109 231l39 -333v-722h-319v1522zM1915 974q0 -173 50 -261.5t150 -89.5q102 -1 147 84t45 259q0 163 -46 249t-143 86q-203 1 -203 -327zM1657 234h929v-234h-929v234z" />
<glyph unicode="&#x2120;" horiz-adv-x="2220" d="M225 983q11 -6 32.5 -17t50 -21.5t63 -17.5t72.5 -7q20 0 40.5 2.5t37 9t27 18t10.5 29.5q0 21 -11.5 37t-34 30t-57 29t-79.5 35q-45 19 -75.5 39.5t-50 47t-28 59.5t-8.5 76q0 45 21 83.5t61.5 67t99 44.5t133.5 16q53 0 96.5 -4.5t76.5 -11t55.5 -14t32.5 -12.5 l-32 -162q-8 9 -26 19t-41.5 18t-48.5 13t-47 5q-41 0 -68 -5t-44 -13t-24 -18t-7 -20q0 -17 6 -29.5t20.5 -24t39 -22.5t62.5 -25q54 -19 97 -40.5t73 -49t46 -63.5t16 -84q0 -43 -17 -86.5t-53.5 -79t-93.5 -57.5t-136 -22q-46 0 -96 6.5t-94 15.5t-76.5 19t-43.5 17z M1000 1532h371l100 -317l37 -149l30 149l96 317h365l74 -765h-234l-35 460l-7 123l-55 -169l-139 -415h-172l-159 415l-62 169l-3 -123l-13 -460h-238z" />
<glyph unicode="&#x2122;" horiz-adv-x="2220" d="M1000 1543h371l100 -328l37 -149l30 149l96 328h365l74 -776h-234l-35 460l-7 125l-55 -171l-139 -415h-172l-159 415l-62 171l-3 -125l-13 -460h-238zM377 1339h-243l-1 204h729v-204h-250v-572h-235v572z" />
<glyph unicode="&#x2126;" horiz-adv-x="1814" d="M166 236h318q-59 44 -116.5 108.5t-102.5 144.5t-72.5 175t-27.5 201q1 120 30.5 217t82 172.5t123 130.5t153.5 90.5t174 52.5t184 17q157 0 290 -40.5t230 -125t152 -213.5t55 -306q0 -101 -25 -194t-68 -173.5t-100 -145.5t-121 -111h338v-236h-640v215q37 21 82.5 73 t84.5 131t65.5 184t26.5 232q0 123 -31 210t-82.5 142t-118 80t-138.5 25q-78 0 -148 -24.5t-123.5 -79t-85 -141t-31.5 -210.5q0 -127 30 -232t73.5 -184.5t93.5 -132t89 -73.5v-215h-644v236z" />
<glyph unicode="&#x212e;" horiz-adv-x="1375" d="M432 238q60 -58 140.5 -82t174.5 -24q60 0 115.5 10.5t104 27t87.5 35.5t66 37l60 -138q-32 -23 -81 -44.5t-108 -38.5t-125 -27t-132 -10q-149 0 -266 47t-197.5 135.5t-123 216t-42.5 288.5q0 147 38.5 271.5t116 215.5t195.5 143t277 55q110 2 206 -33.5t168.5 -103.5 t116 -166t47.5 -221q0 -65 -1.5 -120.5t-9.5 -93.5h-827v-380zM957 768v376q-40 30 -98.5 47t-139.5 17q-88 0 -160.5 -25.5t-126.5 -82.5v-332h525z" />
<glyph unicode="&#x2153;" horiz-adv-x="2481" d="M129 742h284v642q-25 -6 -60 -13.5t-72.5 -13.5t-74 -11t-66.5 -6l-36 166q48 12 101.5 27.5t106.5 36t104 47t95 60.5h4l177 -15v-920h256v-199h-819v199zM733 -171l713 1832l195 -17l-712 -1829zM1583 228q48 -20 104 -34.5t107 -14.5q64 0 115 7.5t87 26.5t55 49.5 t19 77.5q0 64 -47 102t-155 39l-94 -33l-48 170q14 2 33 6.5t39.5 10t40.5 12.5t37 14q71 33 101.5 72.5t30.5 87.5q0 24 -7 44.5t-23.5 35t-45 23t-71.5 8.5q-29 0 -60 -7.5t-60.5 -21t-56.5 -32.5t-48 -41l-89 161q22 21 65 44.5t97 44t113 33.5t113 13q87 0 154 -21 t113 -57t69.5 -84.5t23.5 -104.5q0 -39 -11.5 -80t-40.5 -80t-78 -72.5t-124 -56.5q93 5 155.5 -17t100.5 -60t54 -86t16 -95q0 -70 -33.5 -129t-98 -102.5t-158 -68t-213.5 -24.5q-34 0 -71.5 4t-75 11.5t-72.5 18t-62 22.5v184z" />
<glyph unicode="&#x2154;" horiz-adv-x="2481" d="M76 684q59 34 121.5 79.5t123 98.5t114.5 112t95 119t65 119t24 113q0 39 -11 64.5t-32.5 41.5t-53 22.5t-71.5 6.5q-41 0 -78 -10t-68 -25t-55 -32t-38 -30l-111 126q19 27 60 58.5t97 58.5t123 45t139 18q114 0 189 -27.5t119.5 -72.5t62.5 -103.5t18 -119.5 q0 -96 -41.5 -183.5t-112.5 -166.5t-165 -149t-199 -130l559 54l3 -228h-824zM733 -171l713 1832l195 -17l-712 -1829zM1950 -12q-74 0 -150.5 16t-138.5 51.5t-101 91.5t-39 136q0 36 11 75t34.5 74t60 63.5t88.5 45.5q-33 22 -60.5 51.5t-47.5 66.5t-31.5 81.5t-11.5 96.5 q0 72 34 126t88.5 90.5t124 54.5t140.5 18q91 0 161.5 -18.5t117.5 -52.5t71.5 -80.5t24.5 -103.5q0 -35 -6.5 -71.5t-25 -72.5t-50.5 -69t-83 -60q44 -22 85.5 -48.5t73 -60.5t51 -78t19.5 -100q1 -74 -34 -134t-95 -102t-140.5 -64.5t-170.5 -22.5zM2044 649 q21 18 36.5 41.5t26 48t16 48.5t5.5 44q0 69 -43.5 110t-127.5 41q-68 0 -107.5 -34t-39.5 -84q0 -37 19.5 -68t51.5 -57t74.5 -48.5t88.5 -41.5zM1949 144q33 0 61 10t48 27t31 39.5t11 48.5q0 45 -24 74.5t-63 52.5t-89.5 42.5t-104.5 44.5q-36 -31 -55.5 -73t-19.5 -90 q0 -38 11.5 -70t36 -55.5t63.5 -37t94 -13.5z" />
<glyph unicode="&#x215b;" horiz-adv-x="2481" d="M129 742h284v642q-25 -6 -60 -13.5t-72.5 -13.5t-74 -11t-66.5 -6l-36 166q48 12 101.5 27.5t106.5 36t104 47t95 60.5h4l177 -15v-920h256v-199h-819v199zM733 -171l713 1832l195 -17l-712 -1829zM1950 -12q-74 0 -150.5 16t-138.5 51.5t-101 91.5t-39 136q0 36 11 75 t34.5 74t60 63.5t88.5 45.5q-33 22 -60.5 51.5t-47.5 66.5t-31.5 81.5t-11.5 96.5q0 72 34 126t88.5 90.5t124 54.5t140.5 18q91 0 161.5 -18.5t117.5 -52.5t71.5 -80.5t24.5 -103.5q0 -35 -6.5 -71.5t-25 -72.5t-50.5 -69t-83 -60q44 -22 85.5 -48.5t73 -60.5t51 -78 t19.5 -100q1 -74 -34 -134t-95 -102t-140.5 -64.5t-170.5 -22.5zM2044 649q21 18 36.5 41.5t26 48t16 48.5t5.5 44q0 69 -43.5 110t-127.5 41q-68 0 -107.5 -34t-39.5 -84q0 -37 19.5 -68t51.5 -57t74.5 -48.5t88.5 -41.5zM1949 144q33 0 61 10t48 27t31 39.5t11 48.5 q0 45 -24 74.5t-63 52.5t-89.5 42.5t-104.5 44.5q-36 -31 -55.5 -73t-19.5 -90q0 -38 11.5 -70t36 -55.5t63.5 -37t94 -13.5z" />
<glyph unicode="&#x215c;" horiz-adv-x="2481" d="M151 771q48 -20 104 -34.5t107 -14.5q64 0 115 7.5t87 26.5t55 49.5t19 77.5q0 64 -47 102t-155 39l-94 -33l-48 170q14 2 33 6.5t39.5 10t40.5 12.5t37 14q71 33 101.5 72.5t30.5 87.5q0 24 -7 44.5t-23.5 35t-45 23t-71.5 8.5q-29 0 -60 -7.5t-60.5 -21t-56.5 -32.5 t-48 -41l-89 161q22 21 65 44.5t97 44t113 33.5t113 13q87 0 154 -21t113 -57t69.5 -84.5t23.5 -104.5q0 -39 -11.5 -80t-40.5 -80t-78 -72.5t-124 -56.5q93 5 155.5 -17t100.5 -60t54 -86t16 -95q0 -70 -33.5 -129t-98 -102.5t-158 -68t-213.5 -24.5q-34 0 -71.5 4 t-75 11.5t-72.5 18t-62 22.5v184zM733 -171l713 1832l195 -17l-712 -1829zM1950 -12q-74 0 -150.5 16t-138.5 51.5t-101 91.5t-39 136q0 36 11 75t34.5 74t60 63.5t88.5 45.5q-33 22 -60.5 51.5t-47.5 66.5t-31.5 81.5t-11.5 96.5q0 72 34 126t88.5 90.5t124 54.5t140.5 18 q91 0 161.5 -18.5t117.5 -52.5t71.5 -80.5t24.5 -103.5q0 -35 -6.5 -71.5t-25 -72.5t-50.5 -69t-83 -60q44 -22 85.5 -48.5t73 -60.5t51 -78t19.5 -100q1 -74 -34 -134t-95 -102t-140.5 -64.5t-170.5 -22.5zM2044 649q21 18 36.5 41.5t26 48t16 48.5t5.5 44q0 69 -43.5 110 t-127.5 41q-68 0 -107.5 -34t-39.5 -84q0 -37 19.5 -68t51.5 -57t74.5 -48.5t88.5 -41.5zM1949 144q33 0 61 10t48 27t31 39.5t11 48.5q0 45 -24 74.5t-63 52.5t-89.5 42.5t-104.5 44.5q-36 -31 -55.5 -73t-19.5 -90q0 -38 11.5 -70t36 -55.5t63.5 -37t94 -13.5z" />
<glyph unicode="&#x215d;" horiz-adv-x="2481" d="M187 725q11 -2 32.5 -5t46.5 -5.5t48.5 -4.5t39.5 -2q60 0 110.5 15t88 41.5t58.5 63.5t21 82q0 38 -10.5 66.5t-33.5 47t-61 27.5t-93 9q-27 0 -52.5 -3.5t-47 -8.5t-38 -10.5t-26.5 -9.5l-117 73l60 561h679v-205h-491l-39 -241q38 14 86 23t124 9q96 0 163.5 -23.5 t109.5 -65t61.5 -97.5t19.5 -122q0 -84 -38.5 -158.5t-111 -130t-176 -88t-233.5 -32.5q-27 0 -59 3t-63 8t-59 10t-48 10zM733 -171l713 1832l195 -17l-712 -1829zM1950 -12q-74 0 -150.5 16t-138.5 51.5t-101 91.5t-39 136q0 36 11 75t34.5 74t60 63.5t88.5 45.5 q-33 22 -60.5 51.5t-47.5 66.5t-31.5 81.5t-11.5 96.5q0 72 34 126t88.5 90.5t124 54.5t140.5 18q91 0 161.5 -18.5t117.5 -52.5t71.5 -80.5t24.5 -103.5q0 -35 -6.5 -71.5t-25 -72.5t-50.5 -69t-83 -60q44 -22 85.5 -48.5t73 -60.5t51 -78t19.5 -100q1 -74 -34 -134 t-95 -102t-140.5 -64.5t-170.5 -22.5zM2044 649q21 18 36.5 41.5t26 48t16 48.5t5.5 44q0 69 -43.5 110t-127.5 41q-68 0 -107.5 -34t-39.5 -84q0 -37 19.5 -68t51.5 -57t74.5 -48.5t88.5 -41.5zM1949 144q33 0 61 10t48 27t31 39.5t11 48.5q0 45 -24 74.5t-63 52.5 t-89.5 42.5t-104.5 44.5q-36 -31 -55.5 -73t-19.5 -90q0 -38 11.5 -70t36 -55.5t63.5 -37t94 -13.5z" />
<glyph unicode="&#x215e;" horiz-adv-x="2481" d="M266 581q122 198 244 417.5t242 433.5h-607v230h830l50 -63l-478 -1094l-281 76v0zM733 -171l713 1832l195 -17l-712 -1829zM1950 -12q-74 0 -150.5 16t-138.5 51.5t-101 91.5t-39 136q0 36 11 75t34.5 74t60 63.5t88.5 45.5q-33 22 -60.5 51.5t-47.5 66.5t-31.5 81.5 t-11.5 96.5q0 72 34 126t88.5 90.5t124 54.5t140.5 18q91 0 161.5 -18.5t117.5 -52.5t71.5 -80.5t24.5 -103.5q0 -35 -6.5 -71.5t-25 -72.5t-50.5 -69t-83 -60q44 -22 85.5 -48.5t73 -60.5t51 -78t19.5 -100q1 -74 -34 -134t-95 -102t-140.5 -64.5t-170.5 -22.5zM2044 649 q21 18 36.5 41.5t26 48t16 48.5t5.5 44q0 69 -43.5 110t-127.5 41q-68 0 -107.5 -34t-39.5 -84q0 -37 19.5 -68t51.5 -57t74.5 -48.5t88.5 -41.5zM1949 144q33 0 61 10t48 27t31 39.5t11 48.5q0 45 -24 74.5t-63 52.5t-89.5 42.5t-104.5 44.5q-36 -31 -55.5 -73t-19.5 -90 q0 -38 11.5 -70t36 -55.5t63.5 -37t94 -13.5z" />
<glyph unicode="&#x2190;" horiz-adv-x="1530" d="M75 766l625 625l184 -188l-337 -327l207 19l701 11l-2 -279l-699 11l-207 18l337 -326l-184 -188zM440 773l-7 -7l7 -6v13z" />
<glyph unicode="&#x2191;" horiz-adv-x="1530" d="M636 805l18 207l-326 -337l-188 184l624 625l625 -625l-188 -184l-327 337l19 -207l11 -701l-279 2zM771 1119l-7 6l-6 -6h13z" />
<glyph unicode="&#x2192;" horiz-adv-x="1530" d="M1544 766l-624.962 625l-183.989 -188l336.979 -327l-206.987 19l-700.957 11l2 -279l698.957 11l206.987 18l-336.979 -326l183.989 -188zM1179.03 773l6.99902 -7l-6.99902 -6v13z" />
<glyph unicode="&#x2193;" horiz-adv-x="1530" d="M636 877.049l18 -206.987l-326 336.979l-188 -183.988l624 -624.962l625 624.962l-188 183.988l-327 -336.979l19 206.987l11 700.957l-279 -1.99902zM771 563.068l-7 -6l-6 6h13z" />
<glyph unicode="&#x2202;" horiz-adv-x="1407" d="M117 513q-4 154 46.5 262t135 175.5t192.5 98t221 30.5q41 0 74.5 -3.5t62 -9.5t52.5 -14.5t47 -18.5q-18 96 -55.5 176t-94.5 137t-133.5 89t-171.5 32q-33 0 -68 -5.5t-69.5 -15.5t-65.5 -24.5t-56 -31.5l-111 189q42 33 92 59t103.5 43t109.5 26t111 9 q133 0 241 -36.5t192.5 -101t146 -152.5t101.5 -191t59 -216.5t19 -229.5q0 -194 -38.5 -346t-117.5 -257t-200.5 -160t-286.5 -55q-111 0 -208 42.5t-169.5 116t-115.5 172t-45 211.5zM460 522q2 -67 15.5 -126t43.5 -102.5t78.5 -69t119.5 -25.5q53 0 92 25t66 65t44 91 t26.5 102t12.5 98.5t3 81.5q0 37 0.5 71t0.5 65q-51 36 -109 54t-130 18q-64 0 -114 -23t-84 -67.5t-50.5 -109t-14.5 -148.5z" />
<glyph unicode="&#x2206;" horiz-adv-x="1606" d="M760 1508h44l730 -1481l-16 -27h-1436l-14 22zM1082 271l-307 644l-288 -644h595z" />
<glyph unicode="&#x220f;" horiz-adv-x="1696" d="M288 1275l-218 1v246h1555v-246l-217 -1v-1447h-359v1447h-402v-1447h-359v1447z" />
<glyph unicode="&#x2211;" horiz-adv-x="1577" d="M723 682l-545 760l30 80h1090v-272h-614l398 -562l-396 -599h665v-259h-1147l-26 69z" />
<glyph unicode="&#x2212;" horiz-adv-x="1352" d="M251 898h850v-261h-850v261z" />
<glyph unicode="&#x2219;" horiz-adv-x="0" />
<glyph unicode="&#x221a;" horiz-adv-x="1631" d="M85 589l244 127h281l228 -651l478 1805h349l-669 -2224h-302l-326 748l-155 -83z" />
<glyph unicode="&#x221e;" horiz-adv-x="2050" d="M578 157q-131 -2 -227.5 35t-159.5 101t-94 148.5t-31 178.5q0 106 36 190.5t101.5 144t157.5 91t204 31.5q90 0 162.5 -19.5t131 -52.5t104.5 -77.5t84 -95.5q41 48 89.5 91.5t104.5 76.5t119 52.5t134 19.5q129 1 222 -34.5t152.5 -97t88 -144.5t28.5 -176 q0 -102 -34.5 -188t-99 -148t-158 -96.5t-210.5 -34.5q-92 0 -165 18t-131 50t-102.5 74.5t-80.5 92.5q-38 -47 -83.5 -88.5t-98.5 -73t-114 -50t-130 -19.5zM1164 665q27 -50 61.5 -97.5t75.5 -85.5t88 -61t99 -23q47 0 85 17t64.5 47.5t41 73t14.5 92.5q0 43 -16 81 t-46.5 66.5t-75 45t-102.5 16.5q-71 0 -144 -39.5t-145 -132.5zM590 391q70 0 145.5 39t150.5 132q-27 49 -59.5 96t-71.5 84t-83.5 59.5t-93.5 22.5q-54 0 -95 -16.5t-68.5 -45t-41.5 -67.5t-14 -84q0 -44 14.5 -83.5t43.5 -70t72 -48.5t101 -18z" />
<glyph unicode="&#x222b;" horiz-adv-x="1071" d="M193 -197q8 -12 27 -26.5t46 -28t60 -22.5t70 -9q59 0 100 16.5t66.5 49.5t36.5 82.5t11 115.5q0 72 -18.5 144t-49.5 143.5t-70 144t-80 146t-80 149t-70 153t-49.5 157.5t-18.5 164q0 107 31.5 199t95.5 159t161.5 105t228.5 38q36 0 81.5 -7t91 -22.5t86 -41 t66.5 -61.5l-129 -169q-8 12 -25.5 25.5t-42 25t-54 19t-60.5 7.5q-109 0 -166 -69.5t-57 -195.5q0 -96 32.5 -190t81 -188.5t105 -191t105 -197t81 -206.5t32.5 -220q0 -108 -28 -202.5t-87.5 -165t-152.5 -111t-222 -40.5q-56 0 -107.5 10t-96 27.5t-80 40t-58.5 48.5 l106 195v0z" />
<glyph unicode="&#x2248;" horiz-adv-x="1440" d="M187 389q9 27 37.5 68t73.5 78.5t105 64.5t132 27q51 0 91 -12t72.5 -30t60.5 -38.5t55 -38.5t55.5 -30t63.5 -12q37 0 66.5 10t53 25.5t42 34.5t35.5 37l125 -154q-9 -31 -37 -69.5t-71.5 -73t-101.5 -58t-128 -23.5q-51 0 -89.5 12t-69.5 30t-57.5 39t-53 39t-56.5 30 t-68 12q-37 0 -65.5 -10t-51.5 -25.5t-41.5 -34.5t-35.5 -37zM181 898q9 27 37.5 68t73.5 78.5t105 64.5t132 27q51 0 91 -12t72.5 -30t60.5 -38.5t55 -38.5t55.5 -30t63.5 -12q37 0 66.5 10t53 25.5t42 34.5t35.5 37l125 -154q-9 -31 -37 -69.5t-71.5 -73t-101.5 -58 t-128 -23.5q-51 0 -89.5 12t-69.5 30t-57.5 39t-53 39t-56.5 30t-68 12q-37 0 -65.5 -10t-51.5 -25.5t-41.5 -34.5t-35.5 -37z" />
<glyph unicode="&#x2260;" horiz-adv-x="1422" d="M489 399h-240v244h322l87 265h-409v243h490l64 206h210l-72 -206h232v-243h-316l-84 -265h400v-244h-480l-74 -230h-207z" />
<glyph unicode="&#x2264;" horiz-adv-x="1370" d="M157 907l970 425v-293l-573 -223l573 -218v-279l-970 422v166zM157 229h970v-229h-970v229z" />
<glyph unicode="&#x2265;" horiz-adv-x="1370" d="M1211.01 907l-969.941 425v-293l572.966 -223l-572.966 -218v-279l969.941 422v166zM1211.01 229h-969.941v-229h969.941v229z" />
<glyph unicode="&#x25ca;" horiz-adv-x="1338" d="M60 770v13l605 762h3l605 -762v-13l-605 -772h-4zM667 404l271 371v3l-271 352h-2l-271 -352v-5l271 -369h2z" />
<glyph unicode="&#x25fc;" horiz-adv-x="1140" d="M0 1140h1140v-1140h-1140v1140z" />
<glyph unicode="&#xe001;" horiz-adv-x="0" />
<glyph unicode="&#xe0ff;" horiz-adv-x="0" />
<glyph unicode="&#xeffd;" horiz-adv-x="0" />
<glyph unicode="&#xf000;" horiz-adv-x="0" />
<glyph unicode="&#xf6c3;" horiz-adv-x="426" d="M257 -81q13 -6 29 -22.5t30 -41.5t23 -58t9 -71q0 -57 -13.5 -105t-33 -85t-41.5 -62t-39 -34l-170 44v27q11 23 17.5 59t6.5 85q0 19 -4 38.5t-11.5 36.5t-17 30t-19.5 18v50z" />
<glyph unicode="&#xfb00;" horiz-adv-x="1740" d="M221 908h-146v203l146 29v115q0 123 40 205.5t103.5 132t142.5 70.5t157 21q88 0 134.5 -9.5t66.5 -14.5v-246q-21 10 -57.5 17.5t-91.5 7.5q-63 0 -101.5 -43t-38.5 -143v-113h247v-232h-247v-908h-355v908zM1090 908h-146v203l146 29v115q0 123 40 205.5t103.5 132 t142.5 70.5t157 21q88 0 134.5 -9.5t66.5 -14.5v-246q-21 10 -57.5 17.5t-91.5 7.5q-63 0 -101.5 -43t-38.5 -143v-113h247v-232h-247v-908h-355v908z" />
<glyph unicode="&#xfb01;" horiz-adv-x="1548" d="M1031 1139h355v-1139h-355v1139zM1210 1285q-43 0 -79.5 13.5t-63 38t-41.5 58.5t-15 75t17.5 77.5t47.5 63.5t69 42.5t82 15.5q45 0 81 -13.5t61.5 -37.5t39.5 -57.5t14 -74.5t-17 -77.5t-46 -64t-68 -43.5t-82 -16zM221 908h-146v203l146 29v115q0 123 40 205.5 t103.5 132t142.5 70.5t157 21q88 0 134.5 -9.5t66.5 -14.5v-246q-21 10 -57.5 17.5t-91.5 7.5q-63 0 -101.5 -43t-38.5 -143v-113h247v-232h-247v-908h-355v908z" />
<glyph unicode="&#xfb02;" horiz-adv-x="1551" d="M1033 1663h355v-1663h-355v1663zM221 908h-146v203l146 29v115q0 123 40 205.5t103.5 132t142.5 70.5t157 21q88 0 134.5 -9.5t66.5 -14.5v-246q-21 10 -57.5 17.5t-91.5 7.5q-63 0 -101.5 -43t-38.5 -143v-113h247v-232h-247v-908h-355v908z" />
<glyph unicode="&#xfb03;" horiz-adv-x="2418" d="M1901 1139h355v-1139h-355v1139zM2080 1285q-43 0 -79.5 13.5t-63 38t-41.5 58.5t-15 75t17.5 77.5t47.5 63.5t69 42.5t82 15.5q45 0 81 -13.5t61.5 -37.5t39.5 -57.5t14 -74.5t-17 -77.5t-46 -64t-68 -43.5t-82 -16zM221 908h-146v203l146 29v115q0 123 40 205.5 t103.5 132t142.5 70.5t157 21q88 0 134.5 -9.5t66.5 -14.5v-246q-21 10 -57.5 17.5t-91.5 7.5q-63 0 -101.5 -43t-38.5 -143v-113h247v-232h-247v-908h-355v908zM1090 908h-146v203l146 29v115q0 123 40 205.5t103.5 132t142.5 70.5t157 21q88 0 134.5 -9.5t66.5 -14.5v-246 q-21 10 -57.5 17.5t-91.5 7.5q-63 0 -101.5 -43t-38.5 -143v-113h247v-232h-247v-908h-355v908z" />
<glyph unicode="&#xfb04;" horiz-adv-x="2421" d="M1903 1663h355v-1663h-355v1663zM221 908h-146v203l146 29v115q0 123 40 205.5t103.5 132t142.5 70.5t157 21q88 0 134.5 -9.5t66.5 -14.5v-246q-21 10 -57.5 17.5t-91.5 7.5q-63 0 -101.5 -43t-38.5 -143v-113h247v-232h-247v-908h-355v908zM1090 908h-146v203l146 29 v115q0 123 40 205.5t103.5 132t142.5 70.5t157 21q88 0 134.5 -9.5t66.5 -14.5v-246q-21 10 -57.5 17.5t-91.5 7.5q-63 0 -101.5 -43t-38.5 -143v-113h247v-232h-247v-908h-355v908z" />
<glyph unicode="&#xfeff;" horiz-adv-x="0" />
<glyph d="M129 742h284v642q-25 -6 -60 -13.5t-72.5 -13.5t-74 -11t-66.5 -6l-36 166q48 12 101.5 27.5t106.5 36t104 47t95 60.5h4l177 -15v-920h256v-199h-819v199z" />
<glyph d="M76 684q59 34 121.5 79.5t123 98.5t114.5 112t95 119t65 119t24 113q0 39 -11 64.5t-32.5 41.5t-53 22.5t-71.5 6.5q-41 0 -78 -10t-68 -25t-55 -32t-38 -30l-111 126q19 27 60 58.5t97 58.5t123 45t139 18q114 0 189 -27.5t119.5 -72.5t62.5 -103.5t18 -119.5 q0 -96 -41.5 -183.5t-112.5 -166.5t-165 -149t-199 -130l559 54l3 -228h-824z" />
<glyph d="M21 836q8 16 26.5 53.5t44 89t56 114t62.5 129.5t64 134.5t60.5 129.5t51.5 115t38 90h252l40 -70l-363 -649l-47 -71l280 11l37 253l210 1v-243l164 10v-191h-164v-199h-250v199h-492z" />
<glyph d="M151 771q48 -20 104 -34.5t107 -14.5q64 0 115 7.5t87 26.5t55 49.5t19 77.5q0 64 -47 102t-155 39l-94 -33l-48 170q14 2 33 6.5t39.5 10t40.5 12.5t37 14q71 33 101.5 72.5t30.5 87.5q0 24 -7 44.5t-23.5 35t-45 23t-71.5 8.5q-29 0 -60 -7.5t-60.5 -21t-56.5 -32.5 t-48 -41l-89 161q22 21 65 44.5t97 44t113 33.5t113 13q87 0 154 -21t113 -57t69.5 -84.5t23.5 -104.5q0 -39 -11.5 -80t-40.5 -80t-78 -72.5t-124 -56.5q93 5 155.5 -17t100.5 -60t54 -86t16 -95q0 -70 -33.5 -129t-98 -102.5t-158 -68t-213.5 -24.5q-34 0 -71.5 4 t-75 11.5t-72.5 18t-62 22.5v184z" />
<glyph horiz-adv-x="663" d="M407 1544q-21 6 -50 24t-62 43.5t-68 56.5t-67.5 64t-61 66t-47.5 63l249 130q6 -18 25.5 -47t46 -62t57 -68t58 -65t49.5 -53t31 -32l-160 -120v0z" />
<glyph horiz-adv-x="1017" d="M771 1592q-40 0 -74 13t-58.5 36.5t-38.5 56.5t-14 72q0 40 16.5 75t44.5 61.5t64.5 41.5t77.5 15q42 0 76 -13t58 -36t37 -55.5t13 -72.5t-16 -75.5t-43.5 -61.5t-64 -41.5t-78.5 -15.5zM236 1592q-40 0 -74 13t-59 36.5t-39 56.5t-14 72q0 40 16.5 75t44.5 61.5 t64.5 41.5t77.5 15q42 0 76 -13t58 -36t37 -55.5t13 -72.5t-16 -75.5t-43.5 -61.5t-64 -41.5t-77.5 -15.5z" />
<glyph horiz-adv-x="877" d="M42 1676l281 303h230l282 -302l-174 -111l-223 192l-223 -192z" />
<glyph horiz-adv-x="759" d="M42 1869l170 110l223 -159l224 159l168 -110l-277 -277h-230z" />
<glyph horiz-adv-x="814" d="M408 1595q-97 0 -169.5 27.5t-121 77.5t-72 118.5t-22.5 151.5h221q2 -14 7 -38.5t21.5 -49t48.5 -42.5t87 -18t87 18t48.5 42.5t22 49t8.5 38.5h217q1 -83 -23.5 -151.5t-73.5 -118.5t-121 -77.5t-165 -27.5z" />
<glyph horiz-adv-x="768" d="M380 1394q-84 0 -151 20.5t-113.5 59.5t-71 95t-23.5 128q1 81 34 135.5t84.5 87.5t116.5 47t131 14q83 0 149.5 -18t113 -54t71.5 -90.5t25 -127.5q-1 -81 -31.5 -137.5t-81 -92t-116 -51.5t-137.5 -16zM383 1559q36 0 66.5 5t52.5 19.5t34 40t12 65.5q0 34 -12.5 59 t-35 41t-52.5 24t-65 8q-31 0 -60 -4.5t-51.5 -18.5t-36 -39.5t-13.5 -65.5q0 -65 44.5 -99t116.5 -35z" />
<glyph horiz-adv-x="927" d="M16 1748q10 40 37.5 79t68 70.5t91 51t106.5 19.5q48 0 82.5 -10t60 -25t44.5 -32.5t37 -32.5t38 -25t47 -10t53.5 9.5t49 24t41.5 31.5t31 32l109 -130q-9 -39 -36 -78.5t-66.5 -72t-88.5 -53t-102 -20.5q-46 0 -79.5 10.5t-59.5 25.5t-46 33.5t-40 33.5t-41 25.5 t-49 10.5q-27 0 -52.5 -9.5t-47 -24.5t-39.5 -32.5t-31 -33.5z" />
<glyph horiz-adv-x="962" d="M43 1673q9 9 26 30.5t37.5 50t43 61t43 64t37 59t25.5 45.5l244 -110q-30 -46 -70.5 -96t-82 -93.5t-78 -76t-57.5 -44.5zM541 1673q9 9 26.5 30.5t39 49.5t44.5 60t45 63t40 58.5t28 45.5l239 -111q-28 -42 -68 -91t-81.5 -93t-78.5 -77t-59 -45z" />
<glyph horiz-adv-x="663" d="M97 1664q9 9 31 32t49.5 53t58 65t57 68t46 62t25.5 47l249 -130q-32 -45 -78.5 -96.5t-96.5 -96.5t-98 -79t-82 -45z" />
<glyph horiz-adv-x="512" d="M249 1613q-86 0 -136.5 43t-50.5 125q0 41 15.5 75t43 58t65 37t80.5 13q90 0 137.5 -42.5t47.5 -124.5q0 -41 -15.5 -75t-42.5 -58t-64 -37.5t-80 -13.5z" />
<glyph horiz-adv-x="711" d="M50 1915h611v-226h-611v226z" />
<glyph horiz-adv-x="433" d="M86 1036l-8 42q7 25 13.5 50t12 56t9 72t3.5 99q0 73 -17 127.5t-43 86.5l11 61l252 89q43 -35 65 -107.5t22 -176.5q0 -85 -15 -154.5t-39 -125t-53 -97.5t-57 -72z" />
<glyph horiz-adv-x="681" d="M163 1139h355v-1139h-355v1139zM342 1285q-43 0 -79.5 13.5t-63 38t-41.5 58.5t-15 75t17.5 77.5t47.5 63.5t69 42.5t82 15.5q45 0 81 -13.5t61.5 -37.5t39.5 -57.5t14 -74.5t-17 -77.5t-46 -64t-68 -43.5t-82 -16z" />
<glyph horiz-adv-x="681" d="M163 1139h355v-1139h-355v1139zM342 1285q-43 0 -79.5 13.5t-63 38t-41.5 58.5t-15 75t17.5 77.5t47.5 63.5t69 42.5t82 15.5q45 0 81 -13.5t61.5 -37.5t39.5 -57.5t14 -74.5t-17 -77.5t-46 -64t-68 -43.5t-82 -16z" />
<glyph horiz-adv-x="733" d="M183 1522h368v-1522h-368v1522zM357 1613q-86 0 -136.5 43t-50.5 125q0 41 15.5 75t43 58t65 37t80.5 13q90 0 137.5 -42.5t47.5 -124.5q0 -41 -15.5 -75t-42.5 -58t-64 -37.5t-80 -13.5z" />
<glyph horiz-adv-x="891" d="M436 481q-60 0 -111 21t-88 58t-57.5 87.5t-20.5 109.5q1 59 25 112t65 93.5t95 64.5t114 24t110.5 -20.5t87 -57.5t56.5 -87t19 -110q0 -59 -23.5 -112.5t-64 -94t-94 -64.5t-113.5 -24z" />
<glyph horiz-adv-x="662" d="M127 763q0 43 16.5 82t45.5 69t67.5 47.5t83.5 17.5t81 -15t61 -42t39 -63.5t14 -78.5q0 -44 -16 -83t-44.5 -69t-67 -47.5t-83.5 -17.5q-43 0 -79 15t-62 42t-40.5 63.5t-15.5 79.5z" />
<glyph d="M514 531q-85 0 -151 23.5t-116 64.5t-84.5 96.5t-55.5 119.5t-30.5 134.5t-8.5 140.5q1 123 38 226t99.5 177t147 115t181.5 41q88 0 156 -21.5t117.5 -59.5t83.5 -91t54 -116t28.5 -133.5t7.5 -144.5q-1 -119 -35.5 -223.5t-96 -182t-147 -122t-188.5 -44.5zM521 713 q54 0 91 28.5t60 79.5t33.5 121.5t10.5 153.5q0 81 -9.5 151.5t-32 123t-59.5 83t-92 30.5q-51 0 -87 -27.5t-59 -76t-33.5 -116t-10.5 -147.5q0 -77 9.5 -149.5t31.5 -129t58 -91t89 -34.5z" />
<glyph d="M187 725q11 -2 32.5 -5t46.5 -5.5t48.5 -4.5t39.5 -2q60 0 110.5 15t88 41.5t58.5 63.5t21 82q0 38 -10.5 66.5t-33.5 47t-61 27.5t-93 9q-27 0 -52.5 -3.5t-47 -8.5t-38 -10.5t-26.5 -9.5l-117 73l60 561h679v-205h-491l-39 -241q38 14 86 23t124 9q96 0 163.5 -23.5 t109.5 -65t61.5 -97.5t19.5 -122q0 -84 -38.5 -158.5t-111 -130t-176 -88t-233.5 -32.5q-27 0 -59 3t-63 8t-59 10t-48 10z" />
<glyph d="M505 531q-99 0 -177 33.5t-132.5 94t-83.5 144t-29 182.5q0 148 52 268.5t140.5 210.5t206.5 147t251 77l76 -124q-159 -47 -259.5 -128t-151.5 -194q38 23 93 40t133 17q76 0 136.5 -26t103.5 -73.5t66 -114.5t23 -148t-33.5 -155t-93 -129.5t-141.5 -88.5t-180 -33z M521 690q45 0 76.5 19t51 49t28.5 66.5t9 71.5q0 71 -14 118.5t-38 75.5t-56 39.5t-67 11.5q-36 0 -61 -4.5t-42.5 -12t-30 -16.5t-24.5 -19q-3 -19 -6 -37.5t-3 -36.5q-1 -60 6.5 -118.5t27.5 -104.5t55 -74t88 -28z" />
<glyph d="M266 581q122 198 244 417.5t242 433.5h-607v230h830l50 -63l-478 -1094l-281 76v0z" />
<glyph d="M518 531q-74 0 -150.5 16t-138.5 51.5t-101 91.5t-39 136q0 36 11 75t34.5 74t60 63.5t88.5 45.5q-33 22 -60.5 51.5t-47.5 66.5t-31.5 81.5t-11.5 96.5q0 72 34 126t88.5 90.5t124 54.5t140.5 18q91 0 161.5 -18.5t117.5 -52.5t71.5 -80.5t24.5 -103.5q0 -35 -6.5 -71.5 t-25 -72.5t-50.5 -69t-83 -60q44 -22 85.5 -48.5t73 -60.5t51 -78t19.5 -100q1 -74 -34 -134t-95 -102t-140.5 -64.5t-170.5 -22.5zM612 1192q21 18 36.5 41.5t26 48t16 48.5t5.5 44q0 69 -43.5 110t-127.5 41q-68 0 -107.5 -34t-39.5 -84q0 -37 19.5 -68t51.5 -57 t74.5 -48.5t88.5 -41.5zM517 687q33 0 61 10t48 27t31 39.5t11 48.5q0 45 -24 74.5t-63 52.5t-89.5 42.5t-104.5 44.5q-36 -31 -55.5 -73t-19.5 -90q0 -38 11.5 -70t36 -55.5t63.5 -37t94 -13.5z" />
<glyph d="M209 607q77 22 144 56t122 77.5t96 95t67 108.5q-18 -11 -35.5 -21t-38.5 -17.5t-48 -11.5t-65 -4q-76 0 -141.5 28t-113.5 78t-75.5 119t-27.5 150q0 89 30.5 163t88.5 127.5t140.5 83.5t187.5 30q99 0 177 -33.5t133 -93.5t84 -143t29 -182q0 -108 -27 -203t-73 -174 t-108 -142.5t-132 -108.5t-144.5 -72t-145.5 -33zM514 1047q70 0 109.5 15t62.5 35q7 46 9 90q1 60 -5.5 118t-25.5 103.5t-53 73.5t-87 28q-45 0 -76 -18.5t-49.5 -48t-27 -66t-8.5 -71.5q0 -71 13 -120.5t34.5 -80.5t48.5 -44.5t55 -13.5z" />
<glyph d="M514 -12q-85 0 -151 23.5t-116 64.5t-84.5 96.5t-55.5 119.5t-30.5 134.5t-8.5 140.5q1 123 38 226t99.5 177t147 115t181.5 41q88 0 156 -21.5t117.5 -59.5t83.5 -91t54 -116t28.5 -133.5t7.5 -144.5q-1 -119 -35.5 -223.5t-96 -182t-147 -122t-188.5 -44.5zM521 170 q54 0 91 28.5t60 79.5t33.5 121.5t10.5 153.5q0 81 -9.5 151.5t-32 123t-59.5 83t-92 30.5q-51 0 -87 -27.5t-59 -76t-33.5 -116t-10.5 -147.5q0 -77 9.5 -149.5t31.5 -129t58 -91t89 -34.5z" />
<glyph d="M129 199h284v642q-25 -6 -60 -13.5t-72.5 -13.5t-74 -11t-66.5 -6l-36 166q48 12 101.5 27.5t106.5 36t104 47t95 60.5h4l177 -15v-920h256v-199h-819v199z" />
<glyph d="M76 141q59 34 121.5 79.5t123 98.5t114.5 112t95 119t65 119t24 113q0 39 -11 64.5t-32.5 41.5t-53 22.5t-71.5 6.5q-41 0 -78 -10t-68 -25t-55 -32t-38 -30l-111 126q19 27 60 58.5t97 58.5t123 45t139 18q114 0 189 -27.5t119.5 -72.5t62.5 -103.5t18 -119.5 q0 -96 -41.5 -183.5t-112.5 -166.5t-165 -149t-199 -130l559 54l3 -228h-824z" />
<glyph d="M151 228q48 -20 104 -34.5t107 -14.5q64 0 115 7.5t87 26.5t55 49.5t19 77.5q0 64 -47 102t-155 39l-94 -33l-48 170q14 2 33 6.5t39.5 10t40.5 12.5t37 14q71 33 101.5 72.5t30.5 87.5q0 24 -7 44.5t-23.5 35t-45 23t-71.5 8.5q-29 0 -60 -7.5t-60.5 -21t-56.5 -32.5 t-48 -41l-89 161q22 21 65 44.5t97 44t113 33.5t113 13q87 0 154 -21t113 -57t69.5 -84.5t23.5 -104.5q0 -39 -11.5 -80t-40.5 -80t-78 -72.5t-124 -56.5q93 5 155.5 -17t100.5 -60t54 -86t16 -95q0 -70 -33.5 -129t-98 -102.5t-158 -68t-213.5 -24.5q-34 0 -71.5 4 t-75 11.5t-72.5 18t-62 22.5v184z" />
<glyph d="M21 293q8 16 26.5 53.5t44 89t56 114t62.5 129.5t64 134.5t60.5 129.5t51.5 115t38 90h252l40 -70l-363 -649l-47 -71l280 11l37 253l210 1v-243l164 10v-191h-164v-199h-250v199h-492z" />
<glyph d="M187 182q11 -2 32.5 -5t46.5 -5.5t48.5 -4.5t39.5 -2q60 0 110.5 15t88 41.5t58.5 63.5t21 82q0 38 -10.5 66.5t-33.5 47t-61 27.5t-93 9q-27 0 -52.5 -3.5t-47 -8.5t-38 -10.5t-26.5 -9.5l-117 73l60 561h679v-205h-491l-39 -241q38 14 86 23t124 9q96 0 163.5 -23.5 t109.5 -65t61.5 -97.5t19.5 -122q0 -84 -38.5 -158.5t-111 -130t-176 -88t-233.5 -32.5q-27 0 -59 3t-63 8t-59 10t-48 10z" />
<glyph d="M505 -12q-99 0 -177 33.5t-132.5 94t-83.5 144t-29 182.5q0 148 52 268.5t140.5 210.5t206.5 147t251 77l76 -124q-159 -47 -259.5 -128t-151.5 -194q38 23 93 40t133 17q76 0 136.5 -26t103.5 -73.5t66 -114.5t23 -148t-33.5 -155t-93 -129.5t-141.5 -88.5t-180 -33z M521 147q45 0 76.5 19t51 49t28.5 66.5t9 71.5q0 71 -14 118.5t-38 75.5t-56 39.5t-67 11.5q-36 0 -61 -4.5t-42.5 -12t-30 -16.5t-24.5 -19q-3 -19 -6 -37.5t-3 -36.5q-1 -60 6.5 -118.5t27.5 -104.5t55 -74t88 -28z" />
<glyph d="M266 38q122 198 244 417.5t242 433.5h-607v230h830l50 -63l-478 -1094l-281 76v0z" />
<glyph d="M518 -12q-74 0 -150.5 16t-138.5 51.5t-101 91.5t-39 136q0 36 11 75t34.5 74t60 63.5t88.5 45.5q-33 22 -60.5 51.5t-47.5 66.5t-31.5 81.5t-11.5 96.5q0 72 34 126t88.5 90.5t124 54.5t140.5 18q91 0 161.5 -18.5t117.5 -52.5t71.5 -80.5t24.5 -103.5q0 -35 -6.5 -71.5 t-25 -72.5t-50.5 -69t-83 -60q44 -22 85.5 -48.5t73 -60.5t51 -78t19.5 -100q1 -74 -34 -134t-95 -102t-140.5 -64.5t-170.5 -22.5zM612 649q21 18 36.5 41.5t26 48t16 48.5t5.5 44q0 69 -43.5 110t-127.5 41q-68 0 -107.5 -34t-39.5 -84q0 -37 19.5 -68t51.5 -57 t74.5 -48.5t88.5 -41.5zM517 144q33 0 61 10t48 27t31 39.5t11 48.5q0 45 -24 74.5t-63 52.5t-89.5 42.5t-104.5 44.5q-36 -31 -55.5 -73t-19.5 -90q0 -38 11.5 -70t36 -55.5t63.5 -37t94 -13.5z" />
<glyph d="M209 64q77 22 144 56t122 77.5t96 95t67 108.5q-18 -11 -35.5 -21t-38.5 -17.5t-48 -11.5t-65 -4q-76 0 -141.5 28t-113.5 78t-75.5 119t-27.5 150q0 89 30.5 163t88.5 127.5t140.5 83.5t187.5 30q99 0 177 -33.5t133 -93.5t84 -143t29 -182q0 -108 -27 -203t-73 -174 t-108 -142.5t-132 -108.5t-144.5 -72t-145.5 -33zM514 504q70 0 109.5 15t62.5 35q7 46 9 90q1 60 -5.5 118t-25.5 103.5t-53 73.5t-87 28q-45 0 -76 -18.5t-49.5 -48t-27 -66t-8.5 -71.5q0 -71 13 -120.5t34.5 -80.5t48.5 -44.5t55 -13.5z" />
<glyph horiz-adv-x="1445" d="M713 -16q-110 0 -198 30.5t-155 85t-114.5 129.5t-77 164t-43 189t-12.5 204q2 172 49 311t130 236.5t197 150t249 52.5q111 0 199 -28.5t154.5 -79.5t112.5 -122t75 -156.5t42 -182t12 -199.5q-2 -179 -47.5 -324t-127 -247t-195 -157.5t-250.5 -55.5zM838 1257 q-50 42 -113 42q-122 0 -190 -127t-68 -377q0 -104 11 -194t34 -162zM593 282q53 -61 128 -61q121 0 187.5 132.5t66.5 406.5q0 109 -12 198t-37 158z" />
<glyph horiz-adv-x="1423" d="M113 572q2 136 47.5 244.5t126 184t193 116t247.5 40.5q167 0 279.5 -48.5t180.5 -131.5t96 -192.5t27 -231.5q-2 -131 -45.5 -236t-123 -179t-191 -114t-248.5 -40q-110 0 -197 22t-153 61.5t-112 94t-74.5 120t-41 139t-11.5 151.5zM710 221q121 -2 182 82.5t61 242.5 q0 75 -14 143t-43.5 119.5t-74.5 81.5t-107 30q-61 0 -107 -23t-77 -66.5t-47 -106.5t-16 -143q0 -70 14.5 -135t44.5 -114.5t75.5 -79.5t108.5 -31z" />
<glyph horiz-adv-x="1035" d="M372 767q-58 -14 -108.5 -24t-106.5 -18l-31 215q49 12 113 37.5t128 56.5t119 64t86 59h2l171 -28l-2 -1129h-371v767z" />
<glyph horiz-adv-x="1347" d="M109 167q61 26 133 60.5t143.5 75.5t138.5 88t118 99t82 107.5t31 113.5q0 37 -8 71.5t-28 60t-55.5 41t-89.5 15.5q-48 0 -95.5 -10t-90.5 -27t-79.5 -39.5t-62.5 -47.5l-118 189q31 32 83 67.5t121 65.5t151.5 50t175.5 20q141 0 235 -32.5t150 -87t79 -125t23 -146.5 q0 -86 -40.5 -160.5t-112 -141t-170 -127t-215.5 -120.5l614 46v-273h-1065z" />
<glyph horiz-adv-x="1204" d="M117 -172q30 -6 63.5 -12t67 -10.5t66 -7t60.5 -2.5q85 0 152.5 20.5t114.5 57t72 87.5t25 112q0 48 -13 88t-43 68t-77.5 41t-116.5 9l-113 -24l-54 221q124 21 198 58q81 37 119 89t40 110q2 81 -46.5 125.5t-135.5 44.5q-48 0 -95.5 -10t-91 -26.5t-81.5 -37 t-66 -40.5l-108 204q16 16 47.5 35t72.5 38t90.5 37t102 32t105.5 22.5t103 8.5q97 0 181.5 -22t146.5 -66.5t98 -111.5t36 -156q0 -65 -18 -120.5t-50.5 -103.5t-79 -88t-103.5 -74q84 -14 146.5 -48.5t104 -82t61.5 -104t20 -114.5q0 -114 -49.5 -210t-140 -166 t-219.5 -109.5t-288 -39.5q-69 -1 -148 10.5t-156 31.5v236v0z" />
<glyph horiz-adv-x="1399" d="M49 130l507 1183h113l251 -81l-448 -880l-82 -107h402l41 432h293v-432h208v-245h-208v-295h-334v295h-662z" />
<glyph horiz-adv-x="1266" d="M154 -228q20 -1 37.5 -1.5t36.5 -0.5q135 0 238 23t172.5 65.5t105 102t35.5 131.5q0 115 -64 175.5t-197 60.5q-34 0 -70.5 -4.5t-72.5 -12.5t-70 -18.5t-64 -21.5l-72 36l57 832h868l-31 -281h-574l-38 -325q54 20 118 30.5t121 10.5q225 0 339 -117.5t114 -330.5 q0 -132 -56.5 -243.5t-164.5 -192t-264.5 -125.5t-355.5 -45q-12 0 -31 1t-40 3t-41.5 4.5t-36.5 6.5l1 237v0z" />
<glyph horiz-adv-x="1448" d="M126 631q0 149 40 280t107.5 241.5t156.5 200t187 154t199 104t193 51.5l80 -201q-95 -24 -177 -68.5t-149 -104t-119.5 -131.5t-88.5 -150t-55 -159.5t-20 -161.5q-2 -101 14 -186.5t50 -147t85.5 -96t121.5 -34.5q55 0 97.5 23t72 62.5t45 94t15.5 117.5q0 73 -15 122 t-40 78t-58 41.5t-69 12.5q-42 0 -83.5 -10.5t-64.5 -26.5l-88 169q10 15 38 37t71 42.5t98.5 34.5t121.5 14q98 0 177.5 -33.5t136 -94t87 -146t30.5 -190.5q0 -118 -37 -224t-113 -186.5t-191.5 -127.5t-272.5 -47q-128 0 -235 47t-184.5 132.5t-120.5 204.5t-43 263z" />
<glyph horiz-adv-x="1263" d="M269 -405q17 37 48 101.5t71 147.5t85.5 178.5t92 193.5t91.5 194t83 179t66.5 148t42.5 102h-740v300h1031l69 -90l-592 -1548l-348 94v0z" />
<glyph horiz-adv-x="1398" d="M123 402q0 55 15.5 108t49 101t87.5 90.5t131 76.5q-48 32 -90.5 70.5t-73.5 85.5t-49 105t-18 129q0 84 35.5 156.5t103.5 126t166 84t223 30.5q126 0 222.5 -27.5t162.5 -76.5t99.5 -116t33.5 -145q0 -55 -13.5 -108.5t-44 -102t-79 -90.5t-118.5 -75q64 -34 122 -73 t103 -87t71.5 -106.5t27.5 -131.5q1 -105 -42 -187t-120 -138.5t-182 -86.5t-228 -30q-136 0 -246 29.5t-187.5 83.5t-119.5 131.5t-42 173.5zM779 918q77 43 117.5 113t42.5 156q1 39 -15 70.5t-45 54t-69.5 35t-88.5 12.5q-56 0 -97 -13t-68 -35t-40.5 -50.5t-13.5 -59.5 q0 -48 22 -87t60 -73t88 -64t107 -59zM440 424q0 -109 69.5 -163t205.5 -54q44 0 83.5 13t69.5 36.5t47.5 57t17.5 75.5q0 51 -28.5 90t-76 72t-108.5 62.5t-127 61.5q-33 -20 -61.5 -44t-48.5 -54t-31.5 -68t-11.5 -85z" />
<glyph horiz-adv-x="1454" d="M338 -324q118 27 214 84t170 133t125.5 165.5t80.5 181.5q-21 -25 -53.5 -51t-77.5 -47t-102.5 -34t-127.5 -13q-102 0 -183.5 37.5t-139.5 103.5t-89 156t-31 195q0 124 38.5 230t116 184t192.5 122t268 44q129 0 236 -47.5t183 -133t118 -204.5t42 -263 q0 -147 -39.5 -278.5t-106.5 -243.5t-156 -202.5t-188.5 -157t-203.5 -107t-200 -51.5zM657 356q78 0 136 23.5t96 65.5l54 -151q11 44 16.5 86t6.5 82q1 105 -15 191t-50 147t-85.5 94t-120.5 33q-52 0 -94 -21.5t-72 -59t-46.5 -88.5t-16.5 -109q0 -73 14.5 -128 t40.5 -91.5t60.5 -55t75.5 -18.5z" />
<glyph horiz-adv-x="1423" d="M113 579q2 136 47.5 245t126 185t193 117t247.5 41q167 0 279.5 -49t180.5 -132.5t96 -193.5t27 -232q-2 -131 -45.5 -237.5t-123 -181.5t-191 -116t-248.5 -41q-110 0 -197 22.5t-153 62.5t-112 95.5t-74.5 122t-41 140.5t-11.5 152zM800 911q-20 9 -41 14t-45 5 q-61 0 -107 -23.5t-77 -67.5t-47 -107.5t-16 -143.5q0 -78 18 -150.5t55 -124.5zM630 237q38 -16 80 -16q60 -1 105.5 21.5t76 65t46 104.5t15.5 141t-15.5 149.5t-47.5 123.5z" />
<glyph horiz-adv-x="1445" d="M713 -16q-110 0 -198 30.5t-155 85t-114.5 129.5t-77 164t-43 189t-12.5 204q2 172 49 311t130 236.5t197 150t249 52.5q111 0 199 -28.5t154.5 -79.5t112.5 -122t75 -156.5t42 -182t12 -199.5q-2 -179 -47.5 -324t-127 -247t-195 -157.5t-250.5 -55.5zM721 221 q121 0 187.5 132.5t66.5 406.5q0 123 -15.5 222.5t-47 170t-78.5 108.5t-109 38q-122 0 -190 -127t-68 -377q0 -125 16.5 -230t48.5 -181.5t79.5 -119.5t109.5 -43z" />
<glyph horiz-adv-x="977" d="M349 1149q-58 -14 -109 -24t-107 -18l-31 215q32 8 72.5 22t83 32t86 39t82 42.5t70.5 42t52 38.5h2l171 -30l-2 -1508h-370v1149z" />
<glyph horiz-adv-x="1285" d="M67 156q61 36 135 88.5t149 118.5t145 142.5t124.5 160t87.5 171.5t33 177q0 115 -57 179t-157 64q-48 0 -96.5 -10.5t-93 -27.5t-81.5 -40t-63 -48l-118 200q31 32 83.5 68t122.5 66.5t154 50.5t177 20q141 0 238 -40t157 -107.5t86.5 -155t26.5 -181.5 q0 -116 -44 -223.5t-122 -207.5t-185 -192t-233 -176l637 42v-295h-1057z" />
<glyph horiz-adv-x="1208" d="M102 257q22 -5 49 -10.5t59.5 -10t72 -7.5t88.5 -3q87 0 157.5 20.5t120 56.5t76.5 85.5t27 106.5q0 40 -14 73.5t-44.5 56.5t-79 34.5t-117.5 7.5l-130 -24l-53 197q69 11 116 28t88 36q81 37 126.5 92.5t47.5 113.5q1 40 -12 71.5t-37.5 53t-59.5 33t-78 11.5 q-50 0 -97 -9t-89.5 -23.5t-79.5 -33.5t-67 -39l-108 206q25 24 81 51t128 50t153 38.5t157 15.5q97 0 180 -22.5t144 -67.5t95.5 -112.5t34.5 -156.5q0 -63 -16 -116.5t-46 -99t-73.5 -83.5t-98.5 -71q81 -8 139.5 -38.5t97 -75t56.5 -98t18 -107.5q0 -111 -48.5 -203 t-135.5 -158.5t-208 -103.5t-265 -37q-41 0 -89.5 3.5t-96.5 9.5t-92 13.5t-76 15.5z" />
<glyph horiz-adv-x="1393" d="M49 369l554 1169h311l62 -81l-504 -866l-74 -107h391l41 408h293v-408h211v-245h-211v-238h-334v238h-659z" />
<glyph horiz-adv-x="1264" d="M159 224q35 -2 66 -2h63q124 0 218.5 23t158.5 65t97 99t33 124q0 108 -64 163.5t-197 55.5q-35 0 -73 -4.5t-76 -12.5t-73.5 -18.5t-66.5 -21.5l-89 53l58 774h877l-9 -271l-624 -1l-38 -325q23 10 57.5 20.5t75 19.5t84.5 15t86 6q102 0 182.5 -26.5t136.5 -79.5 t86 -133t30 -186q0 -122 -56 -229.5t-161 -188t-255.5 -127t-339.5 -45.5q-17 0 -40 1t-48.5 3t-51.5 4.5t-48 6.5z" />
<glyph horiz-adv-x="1397" d="M114 597q0 138 36 259.5t98.5 223.5t148 183.5t184.5 140t208 92.5t218 42l58 -211q-100 -16 -186.5 -54.5t-157 -95t-123.5 -129t-85 -156.5q26 20 60 39.5t77 35t94.5 25t111.5 9.5q100 0 181 -34t138 -95.5t88 -147t31 -188.5q0 -110 -37 -209.5t-112 -176 t-188.5 -121.5t-266.5 -45q-123 0 -228.5 44.5t-183 125.5t-121 194t-43.5 249zM710 222q55 0 99.5 25t76 65.5t48.5 91.5t17 104q0 72 -17 121t-46 80t-68 44.5t-83 13.5q-60 0 -104 -7.5t-76 -18t-53 -22t-35 -20.5q-1 -12 -1.5 -23.5t-0.5 -23.5q-2 -98 9.5 -177 t40 -135.5t76 -87t117.5 -30.5z" />
<glyph horiz-adv-x="1232" d="M251 1q17 36 47 100t67 146t80 176t86.5 190.5t85.5 191t78 176.5t63 146t41 101h-722l1 294h1031l67 -90l-506 -1432l-419 1v0z" />
<glyph horiz-adv-x="1361" d="M112 387q0 54 15.5 105t50 97t90.5 86t136 72q-51 31 -96 69t-78 85t-52.5 105t-19.5 130q0 84 35.5 156.5t103.5 126t166 84t223 30.5q126 0 222.5 -27.5t162.5 -76.5t99.5 -116t33.5 -145q0 -56 -15 -106.5t-47.5 -95.5t-84 -83.5t-124.5 -68.5q66 -34 127.5 -73 t108.5 -86.5t75 -106t29 -132.5q1 -105 -42 -185.5t-120 -135t-182 -83t-228 -28.5q-136 0 -245 25.5t-185.5 76t-117.5 126t-41 175.5zM758 900q78 43 117.5 111t40.5 145q2 78 -52.5 124t-159.5 46q-56 0 -97 -13t-68 -34.5t-40.5 -50t-13.5 -58.5q0 -46 21.5 -83.5 t58.5 -70t87 -60.5t106 -56zM412 419q0 -45 19 -84t54.5 -67.5t85 -44.5t110.5 -16q52 0 95.5 11.5t74.5 33t48 53.5t17 74q0 49 -28.5 86.5t-75.5 70t-108.5 61t-127.5 59.5q-35 -18 -65 -41.5t-52 -52.5t-34.5 -64.5t-12.5 -78.5z" />
<glyph horiz-adv-x="1409" d="M324 179q96 14 179 50t151.5 89t121.5 119.5t89 141.5q-49 -31 -124.5 -52t-189.5 -21q-98 0 -179.5 36t-140 100.5t-91 152.5t-32.5 192q0 116 38.5 215.5t114 173t188.5 115.5t262 42q125 0 230.5 -45t181.5 -126t118.5 -194t42.5 -249q0 -139 -36 -261t-99 -225 t-148.5 -185.5t-185 -141.5t-208.5 -94t-219 -42zM672 745q58 0 99.5 6.5t71.5 18t50.5 26t36.5 30.5q1 10 1.5 19t0.5 19q1 101 -11 180.5t-40.5 135t-75.5 84.5t-116 29q-51 0 -95 -21t-76.5 -55.5t-50.5 -80t-18 -93.5q0 -144 56 -221t167 -77z" />
<glyph horiz-adv-x="1445" d="M713 -16q-110 0 -198 30.5t-155 85t-114.5 129.5t-77 164t-43 189t-12.5 204q2 172 49 311t130 236.5t197 150t249 52.5q111 0 199 -28.5t154.5 -79.5t112.5 -122t75 -156.5t42 -182t12 -199.5q-2 -179 -47.5 -324t-127 -247t-195 -157.5t-250.5 -55.5zM837 1258 q-50 41 -112 41q-122 0 -190 -127t-68 -377q0 -111 12.5 -205.5t37.5 -168.5zM599 275q52 -54 122 -54q121 0 187.5 132.5t66.5 406.5q0 216 -49 355z" />
<glyph horiz-adv-x="1347" d="M664 -16q-108 0 -194.5 31.5t-153 87.5t-113.5 132t-76.5 165t-42.5 187.5t-12 198.5q2 166 48.5 305t128.5 240t194.5 157.5t245.5 56.5q109 0 195.5 -30t151.5 -83.5t111 -127t75 -160t41.5 -182.5t11.5 -194q-2 -173 -47 -317t-125.5 -247.5t-192 -161.5t-246.5 -58z M672 221q58 0 104 30t78 94.5t49 167t17 247.5q0 131 -16 233.5t-47 172.5t-76.5 106.5t-104.5 36.5q-58 0 -104.5 -30.5t-79.5 -94t-50.5 -160.5t-17.5 -229q0 -133 16.5 -239t48 -180.5t77.5 -114.5t106 -40z" />
<glyph horiz-adv-x="1347" d="M148 222h428v926q-32 -14 -80 -27t-103 -24t-112 -19t-107 -12l-43 200q95 16 192 50t182 74.5t150.5 82.5t97.5 74h1l194 -48l-2 -1277h342v-222h-1140v222z" />
<glyph horiz-adv-x="1347" d="M91 156q61 40 137 93t154 117.5t152.5 139t132.5 157t93 172.5t35 185q0 122 -62.5 187.5t-171.5 65.5q-53 0 -103.5 -13t-95.5 -33t-82 -45.5t-63 -50.5l-118 200q31 32 83.5 68t122.5 66.5t153.5 50.5t176.5 20q141 0 240 -39.5t161.5 -105.5t90.5 -153t28 -181 q0 -114 -42 -222t-117.5 -209.5t-180.5 -195t-230 -178.5l623 27v-279h-1069z" />
<glyph horiz-adv-x="1347" d="M134 268q27 -6 61.5 -13.5t73 -14t79 -10.5t80.5 -4q101 0 178.5 19t130.5 52t80 78t27 98q0 45 -11 80.5t-37.5 60.5t-71 38.5t-111.5 14.5l-196 -35l-55 216q75 11 130 22.5t100 25.5q41 13 77 33t63.5 48t43.5 64t16 80q0 80 -57 119t-152 39q-53 0 -108 -9 t-106.5 -23.5t-96.5 -33.5t-76 -39l-97 190q26 24 85.5 53.5t137 55.5t163.5 44t165 18q116 0 209 -25.5t158 -71.5t100 -110t35 -141q0 -138 -69.5 -232.5t-195.5 -159.5q91 -2 155.5 -28.5t105.5 -69.5t60 -98t19 -113q0 -111 -52.5 -203t-149 -158t-232.5 -103t-302 -37 q-38 0 -86 4.5t-97.5 12t-95 17t-77.5 19.5z" />
<glyph horiz-adv-x="1347" d="M26 369l554 1177h311l61 -81l-504 -874l-74 -107h391l41 408h293v-408h211v-245h-211v-238h-334v238h-659z" />
<glyph horiz-adv-x="1347" d="M170 208q43 -1 85 -1.5t78 -0.5q124 0 219.5 24t161 66t99.5 99t34 122q0 53 -15 95.5t-46.5 72t-80.5 45t-116 15.5q-34 0 -79 -7t-91.5 -18t-89 -23.5t-72.5 -23.5l-89 52l57 797h918l-31 -262h-613l-40 -330q30 10 66 18.5t73 14.5t73.5 9t68.5 3q112 0 199.5 -29 t148 -84.5t92 -136.5t31.5 -186q0 -112 -51 -214t-150.5 -179.5t-245 -123t-334.5 -44.5q-18 0 -52 1t-72 3t-75 4.5t-62 6.5z" />
<glyph horiz-adv-x="1347" d="M102 597q0 145 36 269t99.5 226.5t151 182t191 135.5t219 88t235.5 40l60 -225q-112 -12 -206 -45.5t-168 -86t-128 -122t-86 -154.5q25 18 58.5 35t74.5 30.5t90 22t106 8.5q105 0 184.5 -33t133 -93.5t80 -145.5t26.5 -188q0 -111 -37 -212t-111 -177.5t-186.5 -122 t-263.5 -45.5q-122 0 -224.5 44.5t-177 125.5t-116 194t-41.5 249zM703 222q54 0 95 25t68.5 65.5t41 93t13.5 108.5q0 72 -15 123t-41.5 83.5t-62.5 48t-78 15.5q-65 0 -110 -8.5t-74.5 -20.5t-47.5 -25t-29 -21q-3 -32 -3 -63q-2 -92 10 -169.5t40.5 -134t76 -88.5 t116.5 -32z" />
<glyph horiz-adv-x="1347" d="M314 1q23 76 67 178.5t99 217t116.5 233.5t120 229t109 204.5t83.5 158.5h-797l1 300h1109l68 -90q-20 -48 -52 -123.5t-71 -168t-82.5 -198t-87 -214t-84.5 -215.5t-74.5 -203t-57.5 -175.5t-34 -134.5l-433 1v0z" />
<glyph horiz-adv-x="1347" d="M89 398q0 54 15.5 105t50 98t89 88t132.5 74q-49 31 -92 69t-74.5 85t-50 104t-18.5 128q0 84 36.5 156.5t105 126.5t167 84.5t223.5 30.5q126 0 222 -28t161 -77t98 -116t33 -145q0 -54 -13 -106.5t-42.5 -100t-76.5 -89t-114 -74.5q63 -33 119.5 -71t100 -84.5t69 -103 t26.5 -126.5q1 -105 -43 -187t-121.5 -138.5t-183 -86.5t-228.5 -30q-136 0 -245 29t-186 82.5t-118.5 130t-41.5 172.5zM754 903q42 21 71 50.5t48 64t28 73t9 78.5q2 78 -57 124.5t-162 46.5q-50 0 -91 -13t-70 -35t-45.5 -50.5t-16.5 -58.5q0 -48 23 -86.5t62 -72t91 -63 t110 -58.5zM389 415q0 -46 15.5 -84t49 -65.5t85.5 -43t126 -15.5q44 0 86 13t75 36.5t53 57t20 75.5q0 49 -29 87.5t-77 70.5t-110 61t-129 60q-75 -46 -120 -112.5t-45 -140.5z" />
<glyph horiz-adv-x="1347" d="M236 207q120 11 217.5 44.5t173.5 86t129.5 122.5t85.5 154q-54 -37 -135 -63.5t-197 -26.5q-103 0 -182 34.5t-132 96.5t-80.5 148t-27.5 190q0 118 39 219t114.5 175t188 116t259.5 42q124 0 226.5 -45t175.5 -126t113.5 -194t40.5 -249q0 -153 -35 -280.5t-97.5 -230 t-150 -180.5t-192 -132t-223 -85t-244.5 -38zM618 739q62 0 105.5 8t74.5 21.5t51.5 30.5t37.5 34q1 12 1.5 24t0.5 24q1 95 -11 173.5t-41 134t-76 86t-115 30.5q-51 0 -92 -23.5t-70 -62t-44.5 -87.5t-15.5 -100q0 -72 15 -126.5t41.5 -91.5t61.5 -56t76 -19z" />
<glyph horiz-adv-x="1347" d="M664 -16q-108 0 -194.5 31.5t-153 87.5t-113.5 132t-76.5 165t-42.5 187.5t-12 198.5q2 166 48.5 305t128.5 240t194.5 157.5t245.5 56.5q109 0 195.5 -30t151.5 -83.5t111 -127t75 -160t41.5 -182.5t11.5 -194q-2 -173 -47 -317t-125.5 -247.5t-192 -161.5t-246.5 -58z M793 1261q-51 48 -117 48q-58 0 -104.5 -30.5t-79.5 -94t-50.5 -160.5t-17.5 -229q0 -117 12.5 -212t36.5 -168zM557 269q51 -48 115 -48q58 0 104 30t78 94.5t49 167t17 247.5q0 106 -11 193t-31 154z" />
<glyph horiz-adv-x="1347" d="M86 579q2 136 45.5 245t122.5 185t189.5 117t245.5 41q111 0 197 -22.5t150 -63t107.5 -96.5t70 -123.5t37.5 -144t10 -157.5q-2 -131 -44 -237.5t-119 -181.5t-187 -116t-247 -41q-110 0 -196.5 22.5t-151 62.5t-109 95.5t-72 122t-39 140.5t-10.5 152zM672 221 q60 -1 104 21.5t72.5 65t42 104.5t13.5 141q0 75 -12.5 143.5t-39.5 120.5t-70.5 82.5t-105.5 30.5q-61 0 -105 -23.5t-73 -67.5t-43 -107.5t-14 -143.5q0 -70 12.5 -136t40.5 -117t72 -82t106 -32z" />
<glyph horiz-adv-x="1347" d="M182 222h394v605q-32 -11 -82 -20t-103 -16.5t-102.5 -12.5t-80.5 -7l-42 194q98 20 185.5 44t160 50t127 53t86.5 53h3l220 -37l-2 -906h325v-222h-1089v222z" />
<glyph horiz-adv-x="1347" d="M105 156q66 24 141.5 60.5t150 81.5t143 97t121 108t84 114.5t31.5 116.5q0 38 -8 69.5t-28.5 54.5t-55.5 35.5t-89 12.5q-48 0 -98 -13t-96.5 -33t-85.5 -45t-65 -50l-117 189q31 32 84.5 67.5t123.5 65.5t152 50t170 20q141 0 235 -31t150 -83.5t79 -122t23 -145.5 q0 -86 -41.5 -160t-115 -140.5t-174 -127.5t-218.5 -121l625 47v-273h-1065z" />
<glyph horiz-adv-x="1347" d="M175 -192q60 -13 133 -22t154 -9q85 0 152.5 22t114.5 60.5t72 91t25 113.5q0 48 -14.5 88.5t-43 69t-70.5 43.5t-97 12l-160 -31l-63 202q63 11 117.5 26t92.5 32q45 18 78 43.5t55 55t33 60t12 59.5q2 81 -46.5 125.5t-135.5 44.5q-53 0 -101 -9.5t-90.5 -25t-78.5 -35 t-64 -40.5l-103 204q25 24 77.5 53t122.5 55t151.5 43.5t164.5 17.5q97 0 181.5 -22t146.5 -66.5t98 -111.5t36 -156q0 -65 -18 -120.5t-50.5 -103.5t-79 -88t-103.5 -74q84 -14 146.5 -48.5t104 -82t61.5 -104t20 -114.5q0 -114 -51 -210.5t-144.5 -166.5t-224 -109 t-289.5 -39q-40 0 -85 3t-88.5 8.5t-82 13t-66.5 17.5v225v0z" />
<glyph horiz-adv-x="1347" d="M31 130l555 1251h112l251 -81l-495 -948l-82 -113h402l41 415h276v-415h225v-239h-225v-382h-317v382h-662z" />
<glyph horiz-adv-x="1347" d="M164 -239q20 -1 44 -1.5t43 -0.5q139 0 245.5 26.5t178.5 73t108.5 109.5t36.5 135q0 115 -66.5 172.5t-203.5 57.5q-35 0 -72.5 -5.5t-74.5 -14.5t-72.5 -20t-66.5 -22l-72 36l53 832h894l-31 -281h-600l-34 -325q56 20 122.5 30.5t125.5 10.5q115 0 201.5 -30 t144.5 -87.5t87 -141t29 -189.5q0 -132 -57.5 -243.5t-168 -192t-270 -125.5t-363.5 -45q-12 0 -33 1t-44.5 3t-46 4.5t-38.5 6.5l1 226v0z" />
<glyph horiz-adv-x="1347" d="M122 614q0 154 36 289t99.5 249t148.5 205t183 156t203.5 103t210.5 46l76 -208q-115 -18 -210 -63t-169 -113.5t-125.5 -159.5t-79.5 -200q17 21 45.5 45t69.5 44.5t95.5 34t122.5 13.5q107 0 186 -33t131.5 -95.5t78 -154t25.5 -208.5q0 -114 -36 -219t-109 -185.5 t-183.5 -128t-259.5 -47.5q-121 0 -220 45t-170 127.5t-110 198.5t-39 259zM702 222q54 0 94.5 26.5t67.5 70t41 99t14 113.5q0 82 -13 137.5t-38 90t-60 49.5t-79 15q-41 0 -72 -6.5t-53.5 -16t-38 -20t-25.5 -17.5l-57 107q-20 -101 -21 -213q-1 -92 10.5 -171.5 t39.5 -138t74.5 -92t115.5 -33.5z" />
<glyph horiz-adv-x="1347" d="M273 -405q17 37 50.5 101.5t76.5 147.5t93 178.5t101.5 194t101 194.5t91 179t72 148t44.5 102l-790 -1v301h1081l69 -90l-642 -1549l-348 94v0z" />
<glyph horiz-adv-x="1347" d="M104 392q0 55 15 108t48 101t85.5 90.5t127.5 76.5q-47 32 -88.5 68t-72 81t-48 100.5t-17.5 126.5q0 84 35 156t101 125t161.5 83t217.5 30q123 0 217.5 -27t158.5 -75.5t97 -115t33 -144.5q0 -55 -13.5 -106.5t-43 -97.5t-77 -86t-116.5 -72q62 -35 119 -74t101 -87 t70 -106t27 -131q1 -105 -41.5 -185.5t-117.5 -135t-177.5 -83t-221.5 -28.5q-132 0 -239 27.5t-183 80t-117 128.5t-41 172zM743 908q75 43 115.5 106t41.5 149q1 39 -14.5 70.5t-44 53t-68 33.5t-86.5 12q-55 0 -95.5 -12.5t-67.5 -34t-40 -49.5t-13 -59q0 -48 21.5 -85 t59 -68t86.5 -59t105 -57zM411 414q0 -108 68.5 -157.5t201.5 -49.5q43 0 82 11.5t68 33t46.5 53.5t17.5 74q0 51 -28 90.5t-74 72.5t-106.5 62.5t-124.5 61.5q-33 -20 -60.5 -44t-48 -54.5t-31.5 -68.5t-11 -85z" />
<glyph horiz-adv-x="1347" d="M268 -316q114 18 208.5 60t167.5 105.5t125.5 148t82.5 186.5q-18 -20 -44.5 -40.5t-64 -37t-86.5 -27t-111 -10.5q-108 0 -189.5 42t-136 114t-82 167t-27.5 201q0 121 37.5 224t111.5 178.5t183.5 118.5t254.5 43q123 0 222 -45t168.5 -128t107.5 -199.5t38 -258.5 q0 -157 -36.5 -293.5t-99.5 -250t-148.5 -203t-184 -153.5t-204.5 -101t-211 -46zM639 301q44 0 74.5 6t51.5 15t35 19t26 17l47 -92q11 51 16 105t6 111q1 95 -10.5 175t-40 137.5t-75 90t-113.5 32.5q-51 0 -91 -23.5t-68 -62.5t-43 -89.5t-15 -103.5q0 -76 13 -138 t38.5 -106.5t63 -68.5t85.5 -24z" />
<glyph horiz-adv-x="1347" d="M86 574q2 136 45.5 244t122.5 183.5t189.5 115.5t245.5 40q111 0 197 -22t150 -62t107.5 -95.5t70 -122t37.5 -143t10 -157.5q-2 -131 -44 -236.5t-119 -180t-187 -114.5t-247 -40q-110 0 -196.5 22t-151 61.5t-109 94.5t-72 120.5t-39 139.5t-10.5 152zM756 903 q-37 17 -80 17q-61 0 -105 -22.5t-73 -66t-43 -106t-14 -142.5q0 -75 14.5 -142.5t46.5 -119.5zM594 237q37 -16 78 -16q60 -1 104 20.5t72.5 63.5t42 103t13.5 140q0 78 -13 144.5t-42 119.5z" />
</font>
</defs>
</svg>
