<?xml version="1.0" encoding="utf-8"?>
<!-- Generator: Adobe Illustrator 16.0.0, SVG Export Plug-In . SVG Version: 6.00 Build 0)  -->
<!DOCTYPE svg PUBLIC "-//W3C//DTD SVG 1.1//EN" "http://www.w3.org/Graphics/SVG/1.1/DTD/svg11.dtd">
<svg version="1.1" id="Layer_1" xmlns="http://www.w3.org/2000/svg" xmlns:xlink="http://www.w3.org/1999/xlink" x="0px" y="0px"
	 width="450px" height="122.8px" viewBox="0 0 450 122.8" enable-background="new 0 0 450 122.8" xml:space="preserve">
<g>
	<rect x="155" y="6.3" fill-rule="evenodd" clip-rule="evenodd" width="14.5" height="76"/>
	<rect y="89.8" fill-rule="evenodd" clip-rule="evenodd" fill="#F1F2F2" width="14" height="15.5"/>
	<g>
		<g>
			<path fill-rule="evenodd" clip-rule="evenodd" fill="#E6E7E8" d="M19.5,49.3c4.5,2.6,11,3,11,3l126.5,0.5
				c0.4-16.9,4.1-39.5,5.7-48.5H31c0,0-15.3,15-20.6,36.6C11.6,42.4,15,46.6,19.5,49.3z M39.5,11.3c0,0,104.2,0,105.5,0
				s3.5,1.8,3.5,3c0,1.2-3,28.1-3,29c0,0.9-1.9,5-6,5c-4.1,0-79,0-79,0c-3.6-0.1-8-6.3-6.5-4S37.7,22.1,38,12.8
				C38.1,11.8,38.7,11.3,39.5,11.3z M377.5,51.3c7,1.7,33.5,7.1,43.5,8.5c6.8,1,14.6,4.6,18.9,6.8c-3-3.4-7.4-5.9-14.4-7.8
				c-7.3-2.1-22-4-22-4s-18.8-2.8-31.3-6.1C372.8,49.5,374.2,50.5,377.5,51.3z M450,113.3c0,0,0.2-26.1-6.5-41
				c-0.2-0.5-0.5-1-0.8-1.6c-2.4-1.7-10.4-6.8-21.2-8.9c-13.1-2.6-37.3-6.6-45-8.5c-5.3-1.3-6.9-3.9-7.3-5.4
				c-1.8-0.5-3.4-1.1-4.7-1.6c-0.3-0.1-0.6-0.3-1-0.5c0,6.2-0.1,22.6-2.5,37.5c-2.4,14.8-8.5,28-8.5,28h-2c0,0,6-12.4,8.5-28
				c2.5-15.5,2.6-33.7,2.5-38.7C349.1,36.5,320,7.3,309,7.3c-3.5,0-30.8-3.5-67.4-4l-0.1,108H240l0.3-108c-19.1-0.3-68.4-2.4-74.3,3
				c-1.3,3-2.5,6.5-2.5,6.5s-0.1,0-0.2,0c-1.2,6.7-4.3,25.5-4.3,43c0,22.2,2.5,44.5,2.5,44.5l-0.4-0.2c1.5,6.8,1.4,12.2,1.4,12.2
				H364c0,0,1.2-32.5,34-32.5c24.1,0,33,22.6,33,30c0,7.4-0.5,11-0.5,11s11.3-0.6,15.5-2C450.2,117.4,450,113.3,450,113.3z
				 M236,44.8c0,3.9-3.1,7-7,7h-48c-3.9,0-7-3.1-7-7l1.5-22.5c1.2-11,2.3-13,13-13l40.5-1c3.9,0,7,3.1,7,7V44.8z M255,52.8
				c-3.9,0-7-3.1-7-7l-1.5-31c0-3.9,1.6-6,5.5-6c0,0,46.4,3,46.5,3c9.3,0,53.5,40.5,53.5,40.5s1.9,3-2,3L255,52.8z M157,54.8
				L30.5,54.3c0,0-6.8-0.4-12-3c-4.9-2.5-7.8-6.3-8.7-7.6c-0.1,0.5-0.2,1-0.3,1.6c-4.1,23.9,0.4,63.5,4,63.5l74.5,3
				c0,0-2-41,38.5-41c18.5,0,27.5,10.4,31.9,20.7c-0.6-8.2-1.4-22-1.4-36.2C157,55.1,157,55,157,54.8z"/>
		</g>
	</g>
	<path fill-rule="evenodd" clip-rule="evenodd" fill="#A7A9AC" d="M236,105.6c0-1-0.8-1.8-1.8-1.8h-67c-1,0-1.8,0.8-1.8,1.8l0,0
		c0,1,0.8,1.8,1.8,1.8h67C235.2,107.3,236,106.5,236,105.6L236,105.6z"/>
	<path fill-rule="evenodd" clip-rule="evenodd" fill="#A7A9AC" d="M347.5,105.6c0-1-1.1-1.8-2.6-1.8h-97.9c-1.4,0-2.6,0.8-2.6,1.8
		l0,0c0,1,1.1,1.8,2.6,1.8h97.9C346.4,107.3,347.5,106.5,347.5,105.6L347.5,105.6z"/>
	<path fill-rule="evenodd" clip-rule="evenodd" fill="#A7A9AC" d="M182.5,60.8c0-2.8-2.2-5-5-5H177c-2.8,0-5,2.2-5,5l0,0
		c0,2.8,2.2,5,5,5h0.5C180.3,65.8,182.5,63.6,182.5,60.8L182.5,60.8z"/>
	<path fill-rule="evenodd" clip-rule="evenodd" fill="#A7A9AC" d="M262.5,61.3c0-2.8-2.2-5-5-5H257c-2.8,0-5,2.2-5,5l0,0
		c0,2.8,2.2,5,5,5h0.5C260.3,66.3,262.5,64.1,262.5,61.3L262.5,61.3z"/>
	<path fill-rule="evenodd" clip-rule="evenodd" fill="#F1F2F2" d="M185,60.8c0-1-0.2-1.8-0.4-1.8h-14.7c-0.2,0-0.4,0.8-0.4,1.8l0,0
		c0,1,0.2,1.8,0.4,1.8h14.7C184.8,62.6,185,61.8,185,60.8L185,60.8z"/>
	<path fill-rule="evenodd" clip-rule="evenodd" fill="#F1F2F2" d="M265,60.8c0-1-0.2-1.8-0.4-1.8h-14.7c-0.2,0-0.4,0.8-0.4,1.8l0,0
		c0,1,0.2,1.8,0.4,1.8h14.7C264.8,62.6,265,61.8,265,60.8L265,60.8z"/>
</g>
</svg>
